SplineFontDB: 1.0
FontName: FreeSansBoldOblique
FullName: Free Sans Bold Oblique
FamilyName: FreeSans
Weight: Bold
Copyright: Copyleft 2002, 2003, 2005 Free Software Foundation.
Version: $Revision: 1.22 $
ItalicAngle: -12
UnderlinePosition: -111
UnderlineWidth: 69
Ascent: 800
Descent: 200
NeedsXUIDChange: 1
FSType: 0
PfmFamily: 33
TTFWeight: 700
TTFWidth: 5
LineGap: 90
VLineGap: 0
Panose: 2 11 7 4 2 2 2 9 2 4
OS2TypoAscent: 0
OS2TypoAOffset: 1
OS2TypoDescent: 0
OS2TypoDOffset: 1
OS2TypoLinegap: 0
OS2WinAscent: 0
OS2WinAOffset: 1
OS2WinDescent: 0
OS2WinDOffset: 1
HheadAscent: 0
HheadAOffset: 1
HheadDescent: 0
HheadDOffset: 1
OS2Vendor: 'PfEd'
ScriptLang: 3
 1 latn 1 dflt 
 1 hebr 1 dflt 
 1 DFLT 1 dflt 
ChainSub: class 0 0 'ccmp' 3 1 3 1
  Class: 3 i j
  Class: 109 gravecomb acutecomb uni0302 tildecomb uni0304 uni0306 uni0307 uni0308 uni030A uni030B uni030C uni030F uni0311
  FClass: 3 i j
  FClass: 109 gravecomb acutecomb uni0302 tildecomb uni0304 uni0306 uni0307 uni0308 uni030A uni030B uni030C uni030F uni0311
 1 0 1
  ClsList: 1
  BClsList:
  FClsList: 2
 1
  SeqLookup: 0 's001'
EndFPST
GenTags: 1 sb's001'
TtfTable: cvt  4
!$MDh
EndTtf
LangName: 1033 "" "" "" "" "" "" "" "" "" "" "" "" "" "The use of this font is granted subject to GNU General Public License." "http://www.gnu.org/copyleft/gpl.html" "" "" "" "" "The quick brown fox jumps over the lazy dog." 
LangName: 1060 "" "" "polkrepko le+AX4A-e+AQ0A-e" "" "" "" "" "" "" "" "" "" "" "Dovoljena je uporaba v skladu z licenco GNU General Public License." "http://www.gnu.org/copyleft/gpl.html" "" "" "" "" "+AWAA-erif bo za vajo spet kuhal doma+AQ0A-e +AX4A-gance." 
Encoding: UnicodeBmp
UnicodeInterp: none
DisplaySize: -36
AntiAlias: 1
FitToEm: 1
WinInfo: 7854 33 17
BeginPrivate: 8
UniqueID 7 5020910
BlueValues 31 [-23 0 540 560 729 749 701 724]
BlueScale 8 0.039625
StdHW 5 [113]
StdVW 5 [145]
StemSnapH 196 [104 113 127] 
systemdict /internaldict known
{1183615869 systemdict /internaldict get exec

StartChar: exclam
Encoding: 33 33 1
Width: 333
Flags: W
HStem: 0 21G<112 262>
Fore
417 726 m 1
 372 516 l 1
 265 207 l 1
 198 207 l 1
 222 516 l 1
 267 726 l 1
 417 726 l 1
293 146 m 1
 262 0 l 1
 112 0 l 1
 143 146 l 1
 293 146 l 1
EndSplineSet
EndChar
StartChar: quotedbl
Encoding: 34 34 2
Width: 474
Flags: W
HStem: 709 20G<205 343 441 579>
Fore
343 729 m 1
 315 599 l 1
 246 470 l 1
 190 470 l 1
 177 599 l 1
 205 729 l 1
 343 729 l 1
579 729 m 1
 551 599 l 1
 482 470 l 1
 426 470 l 1
 413 599 l 1
 441 729 l 1
 579 729 l 1
EndSplineSet
EndChar
StartChar: numbersign
Encoding: 35 35 3
Width: 556
Flags: W
HStem: 172 100<60 157 222 365 430 549> 424 100<142 260 325 468 533 639>
Fore
138 -32 m 1
 33 -32 l 1
 116 172 l 1
 39 172 l 1
 60 272 l 1
 157 272 l 1
 219 424 l 1
 120 424 l 1
 142 524 l 1
 260 524 l 1
 331 697 l 1
 437 697 l 1
 365 524 l 1
 468 524 l 1
 539 697 l 1
 645 697 l 1
 573 524 l 1
 660 524 l 1
 639 424 l 1
 533 424 l 1
 471 272 l 1
 570 272 l 1
 549 172 l 1
 430 172 l 1
 346 -32 l 1
 241 -32 l 1
 324 172 l 1
 222 172 l 1
 138 -32 l 1
262 272 m 1
 365 272 l 1
 427 424 l 1
 325 424 l 1
 262 272 l 1
EndSplineSet
EndChar
StartChar: dollar
Encoding: 36 36 4
Width: 556
Flags: W
VStem: 142 130<429.5 511.5> 430 143<170 288> 498 130<532 612.5>
Fore
461 709 m 1xc0
 531 703 628 678 628 547 c 0
 628 532 627 520 623 498 c 1
 495 498 l 1
 497 517 498 526 498 538 c 0xa0
 498 576 476 602 440 608 c 1
 397 407 l 1
 482 381 573 339 573 237 c 0
 573 149 521 61 445 19 c 0
 406 -2 362 -15 306 -21 c 1
 284 -126 l 1
 216 -126 l 1
 239 -21 l 1
 123 -9 59 51 59 148 c 0
 59 166 61 182 67 207 c 1
 197 207 l 1
 196 188 196 181 196 174 c 0
 196 123 217 95 261 86 c 1
 307 299 l 1
 196 327 142 384 142 475 c 0
 142 531 176 688 394 709 c 1
 405 763 l 1
 473 763 l 1
 461 709 l 1xc0
372 608 m 1
 280 590 272 522 272 501 c 0
 272 468 293 443 334 427 c 1
 372 608 l 1
371 282 m 1
 329 86 l 1
 393 101 430 142 430 198 c 0xc0
 430 238 410 266 371 282 c 1
EndSplineSet
EndChar
StartChar: percent
Encoding: 37 37 5
Width: 889
Flags: W
HStem: -20 98<635 737> 246 98<692.5 794.5> 337 98<237 339> 603 98<294.5 396.5>
VStem: 129 100<440.5 538.5> 405 100<499.5 598.5> 527 100<83.5 181.5> 803 100<142.5 241.5>
Fore
756 709 m 1x9f
 833 709 l 1
 282 -20 l 1
 206 -20 l 1
 756 709 l 1x9f
352 701 m 0
 441 701 505 640 505 557 c 0
 505 442 398 337 280 337 c 0xbf
 194 337 129 399 129 482 c 0
 129 595 237 701 352 701 c 0
331 603 m 0
 278 603 229 554 229 501 c 0
 229 464 261 435 302 435 c 0
 356 435 405 483 405 536 c 0
 405 574 373 603 331 603 c 0
750 344 m 0xdf
 839 344 903 283 903 200 c 0
 903 85 796 -20 678 -20 c 0
 592 -20 527 42 527 125 c 0
 527 238 635 344 750 344 c 0xdf
729 246 m 0
 676 246 627 197 627 144 c 0
 627 107 659 78 700 78 c 0
 754 78 803 126 803 179 c 0
 803 217 771 246 729 246 c 0
EndSplineSet
EndChar
StartChar: ampersand
Encoding: 38 38 6
Width: 722
Flags: W
HStem: -23 116<225 332> 615 108<411 516.5>
VStem: 89 137<100 210> 246 137<507.5 576.5> 499 125<541 640.5>
Fore
624 605 m 0
 624 477 505 415 465 392 c 1
 547 255 l 1
 581 286 596 316 607 373 c 1
 720 373 l 1
 709 300 661 213 602 160 c 1
 696 0 l 1
 536 0 l 1
 499 60 l 1
 407 -6 364 -23 287 -23 c 0
 163 -23 89 44 89 156 c 0
 89 257 145 330 299 401 c 1
 263 452 246 492 246 523 c 0
 246 630 351 723 471 723 c 0
 562 723 624 676 624 605 c 0
347 319 m 1
 295 290 l 2
 246 262 226 233 226 187 c 0
 226 135 266 93 315 93 c 0
 349 93 380 107 446 152 c 1
 347 319 l 1
419 470 m 1
 471 497 499 533 499 574 c 0
 499 599 480 615 448 615 c 0
 410 615 383 589 383 552 c 0
 383 534 388 524 419 470 c 1
EndSplineSet
EndChar
StartChar: quotesingle
Encoding: 39 39 7
Width: 238
Flags: W
HStem: 709 20G<205 343>
Fore
343 729 m 1
 315 599 l 1
 245 470 l 1
 190 470 l 1
 177 599 l 1
 205 729 l 1
 343 729 l 1
EndSplineSet
EndChar
StartChar: parenleft
Encoding: 40 40 8
Width: 333
Flags: W
HStem: 709 20G<358 458>
VStem: 84 119<66 227.5>
Fore
458 729 m 1
 306 521 203 343 203 112 c 0
 203 20 217 -56 261 -200 c 1
 161 -200 l 1
 110 -83 84 25 84 122 c 0
 84 324 168 510 358 729 c 1
 458 729 l 1
EndSplineSet
EndChar
StartChar: parenright
Encoding: 41 41 9
Width: 333
Flags: W
HStem: 709 20G<176 276>
VStem: 237 119<300.5 462.5>
Fore
356 406 m 0
 356 273 328 83 79 -200 c 1
 -21 -200 l 1
 135 10 237 185 237 416 c 0
 237 509 223 582 176 729 c 1
 276 729 l 1
 331 608 356 504 356 406 c 0
EndSplineSet
EndChar
StartChar: asterisk
Encoding: 42 42 10
Width: 389
Flags: W
HStem: 709 20G<307 379>
Fore
246 544 m 1
 145 580 l 1
 182 649 l 1
 283 613 l 1
 307 729 l 1
 379 729 l 1
 354 613 l 1
 471 649 l 1
 478 579 l 1
 362 544 l 1
 409 450 l 1
 342 407 l 1
 295 501 l 1
 208 407 l 1
 159 450 l 1
 246 544 l 1
EndSplineSet
EndChar
StartChar: plus
Encoding: 43 43 11
Width: 584
Flags: W
HStem: -10 21G<230 349> 172 120<112 294 413 571>
Fore
596 292 m 1
 571 172 l 1
 388 172 l 1
 349 -10 l 1
 230 -10 l 1
 269 172 l 1
 87 172 l 1
 112 292 l 1
 294 292 l 1
 333 473 l 1
 452 473 l 1
 413 292 l 1
 596 292 l 1
EndSplineSet
EndChar
StartChar: comma
Encoding: 44 44 12
Width: 278
Flags: W
HStem: -20 20G<64 150>
Fore
95 146 m 1
 245 146 l 1
 216 9 l 1
 197 -101 137 -158 27 -174 c 1
 39 -118 l 1
 101 -107 137 -68 150 0 c 1
 64 0 l 1
 95 146 l 1
EndSplineSet
KernsSLIFO: 900 -35 2 0 903 -39 2 0 939 -79 2 0
EndChar
StartChar: hyphen
Encoding: 45 45 13
Width: 333
Flags: W
HStem: 207 135<99 342>
Fore
371 342 m 1
 342 207 l 1
 70 207 l 1
 99 342 l 1
 371 342 l 1
EndSplineSet
KernsSLIFO: 33 -7 2 0 52 -64 2 0 54 -34 2 0 55 -15 2 0 57 -71 2 0 126 -7 2 0 129 -7 2 0 130 -7 2 0 131 2 2 0
EndChar
StartChar: period
Encoding: 46 46 14
Width: 278
Flags: W
HStem: 0 21G<64 214>
Fore
245 146 m 1
 214 0 l 1
 64 0 l 1
 95 146 l 1
 245 146 l 1
EndSplineSet
KernsSLIFO: 900 -35 2 0 903 -39 2 0 939 -80 2 0
EndChar
StartChar: slash
Encoding: 47 47 15
Width: 278
Flags: W
HStem: -14 21G<-1 66> 694 20G<360 427>
Fore
360 714 m 1
 427 714 l 1
 66 -14 l 1
 -1 -14 l 1
 360 714 l 1
EndSplineSet
EndChar
StartChar: zero
Encoding: 48 48 16
Width: 556
Flags: W
HStem: -23 122<212 329.5> 612 112<364.5 481>
VStem: 81 143<114.5 231.5> 471 143<475.5 587.5>
Fore
421 724 m 0
 541 724 614 649 614 526 c 0
 614 425 576 251 534 160 c 0
 479 41 387 -23 271 -23 c 0
 153 -23 81 53 81 176 c 0
 81 277 119 449 161 541 c 0
 216 659 308 724 421 724 c 0
394 612 m 0
 359 612 330 593 306 555 c 0
 273 502 224 280 224 183 c 0
 224 132 254 99 300 99 c 0
 359 99 393 138 421 237 c 0
 448 332 471 466 471 528 c 0
 471 579 441 612 394 612 c 0
EndSplineSet
EndChar
StartChar: one
Encoding: 49 49 17
Width: 556
Flags: W
HStem: 0 21G<238 378> 489 93<192 342> 689 20G<436 529>
Fore
342 489 m 1
 172 489 l 1
 192 582 l 1
 314 582 396 625 436 709 c 1
 529 709 l 1
 378 0 l 1
 238 0 l 1
 342 489 l 1
EndSplineSet
EndChar
StartChar: two
Encoding: 50 50 18
Width: 556
Flags: W
HStem: 0 125<30 512> 612 112<343.5 486>
VStem: 485 143<432 606>
Fore
628 552 m 0
 628 312 314 237 238 125 c 1
 538 125 l 1
 512 0 l 1
 30 0 l 1
 103 275 290 254 431 404 c 0
 465 438 485 486 485 532 c 0
 485 582 453 612 399 612 c 0
 330 612 285 559 272 462 c 1
 138 462 l 1
 164 630 266 724 421 724 c 0
 551 724 628 660 628 552 c 0
EndSplineSet
EndChar
StartChar: three
Encoding: 51 51 19
Width: 556
Flags: W
HStem: -23 122<207 362.5> 317 94<284 361> 612 112<336 476.5>
VStem: 67 143<96 198> 422 143<178.5 284> 465 148<502.5 621>
Fore
422 230 m 0xf8
 422 304 377 317 284 317 c 1
 304 411 l 1
 316 411 l 2
 406 411 465 463 465 542 c 0
 465 583 433 612 388 612 c 0
 291 612 278 515 271 486 c 1
 142 486 l 1
 173 649 259 724 413 724 c 0
 540 724 613 669 613 573 c 0xf4
 613 494 573 429 493 380 c 1
 542 350 565 311 565 257 c 0
 565 100 453 -23 272 -23 c 0
 142 -23 67 41 67 151 c 0
 67 170 69 185 73 208 c 1
 209 208 l 1
 210 198 l 1
 210 176 l 1
 211 127 243 99 300 99 c 0
 367 99 422 159 422 230 c 0xf8
EndSplineSet
EndChar
StartChar: four
Encoding: 52 52 20
Width: 556
Flags: W
HStem: 0 21G<308 448> 689 20G<434 599>
Fore
580 273 m 1
 555 157 l 1
 482 157 l 1
 448 0 l 1
 308 0 l 1
 342 157 l 1
 57 157 l 1
 82 275 l 1
 434 709 l 1
 599 709 l 1
 506 273 l 1
 580 273 l 1
366 273 m 1
 431 577 l 1
 182 273 l 1
 366 273 l 1
EndSplineSet
EndChar
StartChar: five
Encoding: 53 53 21
Width: 556
Flags: W
HStem: -23 122<199 390> 367 112<318 450.5> 689 20G<258 641>
VStem: 429 143<225.5 355>
Fore
572 300 m 0
 572 233 521 -23 259 -23 c 0
 139 -23 59 42 59 141 c 0
 59 154 60 165 64 185 c 1
 202 185 l 1
 201 176 200 168 200 163 c 0
 200 124 235 99 288 99 c 0
 369 99 429 175 429 276 c 0
 429 334 397 367 339 367 c 0
 297 367 260 348 238 314 c 1
 112 314 l 1
 258 709 l 1
 641 709 l 1
 614 584 l 1
 318 584 l 1
 264 436 l 1
 311 467 349 479 396 479 c 0
 505 479 572 410 572 300 c 0
EndSplineSet
EndChar
StartChar: six
Encoding: 54 54 22
Width: 556
Flags: W
HStem: -23 122<223.5 401> 355 112<315 461.5> 548 21G<494 624> 612 112<291 499.5>
VStem: 85 130<112 233> 434 143<222.5 352>
Fore
85 171 m 0
 85 282 139 724 443 724 c 0
 556 724 625 666 625 571 c 0
 625 566 625 557 624 548 c 1
 494 548 l 1
 485 594 462 612 414 612 c 0
 327 612 297 547 260 411 c 1
 310 449 357 467 409 467 c 0
 514 467 577 404 577 300 c 0
 577 221 518 -23 284 -23 c 0
 163 -23 85 53 85 171 c 0
352 355 m 0
 278 355 215 278 215 188 c 0
 215 136 250 99 301 99 c 0
 374 99 434 176 434 269 c 0
 434 320 401 355 352 355 c 0
EndSplineSet
EndChar
StartChar: seven
Encoding: 55 55 23
Width: 556
Flags: W
HStem: 0 21G<131 273> 584 125<178 679>
Fore
679 709 m 1
 656 599 l 1
 551 491 l 1
 404 328 326 191 273 0 c 1
 131 0 l 1
 211 242 309 396 504 584 c 1
 151 584 l 1
 178 709 l 1
 679 709 l 1
EndSplineSet
EndChar
StartChar: eight
Encoding: 56 56 24
Width: 556
Flags: W
HStem: -23 122<209.5 336.5> 330 95<303 398> 612 112<349.5 480.5>
VStem: 60 143<100.5 228.5> 156 122<473.5 557.5> 432 143<204 283> 490 130<508 615.5>
Fore
620 570 m 0xea
 620 460 524 405 491 386 c 1
 552 349 575 313 575 253 c 0
 575 185 542 110 489 59 c 0
 435 6 359 -23 276 -23 c 0
 143 -23 60 46 60 155 c 0xf4
 60 302 180 365 221 386 c 1
 174 422 156 452 156 495 c 0
 156 620 277 724 422 724 c 0
 539 724 620 661 620 570 c 0xea
398 612 m 0
 331 612 278 563 278 500 c 0
 278 455 312 425 363 425 c 0
 433 425 490 476 490 540 c 0xea
 490 583 453 612 398 612 c 0
342 330 m 0
 264 330 203 264 203 180 c 0
 203 133 243 99 297 99 c 0
 376 99 432 161 432 247 c 0xf4
 432 298 397 330 342 330 c 0
EndSplineSet
EndChar
StartChar: nine
Encoding: 57 57 25
Width: 556
Flags: W
HStem: -23 122<194.5 402.5> 228 116<237 377> 612 112<331 473>
VStem: 120 137<349 492.5> 481 130<468 581>
Fore
611 519 m 0
 611 417 557 -23 248 -23 c 0
 141 -23 68 40 68 132 c 0
 68 142 69 149 72 165 c 1
 207 165 l 1
 206 160 206 156 206 153 c 0
 206 121 238 99 285 99 c 0
 347 99 400 132 436 291 c 1
 380 243 345 228 289 228 c 0
 185 228 120 295 120 403 c 0
 120 582 249 724 413 724 c 0
 533 724 611 643 611 519 c 0
389 612 m 0
 315 612 257 532 257 431 c 0
 257 378 288 344 337 344 c 0
 417 344 481 422 481 519 c 0
 481 576 445 612 389 612 c 0
EndSplineSet
EndChar
StartChar: colon
Encoding: 58 58 26
Width: 333
Flags: W
HStem: 0 21G<113 263>
Fore
294 146 m 1
 263 0 l 1
 113 0 l 1
 144 146 l 1
 294 146 l 1
374 520 m 1
 343 374 l 1
 193 374 l 1
 224 520 l 1
 374 520 l 1
EndSplineSet
EndChar
StartChar: semicolon
Encoding: 59 59 27
Width: 333
Flags: W
HStem: -20 20G<113 199>
Fore
144 146 m 1
 294 146 l 1
 265 9 l 1
 246 -101 186 -158 76 -174 c 1
 88 -118 l 1
 150 -107 186 -68 199 0 c 1
 113 0 l 1
 144 146 l 1
374 520 m 1
 343 374 l 1
 193 374 l 1
 224 520 l 1
 374 520 l 1
EndSplineSet
EndChar
StartChar: less
Encoding: 60 60 28
Width: 584
Flags: W
Fore
630 474 m 1
 603 345 l 1
 263 232 l 1
 555 121 l 1
 527 -10 l 1
 77 172 l 1
 103 293 l 1
 630 474 l 1
EndSplineSet
EndChar
StartChar: equal
Encoding: 61 61 29
Width: 584
Flags: W
HStem: 52 120<86 546> 292 120<137 597>
Fore
622 412 m 1
 597 292 l 1
 112 292 l 1
 137 412 l 1
 622 412 l 1
571 172 m 1
 546 52 l 1
 61 52 l 1
 86 172 l 1
 571 172 l 1
EndSplineSet
EndChar
StartChar: greater
Encoding: 62 62 30
Width: 584
Flags: W
Fore
38 -10 m 1
 65 119 l 1
 405 232 l 1
 113 343 l 1
 141 474 l 1
 591 292 l 1
 565 171 l 1
 38 -10 l 1
EndSplineSet
EndChar
StartChar: question
Encoding: 63 63 31
Width: 611
Flags: W
HStem: 0 21G<237 387> 620 124<341 542.5>
VStem: 529 143<463.5 601.5>
Fore
456 744 m 0
 629 744 672 637 672 566 c 0
 672 413 550 347 505 320 c 0
 437 278 428 267 414 201 c 1
 292 201 l 1
 310 393 529 394 529 533 c 0
 529 584 491 620 438 620 c 0
 370 620 321 569 304 481 c 1
 168 481 l 1
 181 540 226 744 456 744 c 0
418 146 m 1
 387 0 l 1
 237 0 l 1
 268 146 l 1
 418 146 l 1
EndSplineSet
EndChar
StartChar: at
Encoding: 64 64 32
Width: 975
Flags: W
HStem: -137 83<300 507.5> 53 83<397.5 513.5> 446 72<558.5 651> 662 83<455.5 778.5>
VStem: 73 100<121.5 249> 301 100<149 265> 671 14<163.5 396.5> 939 93<325 522>
Fore
1032 439 m 0
 1032 211 836 56 705 56 c 0
 649 56 612 80 597 126 c 1
 548 78 493 53 438 53 c 0
 357 53 301 109 301 189 c 0
 301 249 335 324 391 390 c 0
 460 470 548 518 626 518 c 0
 676 518 703 499 723 449 c 1
 750 508 l 1
 840 508 l 1
 704 228 l 1
 687 195 685 188 685 174 c 0
 685 153 701 139 724 139 c 0
 775 139 939 245 939 425 c 0
 939 545 830 662 641 662 c 0
 270 662 173 302 173 196 c 0
 173 50 298 -54 476 -54 c 0
 539 -54 594 -43 688 -13 c 1
 700 -92 l 1
 624 -123 548 -137 453 -137 c 0
 147 -137 73 62 73 181 c 0
 73 311 133 450 235 557 c 0
 349 677 506 745 670 745 c 0
 887 745 1032 605 1032 439 c 0
671 376 m 0
 671 417 643 446 601 446 c 0
 516 446 401 315 401 215 c 0
 401 168 428 136 468 136 c 0
 559 136 671 284 671 376 c 0
EndSplineSet
EndChar
StartChar: A
Encoding: 65 65 33
Width: 722
Flags: W
HStem: 0 21G<26 179 550 703> 709 20G<433 606>
Fore
532 147 m 1
 260 147 l 1
 179 0 l 1
 26 0 l 1
 433 729 l 1
 606 729 l 1
 703 0 l 1
 550 0 l 1
 532 147 l 1
518 272 m 1
 483 555 l 1
 329 272 l 1
 518 272 l 1
EndSplineSet
KernsSLIFO: 12 9 0 0 13 2 0 0 14 13 0 0 35 -36 0 0 39 -38 0 0 47 -37 0 0 49 -39 0 0 52 -91 0 0 53 -37 0 0 54 -74 0 0 55 -57 0 0 57 -96 0 0 65 -11 0 0 66 -10 0 0 67 -17 0 0 68 -17 0 0 69 -10 0 0 71 -20 0 0 79 -19 0 0 81 -13 0 0 84 -21 0 0 85 -17 0 0 86 -42 0 0 87 -28 0 0 89 -41 0 0 105 -48 0 0 132 -36 0 0 147 -37 0 0 150 -37 0 0 151 -37 0 0 152 -37 0 0 153 -37 0 0 164 -17 0 0 900 -67 0 0 903 -71 0 0 910 -44 0 0
EndChar
StartChar: B
Encoding: 66 66 34
Width: 722
Flags: W
HStem: 0 125<259 489.5> 709 20G<237 562>
Fore
562 729 m 2
 723 729 762 638 762 571 c 0
 762 502 721 438 645 388 c 1
 696 348 716 310 716 255 c 0
 716 196 684 126 635 78 c 0
 579 24 510 0 410 0 c 2
 82 0 l 1
 237 729 l 1
 562 729 l 2
489 439 m 2
 594 439 613 502 613 542 c 0
 613 585 586 604 524 604 c 2
 360 604 l 1
 325 439 l 1
 489 439 l 2
437 125 m 2
 542 125 568 192 568 245 c 0
 568 292 539 314 477 314 c 2
 299 314 l 1
 259 125 l 1
 437 125 l 2
EndSplineSet
KernsSLIFO: 33 -41 0 0 47 -18 0 0 54 -46 0 0 55 -30 0 0 57 -63 0 0 126 -41 0 0 127 -41 0 0 128 -41 0 0 129 -41 0 0 130 -41 0 0 131 -30 0 0 143 -18 0 0 144 -18 0 0 145 -18 0 0 147 -18 0 0 149 -17 0 0 271 -9 0 0
EndChar
StartChar: C
Encoding: 67 67 35
Width: 722
Flags: W
HStem: -23 128<296.5 473> 613 128<405.5 610.5>
VStem: 107 149<155 376> 648 145<482 594>
Fore
107 235 m 0
 107 517 289 741 533 741 c 0
 688 741 793 656 793 532 c 0
 793 521 792 510 789 482 c 1
 648 482 l 1
 648 559 615 613 516 613 c 0
 295 613 256 334 256 264 c 0
 256 159 306 105 403 105 c 0
 499 105 570 157 599 249 c 1
 742 249 l 1
 698 78 564 -23 382 -23 c 0
 211 -23 107 75 107 235 c 0
EndSplineSet
KernsSLIFO: 33 -34 0 0 40 -1 0 0 43 -4 0 0 47 -12 0 0 126 -34 0 0 129 -34 0 0 130 -34 0 0 131 -23 0 0 144 -12 0 0 147 -12 0 0
EndChar
StartChar: D
Encoding: 68 68 36
Width: 722
Flags: W
HStem: 0 125<254 434.5> 709 20G<232 517>
VStem: 627 149<420 566.5>
Fore
77 0 m 1
 232 729 l 1
 517 729 l 2
 698 729 776 654 776 479 c 0
 776 361 735 238 664 140 c 0
 591 39 507 0 362 0 c 2
 77 0 l 1
254 125 m 1
 388 125 l 2
 475 125 524 153 567 228 c 0
 601 287 627 390 627 469 c 0
 627 560 582 604 490 604 c 2
 355 604 l 1
 254 125 l 1
EndSplineSet
KernsSLIFO: 33 -40 0 0 42 -4 0 0 52 -24 0 0 54 -37 0 0 55 -20 0 0 56 -40 0 0 57 -62 0 0 125 -40 0 0 126 -40 0 0 127 -40 0 0 128 -40 0 0 129 -40 0 0 130 -40 0 0
EndChar
StartChar: E
Encoding: 69 69 37
Width: 667
Flags: W
HStem: 0 125<79 624> 314 125<296 645> 709 20G<234 762>
Fore
296 314 m 1
 256 125 l 1
 651 125 l 1
 624 0 l 1
 79 0 l 1
 234 729 l 1
 762 729 l 1
 735 604 l 1
 357 604 l 1
 322 439 l 1
 671 439 l 1
 645 314 l 1
 296 314 l 1
EndSplineSet
EndChar
StartChar: F
Encoding: 70 70 38
Width: 611
Flags: W
HStem: 0 21G<74 224> 314 125<291 610> 709 20G<229 741>
Fore
291 314 m 1
 224 0 l 1
 74 0 l 1
 229 729 l 1
 741 729 l 1
 714 604 l 1
 352 604 l 1
 317 439 l 1
 637 439 l 1
 610 314 l 1
 291 314 l 1
EndSplineSet
KernsSLIFO: 12 -84 0 0 13 4 0 0 14 -82 0 0 33 -68 0 0 42 -33 0 0 47 -24 0 0 65 -23 0 0 69 -12 0 0 73 -15 0 0 74 -17 0 0 79 -21 0 0 82 -35 0 0 85 -32 0 0 125 -68 0 0 126 -68 0 0 127 -68 0 0 128 -68 0 0 129 -68 0 0 130 -68 0 0 147 -24 0 0 158 -23 0 0 161 -23 0 0 162 -23 0 0 163 -26 0 0 166 -12 0 0 176 -21 0 0 179 -21 0 0 181 -24 0 0 272 -16 0 0
EndChar
StartChar: G
Encoding: 71 71 39
Width: 778
Flags: W
HStem: -23 128<307 495> 267 125<503 642> 613 128<476.5 628.5>
VStem: 107 149<175 320>
Fore
795 392 m 1
 711 -2 l 1
 621 -2 l 1
 628 88 l 1
 554 9 488 -23 395 -23 c 0
 219 -23 107 88 107 262 c 0
 107 378 155 505 233 596 c 0
 315 691 424 741 547 741 c 0
 710 741 819 655 819 529 c 0
 819 521 818 510 817 496 c 1
 679 496 l 1
 671 571 614 613 519 613 c 0
 434 613 366 575 318 501 c 0
 282 446 256 355 256 284 c 0
 256 181 328 105 426 105 c 0
 564 105 626 218 642 267 c 1
 476 267 l 1
 503 392 l 1
 795 392 l 1
EndSplineSet
KernsSLIFO: 33 -17 0 0 52 -28 0 0 54 -41 0 0 55 -25 0 0 57 -65 0 0 125 -17 0 0 126 -17 0 0 127 -17 0 0 128 -17 0 0 129 -17 0 0 130 -17 0 0 131 -5 0 0
EndChar
StartChar: H
Encoding: 72 72 40
Width: 722
Flags: W
HStem: 0 21G<68 218 507 657> 709 20G<223 373 661 812>
Fore
577 331 m 1
 288 331 l 1
 218 0 l 1
 68 0 l 1
 223 729 l 1
 373 729 l 1
 315 456 l 1
 603 456 l 1
 661 729 l 1
 812 729 l 1
 657 0 l 1
 507 0 l 1
 577 331 l 1
EndSplineSet
EndChar
StartChar: I
Encoding: 73 73 41
Width: 278
Flags: W
HStem: 0 21G<63 213> 709 20G<218 368>
Fore
368 729 m 1
 213 0 l 1
 63 0 l 1
 218 729 l 1
 368 729 l 1
EndSplineSet
EndChar
StartChar: J
Encoding: 74 74 42
Width: 556
Flags: W
HStem: -23 128<188.5 303.5> 709 20G<491 641>
Fore
491 729 m 1
 641 729 l 1
 526 190 l 2
 510 114 475 55 426 23 c 0
 383 -5 313 -23 247 -23 c 0
 130 -23 59 36 59 133 c 0
 59 154 61 176 66 198 c 0
 81 270 l 1
 231 270 l 1
 215 193 l 1
 212 180 211 169 211 159 c 0
 211 127 238 105 277 105 c 0
 330 105 364 135 376 190 c 0
 491 729 l 1
EndSplineSet
KernsSLIFO: 33 -38 0 0 129 -38 0 0 130 -38 0 0 131 -29 0 0
EndChar
StartChar: K
Encoding: 75 75 43
Width: 722
Flags: W
HStem: 0 21G<74 224 538 717> 709 20G<229 379 665 843>
Fore
274 234 m 1
 224 0 l 1
 74 0 l 1
 229 729 l 1
 379 729 l 1
 311 409 l 1
 665 729 l 1
 843 729 l 1
 482 410 l 1
 717 0 l 1
 538 0 l 1
 365 314 l 1
 274 234 l 1
EndSplineSet
KernsSLIFO: 13 -52 0 0 35 -59 0 0 39 -61 0 0 47 -60 0 0 51 -45 0 0 52 5 0 0 65 -17 0 0 69 -38 0 0 79 -45 0 0 85 -35 0 0 89 -74 0 0 144 -60 0 0 147 -60 0 0 161 -17 0 0 162 -17 0 0 163 -17 0 0 176 -45 0 0 179 -45 0 0 185 -35 0 0 271 -51 0 0
EndChar
StartChar: L
Encoding: 76 76 44
Width: 611
Flags: W
HStem: 0 125<80 579> 709 20G<235 385>
Fore
385 729 m 1
 257 125 l 1
 606 125 l 1
 579 0 l 1
 80 0 l 1
 235 729 l 1
 385 729 l 1
EndSplineSet
KernsSLIFO: 13 -20 0 0 35 -35 0 0 39 -40 0 0 47 -39 0 0 51 -14 0 0 52 -104 0 0 53 -35 0 0 54 -102 0 0 55 -79 0 0 57 -121 0 0 85 -17 0 0 89 -64 0 0 131 12 0 0 132 -36 0 0 143 -39 0 0 144 -39 0 0 145 -39 0 0 146 -39 0 0 147 -39 0 0 153 -35 0 0 185 -17 0 0 900 -143 0 0 903 -147 0 0
EndChar
StartChar: M
Encoding: 77 77 45
Width: 833
Flags: W
HStem: 0 21G<66 208 347 497 634 776> 709 20G<221 438 712 931>
Fore
497 0 m 1
 347 0 l 1
 340 619 l 1
 208 0 l 1
 66 0 l 1
 221 729 l 1
 438 729 l 1
 458 169 l 1
 712 729 l 1
 931 729 l 1
 776 0 l 1
 634 0 l 1
 766 619 l 1
 497 0 l 1
EndSplineSet
EndChar
StartChar: N
Encoding: 78 78 46
Width: 722
Flags: W
HStem: 0 21G<68 210 513 661> 709 20G<223 373 674 816>
Fore
816 729 m 1
 661 0 l 1
 513 0 l 1
 321 523 l 1
 210 0 l 1
 68 0 l 1
 223 729 l 1
 373 729 l 1
 565 214 l 1
 674 729 l 1
 816 729 l 1
EndSplineSet
KernsSLIFO: 12 7 0 0 14 8 0 0 33 -15 0 0 35 -1 0 0 39 -2 0 0 47 -2 0 0 65 5 0 0 69 10 0 0 79 1 0 0 85 4 0 0 126 -15 0 0 129 -15 0 0 130 -15 0 0 131 -2 0 0 132 -1 0 0 144 -2 0 0 147 -2 0 0 158 5 0 0 161 5 0 0 162 5 0 0 163 4 0 0 166 10 0 0 176 1 0 0 179 1 0 0 181 2 0 0 185 4 0 0
EndChar
StartChar: O
Encoding: 79 79 47
Width: 778
Flags: W
HStem: -23 128<306 528.5> 613 128<409 629.5>
VStem: 106 149<173.5 318.5> 679 149<396 545>
Fore
538 741 m 0
 721 741 828 635 828 455 c 0
 828 337 783 215 705 124 c 0
 619 22 523 -23 395 -23 c 0
 217 -23 106 86 106 261 c 0
 106 376 153 502 231 594 c 0
 313 693 414 741 538 741 c 0
419 105 m 0
 638 105 679 371 679 437 c 0
 679 547 619 613 519 613 c 0
 299 613 255 351 255 282 c 0
 255 173 318 105 419 105 c 0
EndSplineSet
KernsSLIFO: 33 -42 0 0 52 -32 0 0 54 -40 0 0 55 -24 0 0 56 -43 0 0 57 -65 0 0 126 -42 0 0 129 -42 0 0 130 -42 0 0 131 -33 0 0
EndChar
StartChar: P
Encoding: 80 80 48
Width: 667
Flags: W
HStem: 0 21G<76 226> 709 20G<231 539>
VStem: 598 149<497 595.5>
Fore
539 729 m 2
 706 729 747 631 747 560 c 0
 747 483 712 398 658 341 c 0
 605 284 547 260 468 260 c 2
 281 260 l 1
 226 0 l 1
 76 0 l 1
 231 729 l 1
 539 729 l 2
461 385 m 2
 571 385 598 469 598 525 c 0
 598 572 562 604 508 604 c 2
 354 604 l 1
 308 385 l 1
 461 385 l 2
EndSplineSet
KernsSLIFO: 12 -103 0 0 13 -7 0 0 14 -101 0 0 33 -71 0 0 42 -52 0 0 65 -14 0 0 69 -13 0 0 79 -22 0 0 126 -71 0 0 129 -71 0 0 130 -71 0 0 131 -62 0 0 158 -14 0 0 161 -14 0 0 162 -14 0 0 163 -15 0 0 166 -13 0 0 176 -22 0 0 179 -22 0 0 181 -26 0 0 272 -17 0 0
EndChar
StartChar: Q
Encoding: 81 81 49
Width: 778
Flags: W
HStem: -23 128<308.5 434> 613 128<476 629.5>
VStem: 109 149<174.5 321.5> 682 149<391.5 542.5>
Fore
686 103 m 1
 750 27 l 1
 657 -54 l 1
 588 27 l 1
 527 -7 468 -23 397 -23 c 0
 220 -23 109 87 109 262 c 0
 109 378 156 504 232 594 c 0
 315 694 414 741 538 741 c 0
 721 741 831 632 831 453 c 0
 831 330 771 185 686 103 c 1
539 278 m 1
 604 200 l 1
 650 258 682 354 682 436 c 0
 682 547 621 613 518 613 c 0
 442 613 379 578 329 508 c 0
 285 447 258 361 258 282 c 0
 258 173 319 105 418 105 c 0
 450 105 482 112 507 124 c 1
 445 197 l 1
 539 278 l 1
EndSplineSet
EndChar
StartChar: R
Encoding: 82 82 50
Width: 722
Flags: W
HStem: 0 21G<80 230 518 677> 709 20G<235 612>
VStem: 636 149<506.5 606.5>
Fore
510 41 m 0
 510 102 548 198 548 234 c 0
 548 271 520 289 463 289 c 2
 291 289 l 1
 230 0 l 1
 80 0 l 1
 235 729 l 1
 612 729 l 2
 750 729 785 634 785 579 c 0
 785 434 665 375 618 352 c 1
 670 335 696 308 696 270 c 0
 696 207 665 100 665 61 c 0
 665 47 670 37 683 27 c 1
 677 0 l 1
 518 0 l 1
 512 19 510 29 510 41 c 0
636 534 m 0
 636 590 587 604 526 604 c 2
 358 604 l 1
 318 414 l 1
 499 414 l 2
 612 414 636 493 636 534 c 0
EndSplineSet
KernsSLIFO: 13 10 0 0 35 -12 0 0 39 -13 0 0 47 -13 0 0 52 -12 0 0 53 -12 0 0 54 -38 0 0 55 -22 0 0 57 -50 0 0 65 -4 0 0 79 -9 0 0 85 -6 0 0 89 -4 0 0 132 -12 0 0 144 -13 0 0 147 -13 0 0 153 -12 0 0 158 -4 0 0 161 -4 0 0 162 -4 0 0 163 -5 0 0 176 -9 0 0 179 -9 0 0 183 -6 0 0 185 -6 0 0 271 -3 0 0 272 -4 0 0
EndChar
StartChar: S
Encoding: 83 83 51
Width: 667
Flags: W
HStem: -23 128<237.5 482> 613 128<373.5 552.5>
VStem: 151 149<430.5 546.5> 538 149<182.5 303.5> 579 146<527.5 623>
Fore
151 472 m 0xf0
 151 621 274 741 473 741 c 0
 632 741 725 677 725 569 c 0
 725 549 723 535 717 507 c 1
 577 507 l 1
 578 516 579 525 579 530 c 0xe8
 579 584 532 613 447 613 c 0
 356 613 300 573 300 509 c 0
 300 471 327 455 421 436 c 2
 530 414 l 2
 632 394 687 342 687 265 c 0
 687 157 619 -23 345 -23 c 0
 130 -23 76 89 76 174 c 0
 76 188 77 198 80 218 c 1
 226 218 l 1
 225 209 224 200 224 195 c 0
 224 138 276 105 367 105 c 0
 471 105 538 149 538 216 c 0
 538 263 509 283 418 301 c 2
 320 321 l 2
 201 345 151 389 151 472 c 0xf0
EndSplineSet
KernsSLIFO: 33 -26 0 0 52 -15 0 0 54 -36 0 0 55 -20 0 0 57 -54 0 0 84 -4 0 0 126 -26 0 0 129 -26 0 0 130 -26 0 0 131 -14 0 0
EndChar
StartChar: T
Encoding: 84 84 52
Width: 611
Flags: W
HStem: 0 21G<235 385> 604 125<169 753>
Fore
514 604 m 1
 385 0 l 1
 235 0 l 1
 364 604 l 1
 142 604 l 1
 169 729 l 1
 753 729 l 1
 726 604 l 1
 514 604 l 1
EndSplineSet
KernsSLIFO: 12 -75 0 0 13 -53 0 0 14 -73 0 0 26 -104 0 0 27 -105 0 0 33 -93 0 0 35 -29 0 0 39 -30 0 0 42 -95 0 0 47 -30 0 0 51 -7 0 0 54 9 0 0 55 15 0 0 57 7 0 0 65 -77 0 0 67 -79 0 0 69 -72 0 0 71 -79 0 0 73 -9 0 0 74 -11 0 0 79 -81 0 0 82 -76 0 0 83 -81 0 0 85 -78 0 0 86 -91 0 0 87 -85 0 0 89 -89 0 0 105 -107 0 0 125 -93 0 0 126 -93 0 0 127 -93 0 0 128 -93 0 0 129 -93 0 0 130 -93 0 0 131 -85 0 0 143 -30 0 0 144 -30 0 0 145 -30 0 0 146 -30 0 0 147 -30 0 0 149 -36 0 0 163 -78 0 0 181 -80 0 0 271 -20 0 0 910 -103 0 0
EndChar
StartChar: U
Encoding: 85 85 53
Width: 722
Flags: W
HStem: -23 128<290.5 439.5> 709 20G<231 381 659 809>
VStem: 119 152<109 197.5>
Fore
659 729 m 1
 809 729 l 1
 704 235 l 1
 686 152 654 96 597 51 c 0
 536 3 454 -23 366 -23 c 0
 215 -23 119 51 119 167 c 0
 119 189 123 222 130 255 c 2
 231 729 l 1
 381 729 l 1
 276 235 l 1
 273 219 271 205 271 190 c 0
 271 137 316 105 394 105 c 0
 485 105 535 145 554 235 c 2
 659 729 l 1
EndSplineSet
KernsSLIFO: 12 -17 0 0 14 -12 0 0 33 -40 0 0 77 -3 0 0 78 -5 0 0 80 -3 0 0 82 -5 0 0 126 -40 0 0 127 -40 0 0 128 -40 0 0 129 -40 0 0 130 -40 0 0 131 -30 0 0
EndChar
StartChar: V
Encoding: 86 86 54
Width: 667
Flags: W
HStem: 0 21G<273 400> 709 20G<179 330 651 802>
Fore
400 0 m 1
 273 0 l 1
 179 729 l 1
 330 729 l 1
 375 180 l 1
 651 729 l 1
 802 729 l 1
 400 0 l 1
EndSplineSet
KernsSLIFO: 12 -76 0 0 13 -26 0 0 14 -74 0 0 26 -74 0 0 27 -77 0 0 33 -75 0 0 35 -43 0 0 39 -44 0 0 47 -44 0 0 51 -31 0 0 52 12 0 0 65 -51 0 0 69 -46 0 0 71 -54 0 0 73 -13 0 0 79 -56 0 0 82 -43 0 0 85 -42 0 0 89 -19 0 0 105 -81 0 0 125 -75 0 0 126 -75 0 0 127 -75 0 0 128 -75 0 0 129 -75 0 0 130 -75 0 0 131 -65 0 0 143 -44 0 0 144 -44 0 0 145 -44 0 0 146 -44 0 0 147 -44 0 0 149 -42 0 0 163 -52 0 0 181 -55 0 0 910 -77 0 0
EndChar
StartChar: W
Encoding: 87 87 55
Width: 944
Flags: W
HStem: 0 21G<219 354 595 730> 709 20G<168 327 548 706 928 1087>
Fore
730 0 m 1
 595 0 l 1
 591 555 l 1
 354 0 l 1
 219 0 l 1
 168 729 l 1
 327 729 l 1
 324 183 l 1
 548 729 l 1
 706 729 l 1
 703 181 l 1
 928 729 l 1
 1087 729 l 1
 730 0 l 1
EndSplineSet
KernsSLIFO: 12 -53 0 0 13 -9 0 0 14 -51 0 0 26 -61 0 0 27 -63 0 0 33 -59 0 0 35 -28 0 0 39 -29 0 0 47 -29 0 0 51 -22 0 0 52 16 0 0 65 -34 0 0 69 -28 0 0 71 -36 0 0 73 -9 0 0 79 -38 0 0 82 -33 0 0 85 -32 0 0 89 -9 0 0 105 -63 0 0 125 -59 0 0 126 -59 0 0 127 -59 0 0 128 -59 0 0 129 -59 0 0 130 -59 0 0 131 -50 0 0 143 -29 0 0 144 -29 0 0 145 -29 0 0 146 -29 0 0 147 -29 0 0 149 -27 0 0 163 -34 0 0 181 -37 0 0 910 -59 0 0
EndChar
StartChar: X
Encoding: 88 88 56
Width: 667
Flags: W
HStem: 0 21G<22 197 476 655> 709 20G<187 365 627 802>
Fore
499 372 m 1
 655 0 l 1
 476 0 l 1
 386 249 l 1
 197 0 l 1
 22 0 l 1
 332 367 l 1
 187 729 l 1
 365 729 l 1
 444 493 l 1
 627 729 l 1
 802 729 l 1
 499 372 l 1
EndSplineSet
KernsSLIFO: 13 -33 0 0 35 -39 0 0 47 -40 0 0 49 -43 0 0 65 -17 0 0 69 -33 0 0 79 -43 0 0 85 -35 0 0 89 -48 0 0 147 -40 0 0
EndChar
StartChar: Y
Encoding: 89 89 57
Width: 667
Flags: W
HStem: 0 21G<269 419> 709 20G<182 349 638 805>
Fore
477 270 m 1
 419 0 l 1
 269 0 l 1
 327 270 l 1
 182 729 l 1
 349 729 l 1
 431 414 l 1
 638 729 l 1
 805 729 l 1
 477 270 l 1
EndSplineSet
KernsSLIFO: 12 -85 0 0 13 -55 0 0 14 -84 0 0 26 -90 0 0 27 -93 0 0 33 -91 0 0 35 -60 0 0 39 -61 0 0 47 -61 0 0 51 -39 0 0 52 14 0 0 65 -71 0 0 69 -66 0 0 71 -73 0 0 73 -11 0 0 79 -76 0 0 80 -53 0 0 85 -57 0 0 86 -36 0 0 105 -105 0 0 125 -91 0 0 126 -91 0 0 127 -91 0 0 128 -91 0 0 129 -91 0 0 130 -91 0 0 131 -81 0 0 143 -61 0 0 144 -61 0 0 145 -61 0 0 146 -61 0 0 147 -61 0 0 149 -58 0 0 163 -71 0 0 181 -74 0 0 910 -101 0 0
EndChar
StartChar: Z
Encoding: 90 90 58
Width: 611
Flags: W
HStem: 0 125<30 578> 604 125<185 733>
Fore
733 729 m 1
 706 604 l 1
 232 125 l 1
 605 125 l 1
 578 0 l 1
 30 0 l 1
 57 125 l 1
 531 604 l 1
 158 604 l 1
 185 729 l 1
 733 729 l 1
EndSplineSet
KernsSLIFO: 86 -21 0 0 89 -19 0 0
EndChar
StartChar: bracketleft
Encoding: 91 91 59
Width: 333
Flags: W
HStem: -200 100<174 266> 629 100<220 441>
Fore
463 729 m 1
 441 629 l 1
 328 629 l 1
 174 -100 l 1
 287 -100 l 1
 266 -200 l 1
 23 -200 l 1
 220 729 l 1
 463 729 l 1
EndSplineSet
EndChar
StartChar: backslash
Encoding: 92 92 60
Width: 278
Flags: W
HStem: -23 21G<210 285> 689 20G<138 212>
Fore
138 709 m 1
 212 709 l 1
 285 -23 l 1
 210 -23 l 1
 138 709 l 1
EndSplineSet
EndChar
StartChar: bracketright
Encoding: 93 93 61
Width: 333
Flags: W
HStem: -200 100<-3 218> 629 100<172 264>
Fore
-25 -200 m 1
 -3 -100 l 1
 110 -100 l 1
 264 629 l 1
 151 629 l 1
 172 729 l 1
 415 729 l 1
 218 -200 l 1
 -25 -200 l 1
EndSplineSet
EndChar
StartChar: asciicircum
Encoding: 94 94 62
Width: 584
Flags: W
Fore
580 270 m 1
 467 270 l 1
 409 570 l 1
 231 270 l 1
 119 270 l 1
 374 695 l 1
 499 695 l 1
 580 270 l 1
EndSplineSet
EndChar
StartChar: underscore
Encoding: 95 95 63
Width: 556
Flags: W
HStem: -145 69<-50 535>
Fore
550 -76 m 1
 535 -145 l 1
 -65 -145 l 1
 -50 -76 l 1
 550 -76 l 1
EndSplineSet
EndChar
StartChar: grave
Encoding: 96 96 64
Width: 333
Flags: W
Fore
175 757 m 1
 294 757 l 1
 339 607 l 1
 276 607 l 1
 175 757 l 1
EndSplineSet
EndChar
StartChar: a
Encoding: 97 97 65
Width: 556
Flags: W
HStem: -23 112<154.5 300> 437 112<307.5 466.5>
VStem: 50 143<69 162.5> 436 142<362.5 452>
Fore
386 549 m 0
 547 549 578 476 578 428 c 0
 578 416 576 401 572 383 c 2
 509 83 l 1
 507 75 506 68 506 62 c 0
 506 47 512 34 527 17 c 1
 523 0 l 1
 370 0 l 1
 365 11 363 17 363 27 c 0
 363 34 363 39 366 54 c 1
 306 0 257 -23 199 -23 c 0
 110 -23 50 30 50 108 c 0
 50 149 80 282 252 311 c 2
 310 320 l 2
 359 327 436 331 436 394 c 0
 436 424 414 437 363 437 c 0
 299 437 268 417 251 362 c 1
 120 362 l 1
 148 492 229 549 386 549 c 0
400 217 m 1
 408 255 l 1
 391 245 392 247 361 241 c 2
 295 230 l 2
 230 219 193 186 193 139 c 0
 193 106 218 89 266 89 c 0
 334 89 382 135 400 217 c 1
EndSplineSet
KernsSLIFO: 74 -7 0 0 86 -23 0 0 87 -10 0 0 89 -24 0 0 900 -14 0 0
EndChar
StartChar: b
Encoding: 98 98 66
Width: 611
Flags: W
HStem: -23 112<309.5 420> 437 112<366 518> 709 20G<214 354>
VStem: 497 143<247 404.5>
Fore
214 729 m 1
 354 729 l 1
 299 470 l 1
 344 524 397 549 465 549 c 0
 571 549 640 467 640 342 c 0
 640 152 497 -23 343 -23 c 0
 276 -23 233 2 211 55 c 1
 199 0 l 1
 59 0 l 1
 214 729 l 1
409 437 m 0
 323 437 248 327 248 202 c 0
 248 134 283 89 336 89 c 0
 421 89 497 197 497 319 c 0
 497 392 463 437 409 437 c 0
EndSplineSet
KernsSLIFO: 86 -23 0 0 87 -9 0 0 89 -25 0 0
EndChar
StartChar: c
Encoding: 99 99 67
Width: 556
Flags: W
HStem: -23 112<206 356.5> 437 112<349.5 460>
VStem: 77 143<133 219.5>
Fore
398 549 m 0
 522 549 597 474 597 381 c 0
 597 371 596 362 593 338 c 1
 459 338 l 1
 458 394 451 437 377 437 c 0
 322 437 285 411 257 352 c 0
 233 304 220 245 220 192 c 0
 220 123 249 89 309 89 c 0
 363 89 396 116 427 187 c 1
 561 187 l 1
 519 53 421 -23 292 -23 c 0
 120 -23 77 94 77 172 c 0
 77 267 119 384 178 454 c 0
 230 517 304 549 398 549 c 0
EndSplineSet
KernsSLIFO: 72 -9 0 0 75 -5 0 0
EndChar
StartChar: d
Encoding: 100 100 68
Width: 611
Flags: W
HStem: -23 112<199 351.5> 437 112<331.5 407> 709 20G<560 700>
VStem: 79 143<122 266.5>
Fore
405 0 m 1
 417 55 l 1
 371 2 318 -23 251 -23 c 0
 147 -23 79 59 79 185 c 0
 79 267 108 357 157 428 c 0
 209 503 291 549 372 549 c 0
 440 549 482 524 505 470 c 1
 560 729 l 1
 700 729 l 1
 545 0 l 1
 405 0 l 1
380 437 m 0
 297 437 222 327 222 206 c 0
 222 134 256 89 309 89 c 0
 394 89 468 197 468 323 c 0
 468 393 434 437 380 437 c 0
EndSplineSet
EndChar
StartChar: e
Encoding: 101 101 69
Width: 556
Flags: W
HStem: -23 112<212.5 335.5> 226 93<210 573> 437 112<245 443>
VStem: 64 143<123 225> 448 143<319 409>
Fore
379 549 m 0
 507 549 591 467 591 351 c 0
 591 313 585 271 573 226 c 1
 210 226 l 1
 207 198 207 190 207 181 c 0
 207 126 245 89 302 89 c 0
 350 89 394 114 414 152 c 1
 552 152 l 1
 497 41 396 -23 275 -23 c 0
 150 -23 64 61 64 185 c 0
 64 265 111 549 379 549 c 0
448 334 m 2
 448 389 432 437 362 437 c 0
 282 437 245 379 228 319 c 1
 448 319 l 1
 448 334 l 2
EndSplineSet
KernsSLIFO: 84 -9 0 0 86 -22 0 0 87 -9 0 0 88 -25 0 0 89 -25 0 0 900 -13 0 0
EndChar
StartChar: f
Encoding: 102 102 70
Width: 333
Flags: W
HStem: 0 21G<90 230> 436 93<126 202 342 405> 625 104<338 405>
Fore
425 529 m 1
 405 436 l 1
 323 436 l 1
 230 0 l 1
 90 0 l 1
 183 436 l 1
 106 436 l 1
 126 529 l 1
 202 529 l 1
 216 594 l 2
 236 687 289 729 387 729 c 0
 405 729 422 728 464 726 c 1
 442 621 l 1
 415 624 410 625 400 625 c 0
 375 625 361 611 354 582 c 0
 342 529 l 1
 425 529 l 1
EndSplineSet
KernsSLIFO: 65 -6 0 0 69 -6 0 0 70 14 0 0 73 -13 0 0 74 -15 0 0 76 -13 0 0 79 -16 0 0 83 -10 0 0 84 14 0 0 158 -6 0 0 161 -6 0 0 162 -6 0 0 163 -6 0 0 166 -6 0 0 176 -16 0 0 179 -16 0 0 181 -16 0 0 272 -11 0 0
EndChar
StartChar: g
Encoding: 103 103 71
Width: 611
Flags: W
HStem: -218 90<151 318> -23 112<203.5 350.5> 437 112<338 407.5>
VStem: 79 143<112 262.5>
Fore
235 -218 m 0
 67 -218 26 -148 26 -96 c 0
 26 -88 27 -77 29 -65 c 1
 173 -65 l 1
 172 -77 l 1
 172 -106 209 -128 258 -128 c 0
 331 -128 390 -83 404 -18 c 2
 420 55 l 1
 356 -4 316 -23 254 -23 c 0
 153 -23 79 57 79 167 c 0
 79 264 116 374 174 445 c 0
 227 511 302 549 378 549 c 0
 437 549 478 519 505 457 c 1
 523 540 l 1
 656 540 l 1
 537 -18 l 1
 510 -146 401 -218 235 -218 c 0
379 437 m 0
 297 437 222 324 222 201 c 0
 222 132 254 89 306 89 c 0
 395 89 471 193 471 315 c 0
 471 389 435 437 379 437 c 0
EndSplineSet
KernsSLIFO: 65 -3 0 0 69 1 0 0 76 -5 0 0 82 -3 0 0 161 -3 0 0 162 -3 0 0 163 -4 0 0 166 1 0 0 176 -8 0 0 179 -8 0 0
EndChar
StartChar: h
Encoding: 104 104 72
Width: 611
Flags: W
HStem: 0 21G<67 207 406 546> 529 20G<448.5 527.5> 709 20G<222 362>
Fore
222 729 m 1
 362 729 l 1
 304 458 l 1
 357 521 413 549 484 549 c 0
 571 549 629 496 629 417 c 0
 629 399 627 381 623 362 c 2
 546 0 l 1
 406 0 l 1
 473 313 l 1
 477 334 479 348 479 361 c 0
 479 410 453 437 406 437 c 0
 342 437 289 385 272 304 c 0
 207 0 l 1
 67 0 l 1
 222 729 l 1
EndSplineSet
KernsSLIFO: 89 -25 0 0 900 -15 0 0
EndChar
StartChar: i
Encoding: 105 105 73
Width: 278
Flags: W
HStem: 0 21<67 207> 520 20<182 322> 709 20G<222 362>
Fore
362 729 m 1
 335 604 l 1
 195 604 l 1
 222 729 l 1
 362 729 l 1
EndSplineSet
Refer: 238 305 N 1 0 0 1 0 0 0
KernsSLIFO: 52 -12 0 0 74 -7 0 0
Substitution: 0 65534 's001' dotlessi
EndChar
StartChar: j
Encoding: 106 106 74
Width: 278
Flags: HW
HStem: 709 20G<225 365>
Fore
365 729 m 1
 338 604 l 1
 198 604 l 1
 225 729 l 1
 365 729 l 1
EndSplineSet
Refer: 937 63166 N 1 0 0 1 0 0 0
Substitution: 0 65534 's001' dotlessj
EndChar
StartChar: k
Encoding: 107 107 75
Width: 556
Flags: W
HStem: 0 21G<59 199 384 548> 520 20G<492 651> 709 20G<214 354>
Fore
354 729 m 1
 269 330 l 1
 492 540 l 1
 651 540 l 1
 419 334 l 1
 548 0 l 1
 384 0 l 1
 305 239 l 1
 237 177 l 1
 199 0 l 1
 59 0 l 1
 214 729 l 1
 354 729 l 1
EndSplineSet
KernsSLIFO: 12 -3 0 0 13 -31 0 0 14 -3 0 0 65 -13 0 0 69 -19 0 0 71 -26 0 0 79 -28 0 0 83 -23 0 0 85 -8 0 0 158 -13 0 0 161 -13 0 0 162 -13 0 0 163 -15 0 0 166 -19 0 0 176 -28 0 0 179 -28 0 0 185 -8 0 0
EndChar
StartChar: l
Encoding: 108 108 76
Width: 278
Flags: W
HStem: 0 21G<67 207> 709 20G<222 362>
Fore
362 729 m 1
 207 0 l 1
 67 0 l 1
 222 729 l 1
 362 729 l 1
EndSplineSet
KernsSLIFO: 86 -14 0 0 89 -11 0 0
EndChar
StartChar: m
Encoding: 109 109 77
Width: 889
Flags: W
HStem: 0 21G<60 200 373 513 686 826> 437 112<358 499 673.5 814>
Fore
175 540 m 1
 314 540 l 1
 297 459 l 1
 356 524 403 549 468 549 c 0
 530 549 578 517 592 467 c 1
 647 524 701 549 769 549 c 0
 859 549 911 502 911 423 c 0
 911 405 909 391 903 362 c 2
 826 0 l 1
 686 0 l 1
 758 340 l 2
 761 354 763 369 763 381 c 0
 763 417 742 437 705 437 c 0
 642 437 597 396 582 324 c 0
 513 0 l 1
 373 0 l 1
 447 346 l 1
 449 357 450 367 450 379 c 0
 450 414 425 437 387 437 c 0
 329 437 284 394 269 324 c 2
 200 0 l 1
 60 0 l 1
 175 540 l 1
EndSplineSet
KernsSLIFO: 80 -1 0 0 86 -23 0 0 87 -9 0 0 89 -23 0 0
EndChar
StartChar: n
Encoding: 110 110 78
Width: 611
Flags: W
HStem: 0 21G<63 203 406 546> 437 112<371.5 526.5>
Fore
178 540 m 1
 318 540 l 1
 300 458 l 1
 354 522 408 549 482 549 c 0
 571 549 629 497 629 417 c 0
 629 399 627 381 623 362 c 2
 546 0 l 1
 406 0 l 1
 473 313 l 1
 477 335 479 349 479 362 c 0
 479 410 453 437 405 437 c 0
 338 437 286 386 268 304 c 0
 203 0 l 1
 63 0 l 1
 178 540 l 1
EndSplineSet
KernsSLIFO: 52 -87 0 0 80 -2 0 0 86 -24 0 0 87 -11 0 0 89 -25 0 0 900 -15 0 0
EndChar
StartChar: o
Encoding: 111 111 79
Width: 611
Flags: W
HStem: -23 112<233 400.5> 437 112<312 481.5>
VStem: 82 143<116 277.5> 491 143<246 411>
Fore
82 177 m 0
 82 378 211 549 413 549 c 0
 550 549 634 473 634 349 c 0
 634 143 502 -23 299 -23 c 0
 167 -23 82 55 82 177 c 0
324 89 m 0
 458 89 491 265 491 320 c 0
 491 391 452 437 391 437 c 0
 301 437 225 332 225 205 c 0
 225 134 264 89 324 89 c 0
EndSplineSet
KernsSLIFO: 52 -90 0 0 84 -13 0 0 86 -27 0 0 87 -13 0 0 88 -30 0 0 89 -29 0 0 900 -19 0 0
EndChar
StartChar: p
Encoding: 112 112 80
Width: 611
Flags: W
HStem: -24 112<307.5 424.5> 437 112<363 517>
VStem: 494 143<241.5 405.5>
Fore
312 540 m 1
 295 460 l 1
 341 519 397 549 464 549 c 0
 570 549 637 469 637 342 c 0
 637 141 505 -24 344 -24 c 0
 274 -24 232 4 211 64 c 1
 151 -218 l 1
 11 -218 l 1
 172 540 l 1
 312 540 l 1
406 437 m 0
 320 437 246 327 246 201 c 0
 246 133 281 88 334 88 c 0
 420 88 494 196 494 323 c 0
 494 392 460 437 406 437 c 0
EndSplineSet
KernsSLIFO: 84 -10 0 0 89 -25 0 0
EndChar
StartChar: q
Encoding: 113 113 81
Width: 611
Flags: W
HStem: -24 112<195 347.5> 437 112<327.5 404>
VStem: 72 143<118.5 264.5>
Fore
519 540 m 1
 659 540 l 1
 498 -218 l 1
 358 -218 l 1
 418 64 l 1
 373 5 316 -24 248 -24 c 0
 142 -24 72 57 72 180 c 0
 72 266 102 359 152 430 c 0
 206 505 286 549 369 549 c 0
 438 549 482 520 502 460 c 1
 519 540 l 1
377 437 m 0
 291 437 215 327 215 202 c 0
 215 133 250 88 304 88 c 0
 391 88 466 197 466 324 c 0
 466 393 431 437 377 437 c 0
EndSplineSet
KernsSLIFO: 67 -3 0 0 85 -3 0 0
EndChar
StartChar: r
Encoding: 114 114 82
Width: 389
Flags: W
HStem: 0 21G<63 203> 520 20G<178 318>
Fore
178 540 m 1
 318 540 l 1
 295 434 l 1
 342 507 406 549 470 549 c 0
 474 549 479 549 487 548 c 1
 457 406 l 1
 439 409 429 410 414 410 c 0
 332 410 281 369 264 287 c 0
 203 0 l 1
 63 0 l 1
 178 540 l 1
EndSplineSet
KernsSLIFO: 12 -64 0 0 13 -40 0 0 14 -63 0 0 26 -36 0 0 27 -37 0 0 65 -1 0 0 67 -6 0 0 68 -5 0 0 69 2 0 0 70 15 0 0 71 -7 0 0 72 -12 0 0 73 -12 0 0 74 -13 0 0 75 -8 0 0 76 -12 0 0 77 -8 0 0 78 -10 0 0 79 -7 0 0 80 -7 0 0 81 -2 0 0 82 -10 0 0 83 -4 0 0 84 15 0 0 85 -8 0 0 86 12 0 0 87 17 0 0 88 7 0 0 89 14 0 0 90 2 0 0 157 -1 0 0 158 -1 0 0 159 -1 0 0 161 -1 0 0 162 -1 0 0 163 -2 0 0 164 -6 0 0 165 2 0 0 166 2 0 0 167 2 0 0 175 -7 0 0 176 -7 0 0 177 -7 0 0 179 -7 0 0 181 -12 0 0 272 -2 0 0 900 4 0 0
EndChar
StartChar: s
Encoding: 115 115 83
Width: 556
Flags: W
HStem: -23 112<192.5 366> 437 112<309 450>
VStem: 127 149<317 402.5> 411 148<123 217>
Fore
127 345 m 0
 127 460 231 549 387 549 c 0
 513 549 589 494 589 404 c 0
 589 393 588 384 584 366 c 1
 449 366 l 1
 451 375 452 379 452 385 c 0
 452 417 419 437 364 437 c 0
 311 437 276 416 276 384 c 0
 276 364 290 354 341 339 c 2
 437 311 l 2
 520 286 559 247 559 187 c 0
 559 59 451 -23 281 -23 c 0
 104 -23 60 71 60 127 c 0
 60 136 61 142 64 157 c 1
 201 157 l 1
 204 99 265 89 307 89 c 0
 368 89 411 112 411 144 c 0
 411 167 398 176 335 196 c 2
 256 221 l 2
 168 250 127 289 127 345 c 0
EndSplineSet
KernsSLIFO: 84 -9 0 0 900 -12 0 0
EndChar
StartChar: t
Encoding: 116 116 84
Width: 333
Flags: W
HStem: -23 21G<177.5 230.5> 436 93<127 196 336 394>
Fore
414 529 m 1
 394 436 l 1
 316 436 l 1
 254 142 l 1
 250 125 248 113 248 108 c 0
 248 93 263 83 286 83 c 0
 297 83 305 84 319 86 c 1
 299 -12 l 1
 271 -20 247 -23 214 -23 c 0
 141 -23 101 8 101 63 c 0
 101 76 103 90 106 104 c 2
 176 436 l 1
 107 436 l 1
 127 529 l 1
 196 529 l 1
 227 674 l 1
 367 674 l 1
 336 529 l 1
 414 529 l 1
EndSplineSet
KernsSLIFO: 26 -41 0 0 27 -42 0 0 51 -9 0 0 65 -3 0 0 69 -5 0 0 72 -9 0 0 79 -15 0 0 158 -3 0 0 161 -3 0 0 162 -3 0 0 163 -5 0 0 166 -5 0 0 176 -15 0 0 179 -15 0 0 900 -3 0 0
EndChar
StartChar: u
Encoding: 117 117 85
Width: 611
Flags: W
HStem: -23 112<190 346.5> 520 20G<174 314 516 656>
Fore
541 0 m 1
 401 0 l 1
 416 68 l 1
 362 4 308 -23 234 -23 c 0
 146 -23 88 29 88 109 c 0
 88 127 90 145 94 164 c 2
 174 540 l 1
 314 540 l 1
 244 213 l 1
 240 190 238 178 238 164 c 0
 238 115 264 89 314 89 c 0
 379 89 431 141 448 222 c 0
 516 540 l 1
 656 540 l 1
 541 0 l 1
EndSplineSet
KernsSLIFO: 900 -8 0 0
EndChar
StartChar: v
Encoding: 118 118 86
Width: 556
Flags: W
HStem: 0 21G<203 350> 520 20G<129 277 503 651>
Fore
350 0 m 1
 203 0 l 1
 129 540 l 1
 277 540 l 1
 307 145 l 1
 503 540 l 1
 651 540 l 1
 350 0 l 1
EndSplineSet
KernsSLIFO: 12 -57 0 0 13 -5 0 0 14 -55 0 0 26 -41 0 0 27 -43 0 0 65 -21 0 0 67 -25 0 0 69 -18 0 0 71 -26 0 0 76 -12 0 0 79 -28 0 0 83 -25 0 0 157 -21 0 0 158 -21 0 0 159 -21 0 0 160 -21 0 0 161 -21 0 0 162 -21 0 0 163 -21 0 0 165 -18 0 0 166 -18 0 0 167 -18 0 0 175 -28 0 0 176 -28 0 0 179 -28 0 0 181 -28 0 0
EndChar
StartChar: w
Encoding: 119 119 87
Width: 778
Flags: W
HStem: 0 21G<157 301 472 617> 520 20G<120 265 429 573 736 881>
Fore
617 0 m 1
 472 0 l 1
 467 380 l 1
 301 0 l 1
 157 0 l 1
 120 540 l 1
 265 540 l 1
 270 162 l 1
 429 540 l 1
 573 540 l 1
 573 162 l 1
 736 540 l 1
 881 540 l 1
 617 0 l 1
EndSplineSet
KernsSLIFO: 12 -38 0 0 13 7 0 0 14 -36 0 0 26 -36 0 0 27 -38 0 0 65 -11 0 0 67 -12 0 0 69 -5 0 0 71 -13 0 0 76 -8 0 0 79 -15 0 0 83 -15 0 0 157 -11 0 0 158 -11 0 0 159 -11 0 0 160 -11 0 0 161 -11 0 0 162 -11 0 0 163 -12 0 0 165 -5 0 0 166 -5 0 0 167 -5 0 0 175 -15 0 0 176 -15 0 0 179 -15 0 0 181 -14 0 0
EndChar
StartChar: x
Encoding: 120 120 88
Width: 556
Flags: W
HStem: 0 21G<16 184 366 534> 520 20G<138 306 480 648>
Fore
411 274 m 1
 534 0 l 1
 366 0 l 1
 307 168 l 1
 184 0 l 1
 16 0 l 1
 249 274 l 1
 138 540 l 1
 306 540 l 1
 357 377 l 1
 480 540 l 1
 648 540 l 1
 411 274 l 1
EndSplineSet
KernsSLIFO: 65 -22 0 0 67 -27 0 0 69 -20 0 0 79 -30 0 0 81 -23 0 0 166 -20 0 0
EndChar
StartChar: y
Encoding: 121 121 89
Width: 556
Flags: W
HStem: -219 111<70.5 161.5> 520 20G<124 278 509 653>
Fore
509 540 m 1
 653 540 l 1
 295 -98 l 2
 275 -135 242 -219 81 -219 c 0
 60 -219 50 -218 37 -215 c 1
 60 -106 l 1
 71 -108 76 -108 88 -108 c 0
 157 -108 201 -72 201 -15 c 0
 178 173 149 354 124 540 c 1
 278 540 l 1
 314 147 l 1
 509 540 l 1
EndSplineSet
KernsSLIFO: 12 -58 0 0 13 -4 0 0 14 -55 0 0 26 -40 0 0 27 -43 0 0 65 -20 0 0 67 -26 0 0 69 -19 0 0 71 -27 0 0 76 -11 0 0 79 -28 0 0 83 -24 0 0 157 -20 0 0 158 -20 0 0 159 -20 0 0 160 -20 0 0 161 -20 0 0 162 -20 0 0 163 -20 0 0 165 -19 0 0 166 -19 0 0 167 -19 0 0 175 -28 0 0 176 -28 0 0 179 -28 0 0 181 -27 0 0
EndChar
StartChar: z
Encoding: 122 122 90
Width: 500
Flags: W
HStem: 0 113<21 469> 427 113<154 575>
Fore
575 540 m 1
 551 427 l 1
 219 113 l 1
 493 113 l 1
 469 0 l 1
 21 0 l 1
 45 113 l 1
 379 427 l 1
 130 427 l 1
 154 540 l 1
 575 540 l 1
EndSplineSet
EndChar
StartChar: braceleft
Encoding: 123 123 91
Width: 389
Flags: W
HStem: -200 99<248.5 275> 222 93<101 120> 630 99<356.5 451>
Fore
195 269 m 1
 227 264 274 256 274 200 c 0
 274 190 272 174 269 159 c 0
 227 -36 l 1
 224 -53 222 -66 222 -76 c 0
 222 -92 236 -101 261 -101 c 2
 296 -101 l 1
 275 -200 l 1
 198 -200 l 2
 140 -200 101 -159 101 -99 c 0
 101 -86 102 -73 105 -60 c 2
 150 150 l 2
 153 165 155 178 155 184 c 0
 155 208 135 222 101 222 c 2
 88 222 l 1
 84 223 l 1
 104 315 l 1
 120 315 l 2
 164 315 189 336 198 378 c 0
 243 589 l 2
 262 679 317 729 396 729 c 2
 472 729 l 1
 451 630 l 1
 414 630 l 2
 377 630 367 620 357 573 c 2
 316 378 l 1
 300 306 268 277 195 269 c 1
EndSplineSet
EndChar
StartChar: bar
Encoding: 124 124 92
Width: 280
Flags: W
HStem: 709 20G<255 335>
Fore
335 729 m 1
 137 -200 l 1
 57 -200 l 1
 255 729 l 1
 335 729 l 1
EndSplineSet
EndChar
StartChar: braceright
Encoding: 125 125 93
Width: 389
Flags: W
HStem: -200 99<50 145.5> 214 93<382 401> 630 99<226 253.5>
Fore
307 260 m 1
 275 265 228 273 228 329 c 0
 228 339 230 355 233 370 c 0
 275 565 l 1
 278 582 280 595 280 605 c 0
 280 621 266 630 241 630 c 2
 205 630 l 1
 226 729 l 1
 304 729 l 2
 362 729 401 688 401 628 c 0
 401 615 400 602 397 589 c 2
 352 379 l 2
 349 364 347 351 347 345 c 0
 347 321 367 307 401 307 c 2
 415 307 l 1
 419 306 l 1
 399 214 l 1
 382 214 l 2
 338 214 313 193 304 151 c 0
 259 -60 l 2
 240 -150 185 -200 106 -200 c 2
 29 -200 l 1
 50 -101 l 1
 88 -101 l 2
 125 -101 135 -91 145 -44 c 2
 186 151 l 1
 202 223 234 252 307 260 c 1
EndSplineSet
EndChar
StartChar: asciitilde
Encoding: 126 126 94
Width: 584
Flags: W
HStem: 142 80<406.5 463> 234 80<216 272>
Fore
504 288 m 1
 581 288 l 1
 558 193 503 142 423 142 c 0
 390 142 367 150 346 168 c 2
 298 210 l 2
 278 227 262 234 242 234 c 0
 204 234 188 219 175 169 c 1
 97 169 l 1
 123 266 176 314 256 314 c 0
 288 314 312 306 332 289 c 2
 381 247 l 2
 402 228 415 222 437 222 c 0
 475 222 490 237 504 288 c 1
EndSplineSet
EndChar
StartChar: exclamdown
Encoding: 161 161 95
Width: 333
Flags: W
HStem: 520 20G<181 331>
Fore
26 -186 m 1
 71 24 l 1
 178 333 l 1
 245 333 l 1
 221 24 l 1
 176 -186 l 1
 26 -186 l 1
150 394 m 1
 181 540 l 1
 331 540 l 1
 300 394 l 1
 150 394 l 1
EndSplineSet
EndChar
StartChar: cent
Encoding: 162 162 96
Width: 556
Flags: W
Fore
434 547 m 1
 580 529 598 416 598 381 c 0
 598 371 597 362 594 338 c 1
 460 338 l 1
 460 398 448 423 410 435 c 1
 337 89 l 1
 378 99 404 128 428 187 c 1
 562 187 l 1
 526 65 430 -16 313 -22 c 1
 292 -124 l 1
 226 -124 l 1
 248 -20 l 1
 92 6 79 130 79 172 c 0
 79 247 122 528 368 548 c 1
 387 634 l 1
 453 634 l 1
 434 547 l 1
344 435 m 1
 239 407 222 234 222 191 c 0
 222 136 236 109 272 93 c 1
 344 435 l 1
EndSplineSet
EndChar
StartChar: sterling
Encoding: 163 163 97
Width: 556
Flags: W
HStem: -23 125<352 429> 7 112<178.5 302> 316 55<111 188 316 443> 603 112<313 492>
VStem: 495 134<507.5 597>
Fore
288 496 m 0x78
 288 466 305 427 316 371 c 1
 455 371 l 1
 443 316 l 1
 321 316 l 1
 323 303 323 297 323 290 c 0
 323 219 282 163 172 86 c 1
 236 115 250 119 280 119 c 0x78
 324 119 362 102 411 102 c 0
 447 102 480 111 525 131 c 1
 543 22 l 1
 479 -11 437 -23 388 -23 c 0xb8
 316 -23 267 7 197 7 c 0
 160 7 131 0 82 -21 c 1
 49 80 l 1
 153 141 193 191 193 261 c 0
 193 276 192 288 188 316 c 1
 99 316 l 1
 111 371 l 1
 171 371 l 1
 150 432 145 451 145 478 c 0
 145 534 201 715 425 715 c 0
 559 715 629 655 629 539 c 0
 629 522 628 509 625 484 c 1
 494 484 l 1
 495 494 495 505 495 510 c 0
 495 572 464 603 402 603 c 0
 341 603 288 553 288 496 c 0x78
EndSplineSet
EndChar
StartChar: currency
Encoding: 164 164 98
Width: 556
Flags: W
HStem: 147 98<298 370.5> 460 98<341 421.5>
VStem: 149 100<299 366.5> 463 100<339 406.5>
Fore
501 528 m 1
 590 601 l 1
 644 532 l 1
 553 457 l 1
 560 434 563 416 563 397 c 0
 563 346 543 292 507 246 c 1
 567 170 l 1
 484 102 l 1
 425 177 l 1
 377 153 354 147 317 147 c 0
 279 147 235 160 214 178 c 1
 120 100 l 1
 66 169 l 1
 160 246 l 1
 152 270 149 288 149 310 c 0
 149 360 170 415 204 457 c 1
 142 536 l 1
 225 604 l 1
 286 527 l 1
 320 546 365 558 404 558 c 0
 439 558 476 546 501 528 c 1
377 460 m 0
 305 460 249 403 249 330 c 0
 249 280 284 245 335 245 c 0
 406 245 463 303 463 375 c 0
 463 425 427 460 377 460 c 0
EndSplineSet
EndChar
StartChar: yen
Encoding: 165 165 99
Width: 556
Flags: W
HStem: 0 21G<215 355> 180 60<120 266 393 537> 292 60<143 283 435 561> 684 20G<155 294 566 702>
Fore
574 352 m 1
 561 292 l 1
 417 292 l 1
 406 240 l 1
 550 240 l 1
 537 180 l 1
 393 180 l 1
 355 0 l 1
 215 0 l 1
 253 180 l 1
 107 180 l 1
 120 240 l 1
 266 240 l 1
 277 292 l 1
 131 292 l 1
 143 352 l 1
 283 352 l 1
 155 704 l 1
 294 704 l 1
 379 450 l 1
 566 704 l 1
 702 704 l 1
 435 352 l 1
 574 352 l 1
EndSplineSet
EndChar
StartChar: brokenbar
Encoding: 166 166 100
Width: 280
Flags: W
HStem: 709 20G<255 335>
Fore
335 729 m 1
 252 340 l 1
 172 340 l 1
 255 729 l 1
 335 729 l 1
220 189 m 1
 137 -200 l 1
 57 -200 l 1
 140 189 l 1
 220 189 l 1
EndSplineSet
EndChar
StartChar: section
Encoding: 167 167 101
Width: 556
Flags: W
HStem: -201 112<178 341> -20 20G<65 196> 544 21G<462 589> 621 102<379.5 478.5>
VStem: 448 130<230.5 326>
Fore
496 27 m 0
 496 -19 450 -201 232 -201 c 0
 124 -201 56 -146 56 -59 c 0
 56 -40 58 -26 65 0 c 1
 196 0 l 1
 194 -17 193 -24 193 -34 c 0
 193 -70 216 -89 258 -89 c 0
 309 -89 348 -57 348 -15 c 0
 348 12 342 16 293 49 c 0
 143 149 l 2
 109 172 89 208 89 247 c 0
 89 322 119 368 216 428 c 1
 190 455 178 485 178 524 c 0
 178 571 202 622 243 659 c 0
 287 700 352 723 425 723 c 0
 532 723 596 675 596 594 c 0
 596 580 594 569 589 544 c 1
 462 544 l 1
 463 551 463 558 463 562 c 0
 463 600 441 621 401 621 c 0
 358 621 326 594 326 559 c 0
 326 538 347 516 397 485 c 2
 509 415 l 2
 557 385 578 350 578 302 c 0
 578 196 520 153 448 126 c 1
 481 99 496 68 496 27 c 0
258 247 m 2
 383 170 l 1
 430 192 448 214 448 247 c 0
 448 271 437 285 402 306 c 2
 275 382 l 1
 237 362 219 335 219 301 c 0
 219 279 229 264 258 247 c 2
EndSplineSet
EndChar
StartChar: dieresis
Encoding: 168 168 102
Width: 333
Flags: W
HStem: 621 120<173 257 359 443>
Fore
283 741 m 1
 257 621 l 1
 147 621 l 1
 173 741 l 1
 283 741 l 1
469 741 m 1
 443 621 l 1
 333 621 l 1
 359 741 l 1
 469 741 l 1
EndSplineSet
EndChar
StartChar: copyright
Encoding: 169 169 103
Width: 737
Flags: W
HStem: -22 72<272 483.5> 128 83<341 447> 509 83<413 539.5> 671 72<407 618.5>
VStem: 54 80<193.5 400.5> 232 93<238 373> 554 93<431 502.5> 757 80<320.5 527.5>
Fore
232 287 m 0
 232 459 346 592 493 592 c 0
 586 592 647 541 647 464 c 0
 647 456 646 448 644 431 c 1
 554 431 l 1
 554 485 531 509 478 509 c 0
 348 509 325 348 325 305 c 0
 325 244 356 211 411 211 c 0
 468 211 508 241 526 297 c 1
 618 297 l 1
 590 192 504 128 390 128 c 0
 292 128 232 189 232 287 c 0
530 743 m 0
 707 743 837 615 837 440 c 0
 837 201 607 -22 360 -22 c 0
 184 -22 54 106 54 281 c 0
 54 520 284 743 530 743 c 0
514 671 m 0
 318 671 134 489 134 295 c 0
 134 154 237 50 377 50 c 0
 573 50 757 232 757 427 c 0
 757 568 654 671 514 671 c 0
EndSplineSet
EndChar
StartChar: ordfeminine
Encoding: 170 170 104
Width: 370
Flags: W
HStem: 262 80<113 380> 385 68<191.5 283.5> 661 68<292 372.5>
VStem: 134 87<439 497> 322 86<412 438.5> 366 85<618.5 679.5>
Fore
396 342 m 1xf0
 380 262 l 1
 96 262 l 1
 113 342 l 1
 396 342 l 1xf0
420 409 m 1
 418 399 l 1
 326 399 l 1
 323 405 322 409 322 415 c 0xf8
 322 419 322 421 324 431 c 1
 288 399 257 385 217 385 c 0
 166 385 134 415 134 463 c 0
 134 526 182 575 256 586 c 2
 290 592 l 2
 331 598 366 601 366 636 c 0xf4
 366 653 353 661 322 661 c 0xf8
 284 661 265 649 255 617 c 1
 176 617 l 1
 193 692 247 729 337 729 c 0
 408 729 451 702 451 657 c 0xf4
 451 649 450 640 448 629 c 0
 409 449 l 2
 408 444 408 441 408 436 c 0xf8
 408 428 412 419 420 409 c 1
344 529 m 2
 349 552 l 1
 342 549 340 548 333 546 c 0
 331 546 327 545 321 544 c 2
 311 543 l 1
 281 537 l 2
 243 531 221 511 221 483 c 0
 221 464 236 453 263 453 c 0
 304 453 334 481 344 529 c 2
EndSplineSet
EndChar
StartChar: guillemotleft
Encoding: 171 171 105
Width: 556
Flags: W
Fore
135 218 m 1
 159 332 l 1
 358 481 l 1
 333 364 l 1
 213 275 l 1
 295 186 l 1
 271 72 l 1
 135 218 l 1
348 218 m 1
 372 332 l 1
 571 481 l 1
 546 364 l 1
 426 275 l 1
 508 186 l 1
 484 72 l 1
 348 218 l 1
EndSplineSet
EndChar
StartChar: logicalnot
Encoding: 172 172 106
Width: 584
Flags: W
HStem: 256 120<128 488>
Fore
128 376 m 1
 632 376 l 1
 571 86 l 1
 452 86 l 1
 488 256 l 1
 103 256 l 1
 128 376 l 1
EndSplineSet
EndChar
StartChar: registered
Encoding: 174 174 107
Width: 737
Flags: W
HStem: -22 72<273 484.5> 313 81<356 496> 502 80<317 588> 671 72<407 619>
VStem: 55 80<193.5 400.5> 480 100<163.5 186.5> 500 96<269.5 315> 553 101<437.5 522.5> 757 80<320.5 527.5>
Fore
480 168 m 0xfc80
 480 205 500 261 500 278 c 0xfa80
 500 302 483 313 447 313 c 2
 356 313 l 1
 319 140 l 1
 223 140 l 1
 317 582 l 1
 555 582 l 2
 621 582 654 552 654 493 c 0xf980
 654 429 621 382 557 353 c 1
 585 340 596 326 596 304 c 0xfa80
 596 287 593 266 581 195 c 1
 580 182 l 1
 580 173 583 167 592 161 c 1
 587 140 l 1
 485 140 l 1
 481 153 480 159 480 168 c 0xfc80
475 394 m 2
 517 394 553 406 553 469 c 0xf980
 553 493 538 502 498 502 c 2
 396 502 l 1
 373 394 l 1
 475 394 l 2
530 743 m 0
 708 743 837 615 837 440 c 0
 837 201 608 -22 361 -22 c 0
 185 -22 55 106 55 281 c 0
 55 520 284 743 530 743 c 0
514 671 m 0
 318 671 135 489 135 295 c 0
 135 154 237 50 377 50 c 0
 574 50 757 232 757 427 c 0
 757 568 654 671 514 671 c 0
EndSplineSet
EndChar
StartChar: macron
Encoding: 175 175 108
Width: 333
Flags: W
HStem: 642 80<167 450>
Fore
467 722 m 1
 450 642 l 1
 150 642 l 1
 167 722 l 1
 467 722 l 1
EndSplineSet
EndChar
StartChar: degree
Encoding: 176 176 109
Width: 606
Flags: W
HStem: 383 63<349 432.5> 623 63<349.5 433>
VStem: 240 63<493.5 576.5> 480 63<492.5 576.5>
Fore
391 686 m 0
 475 686 543 618 543 535 c 0
 543 450 475 383 390 383 c 0
 308 383 240 452 240 535 c 0
 240 618 308 686 391 686 c 0
392 623 m 0
 343 623 303 583 303 534 c 0
 303 487 343 446 390 446 c 0
 440 446 480 485 480 535 c 0
 480 583 440 623 392 623 c 0
EndSplineSet
EndChar
StartChar: plusminus
Encoding: 177 177 110
Width: 584
Flags: W
HStem: 0 119<75 534> 332 120<146 328 447 605>
Fore
630 452 m 1
 605 332 l 1
 422 332 l 1
 387 170 l 1
 268 170 l 1
 303 332 l 1
 121 332 l 1
 146 452 l 1
 328 452 l 1
 367 633 l 1
 486 633 l 1
 447 452 l 1
 630 452 l 1
559 119 m 1
 534 0 l 1
 50 0 l 1
 75 119 l 1
 559 119 l 1
EndSplineSet
EndChar
StartChar: twosuperior
Encoding: 178 178 111
Width: 444
Flags: W
HStem: 284 80<124 430> 557 21G<188 279> 646 72<316.5 408>
VStem: 406 93<532.5 646>
Fore
499 613 m 0
 499 470 312 428 263 364 c 1
 447 364 l 1
 430 284 l 1
 124 284 l 1
 177 489 406 465 406 600 c 0
 406 629 387 646 354 646 c 0
 311 646 285 615 279 557 c 1
 188 557 l 1
 204 661 267 718 366 718 c 0
 450 718 499 679 499 613 c 0
EndSplineSet
EndChar
StartChar: threesuperior
Encoding: 179 179 112
Width: 444
Flags: W
HStem: 271 78<236.5 332.5> 471 62<293 329.5> 646 72<312.5 402.5>
VStem: 147 93<344 399> 369 93<389.5 455> 390 100<583.5 654.5>
Fore
280 471 m 1xf8
 293 534 l 1
 297 533 302 533 303 533 c 0
 356 533 390 561 390 606 c 0
 390 630 372 646 345 646 c 0
 307 646 289 627 277 571 c 1
 190 571 l 1
 210 673 263 718 362 718 c 0
 443 718 490 684 490 625 c 0xf4
 490 579 466 541 419 512 c 1
 448 494 462 471 462 439 c 0
 462 340 387 271 278 271 c 0
 195 271 147 310 147 378 c 0
 147 390 148 398 151 414 c 1
 242 414 l 1
 240 406 240 402 240 396 c 0
 240 365 259 349 296 349 c 0
 336 349 369 382 369 422 c 0
 369 456 347 470 293 471 c 2
 280 471 l 1xf8
EndSplineSet
EndChar
StartChar: acute
Encoding: 180 180 113
Width: 333
Flags: W
Fore
475 757 m 1
 317 607 l 1
 247 607 l 1
 349 757 l 1
 475 757 l 1
EndSplineSet
EndChar
StartChar: mu
Encoding: 181 181 114
Width: 611
Flags: W
HStem: -23 100<492 589.5> -23 122<268.5 344.5> 520 20G<173 313 515 655>
Fore
146 -220 m 1x60
 11 -220 l 1
 173 540 l 1
 313 540 l 1
 242 207 l 2
 238 188 235 170 235 161 c 0
 235 123 264 99 311 99 c 0x60
 378 99 430 139 443 202 c 0
 515 540 l 1
 655 540 l 1
 572 150 l 1
 568 129 565 111 565 100 c 0
 565 85 573 77 586 77 c 0
 593 77 597 78 607 81 c 1
 589 -5 l 1
 563 -18 543 -23 515 -23 c 0xa0
 469 -23 448 -9 432 32 c 1
 384 -9 348 -23 291 -23 c 0
 246 -23 221 -13 196 15 c 1
 146 -220 l 1x60
EndSplineSet
EndChar
StartChar: paragraph
Encoding: 182 182 115
Width: 556
Flags: W
HStem: 656 73<299 684>
Fore
121 435 m 0
 121 553 216 729 382 729 c 2
 684 729 l 1
 669 656 l 1
 625 656 l 1
 445 -191 l 1
 347 -191 l 1
 527 656 l 1
 465 656 l 1
 285 -191 l 1
 187 -191 l 1
 284 267 l 1
 184 272 121 337 121 435 c 0
EndSplineSet
EndChar
StartChar: periodcentered
Encoding: 183 183 116
Width: 278
Flags: W
HStem: 182 100<165 248>
Fore
270 282 m 1
 248 182 l 1
 143 182 l 1
 165 282 l 1
 270 282 l 1
EndSplineSet
EndChar
StartChar: cedilla
Encoding: 184 184 117
Width: 333
Flags: W
HStem: -220 50<97.5 165> -93 93<130.5 154>
VStem: 183 87<-145.5 -95>
Fore
154 0 m 1
 204 0 l 1
 163 -62 l 1
 179 -58 191 -56 206 -56 c 0
 246 -56 270 -77 270 -113 c 0
 270 -178 210 -220 120 -220 c 0
 75 -220 43 -213 -13 -191 c 1
 17 -140 l 1
 64 -163 87 -170 115 -170 c 0
 153 -170 183 -150 183 -126 c 0
 183 -106 165 -93 139 -93 c 0
 122 -93 110 -96 86 -106 c 1
 154 0 l 1
EndSplineSet
EndChar
StartChar: onesuperior
Encoding: 185 185 118
Width: 444
Flags: W
HStem: 573 61<223 316> 689 20G<375 438>
Fore
316 573 m 1
 210 573 l 1
 223 634 l 1
 301 634 351 659 375 709 c 1
 438 709 l 1
 348 284 l 1
 254 284 l 1
 316 573 l 1
EndSplineSet
EndChar
StartChar: ordmasculine
Encoding: 186 186 119
Width: 365
Flags: W
HStem: 262 80<109 393> 386 63<229.5 330> 661 68<277 380>
VStem: 140 87<469 563.5> 384 87<548 647>
Fore
410 342 m 1
 393 262 l 1
 92 262 l 1
 109 342 l 1
 410 342 l 1
140 506 m 0
 140 621 215 729 339 729 c 0
 421 729 471 684 471 610 c 0
 471 486 391 386 269 386 c 0
 190 386 140 432 140 506 c 0
326 661 m 0
 272 661 227 597 227 520 c 0
 227 477 250 449 285 449 c 0
 339 449 384 514 384 590 c 0
 384 633 361 661 326 661 c 0
EndSplineSet
EndChar
StartChar: guillemotright
Encoding: 187 187 120
Width: 556
Flags: W
Fore
326 335 m 1
 302 220 l 1
 103 72 l 1
 128 189 l 1
 248 278 l 1
 166 367 l 1
 190 481 l 1
 326 335 l 1
533 335 m 1
 509 220 l 1
 310 72 l 1
 335 189 l 1
 455 278 l 1
 373 367 l 1
 397 481 l 1
 533 335 l 1
EndSplineSet
KernsSLIFO: 33 -56 2 0 52 -115 2 0 54 -84 2 0 55 -65 2 0 57 -117 2 0 126 -56 2 0 129 -56 2 0 130 -56 2 0 131 -46 2 0
EndChar
StartChar: onequarter
Encoding: 188 188 121
Width: 1055
Flags: W
HStem: -20 21G<267 352> 93 73<691 884 977 1007> 573 61<223 316> 689 20G<375 438>
Fore
316 573 m 1
 210 573 l 1
 223 634 l 1
 301 634 351 659 375 709 c 1
 438 709 l 1
 348 284 l 1
 254 284 l 1
 316 573 l 1
848 715 m 1
 933 715 l 1
 352 -20 l 1
 267 -20 l 1
 848 715 l 1
1023 166 m 1
 1007 93 l 1
 961 93 l 1
 942 0 l 1
 848 0 l 1
 868 93 l 1
 691 93 l 1
 707 165 l 1
 924 425 l 1
 1032 425 l 1
 977 166 l 1
 1023 166 l 1
884 166 m 1
 919 332 l 1
 779 166 l 1
 884 166 l 1
EndSplineSet
EndChar
StartChar: onehalf
Encoding: 189 189 122
Width: 1055
Flags: W
HStem: 0 80<675 981> 362 72<867.5 959> 573 61<223 316> 689 20G<375 438>
VStem: 957 93<248.5 362>
Fore
316 573 m 1
 210 573 l 1
 223 634 l 1
 301 634 351 659 375 709 c 1
 438 709 l 1
 348 284 l 1
 254 284 l 1
 316 573 l 1
838 715 m 1
 923 715 l 1
 342 -20 l 1
 257 -20 l 1
 838 715 l 1
1050 329 m 0
 1050 186 863 144 814 80 c 1
 998 80 l 1
 981 0 l 1
 675 0 l 1
 728 205 957 181 957 316 c 0
 957 345 938 362 905 362 c 0
 862 362 836 331 830 273 c 1
 739 273 l 1
 755 377 818 434 917 434 c 0
 1001 434 1050 395 1050 329 c 0
EndSplineSet
EndChar
StartChar: threequarters
Encoding: 190 190 123
Width: 1055
Flags: W
HStem: -20 21G<287 372> 93 73<691 884 977 1007> 271 78<236.5 332.5> 471 62<293 329.5> 646 72<312.5 402.5>
VStem: 147 93<344 399> 369 93<389.5 455> 390 100<583.5 654.5>
Fore
280 471 m 1xfe
 293 534 l 1
 297 533 302 533 303 533 c 0
 356 533 390 561 390 606 c 0
 390 630 372 646 345 646 c 0
 307 646 289 627 277 571 c 1
 190 571 l 1
 210 673 263 718 362 718 c 0
 443 718 490 684 490 625 c 0xfd
 490 579 466 541 419 512 c 1
 448 494 462 471 462 439 c 0
 462 340 387 271 278 271 c 0
 195 271 147 310 147 378 c 0
 147 390 148 398 151 414 c 1
 242 414 l 1
 240 406 240 402 240 396 c 0
 240 365 259 349 296 349 c 0
 336 349 369 382 369 422 c 0
 369 456 347 470 293 471 c 2
 280 471 l 1xfe
868 715 m 1
 953 715 l 1
 372 -20 l 1
 287 -20 l 1
 868 715 l 1
1023 166 m 1
 1007 93 l 1
 961 93 l 1
 942 0 l 1
 848 0 l 1
 868 93 l 1
 691 93 l 1
 707 165 l 1
 924 425 l 1
 1032 425 l 1
 977 166 l 1
 1023 166 l 1
884 166 m 1
 919 332 l 1
 779 166 l 1
 884 166 l 1
EndSplineSet
EndChar
StartChar: questiondown
Encoding: 191 191 124
Width: 611
Flags: W
HStem: -204 124<201.5 383> 520 20G<337 487>
VStem: 52 143<-80.5 79>
Fore
556 59 m 1
 543 0 498 -204 268 -204 c 0
 135 -204 52 -135 52 -26 c 0
 52 131 180 196 219 220 c 0
 287 261 296 273 310 339 c 1
 432 339 l 1
 414 142 195 151 195 7 c 0
 195 -44 233 -80 287 -80 c 0
 354 -80 404 -28 420 59 c 1
 556 59 l 1
306 394 m 1
 337 540 l 1
 487 540 l 1
 456 394 l 1
 306 394 l 1
EndSplineSet
EndChar
StartChar: AE
Encoding: 198 198 131
Width: 1000
Flags: W
HStem: 0 125<432 968> 314 125<649 988> 604 125<421 1078>
Fore
464 152 m 1
 245 152 l 1
 160 0 l 1
 1 0 l 1
 421 729 l 1
 1104 729 l 1
 1078 604 l 1
 711 604 l 1
 675 439 l 1
 1014 439 l 1
 988 314 l 1
 649 314 l 1
 609 125 l 1
 995 125 l 1
 968 0 l 1
 432 0 l 1
 464 152 l 1
491 277 m 1
 561 604 l 1
 495 604 l 1
 310 277 l 1
 491 277 l 1
EndSplineSet
EndChar
StartChar: Ccedilla
Encoding: 199 199 132
Width: 722
Flags: W
HStem: -220 50<297 364.5> -23 128<354.5 451> 613 128<406.5 610.5>
VStem: 107 149<162.5 376> 383 87<-145.5 -95> 648 145<482 593.5>
Fore
516 613 m 0
 297 613 256 335 256 265 c 0
 256 159 306 105 403 105 c 0
 499 105 570 157 599 249 c 1
 742 249 l 1
 701 82 565 -22 389 -23 c 1
 363 -63 l 1
 377 -58 391 -56 406 -56 c 0
 446 -56 470 -77 470 -113 c 0
 470 -178 410 -220 319 -220 c 0
 275 -220 243 -213 186 -191 c 1
 216 -140 l 1
 264 -163 287 -170 315 -170 c 0
 353 -170 383 -150 383 -126 c 0
 383 -106 365 -93 339 -93 c 0
 322 -93 310 -96 285 -106 c 1
 340 -22 l 1
 199 -11 107 90 107 235 c 0
 107 517 289 741 533 741 c 0
 688 741 793 656 793 531 c 0
 793 520 792 508 789 482 c 1
 648 482 l 1
 648 559 615 613 516 613 c 0
EndSplineSet
KernsSLIFO: 33 -34 0 0
EndChar
StartChar: Eth
Encoding: 208 208 141
Width: 722
Flags: W
HStem: 0 125<254 434.5> 341 80<90 166 300 473> 709 20G<232 517>
VStem: 627 149<420 566.5>
Fore
150 341 m 1
 73 341 l 1
 90 421 l 1
 166 421 l 1
 232 729 l 1
 517 729 l 2
 698 729 776 654 776 479 c 0
 776 361 735 238 664 140 c 0
 591 39 507 0 362 0 c 2
 77 0 l 1
 150 341 l 1
300 341 m 1
 254 125 l 1
 388 125 l 2
 475 125 524 153 567 228 c 0
 601 287 627 390 627 469 c 0
 627 560 582 604 490 604 c 2
 355 604 l 1
 316 421 l 1
 490 421 l 1
 473 341 l 1
 300 341 l 1
EndSplineSet
EndChar
StartChar: multiply
Encoding: 215 215 148
Width: 584
Flags: W
Fore
516 444 m 1
 582 360 l 1
 425 231 l 1
 526 102 l 1
 424 18 l 1
 323 147 l 1
 168 19 l 1
 102 103 l 1
 257 231 l 1
 156 359 l 1
 258 444 l 1
 359 315 l 1
 516 444 l 1
EndSplineSet
EndChar
StartChar: Oslash
Encoding: 216 216 149
Width: 778
Flags: W
HStem: -23 128<348.5 459> 613 128<411.5 594>
VStem: 109 149<233.5 320> 683 149<395.5 481>
Fore
181 56 m 1
 75 -39 l 1
 34 7 l 1
 145 106 l 1
 122 150 109 204 109 263 c 0
 109 377 157 503 234 595 c 0
 317 692 422 741 547 741 c 0
 641 741 713 714 763 659 c 1
 864 749 l 1
 906 704 l 1
 798 607 l 1
 821 560 832 510 832 452 c 0
 832 339 785 215 707 123 c 0
 625 27 519 -23 395 -23 c 0
 302 -23 228 4 181 56 c 1
678 500 m 1
 294 157 l 1
 323 123 367 105 421 105 c 0
 497 105 561 140 611 210 c 0
 656 271 683 358 683 439 c 0
 683 460 682 478 678 500 c 1
521 613 m 0
 302 613 258 350 258 281 c 0
 258 258 260 235 264 213 c 1
 650 557 l 1
 620 594 577 613 521 613 c 0
EndSplineSet
KernsSLIFO: 33 -34 0 0
EndChar
StartChar: Thorn
Encoding: 222 222 155
Width: 667
Flags: W
HStem: 0 21G<76 226> 709 20G<231 381>
VStem: 572 149<376 474>
Fore
514 609 m 2
 682 609 721 508 721 440 c 0
 721 363 687 278 633 221 c 0
 579 164 522 140 443 140 c 2
 256 140 l 1
 226 0 l 1
 76 0 l 1
 231 729 l 1
 381 729 l 1
 355 609 l 1
 514 609 l 2
435 265 m 2
 545 265 572 347 572 405 c 0
 572 452 536 484 482 484 c 2
 329 484 l 1
 282 265 l 1
 435 265 l 2
EndSplineSet
EndChar
StartChar: germandbls
Encoding: 223 223 156
Width: 611
Flags: W
HStem: -23 119<305 459.5> 349 95<374 418.5> 617 112<382 513>
VStem: 487 143<206.5 312.5> 511 143<520 626>
Fore
319 96 m 2xf0
 424 98 487 162 487 251 c 0xf0
 487 316 449 349 374 349 c 2
 359 349 l 1
 379 444 l 1
 458 444 511 488 511 552 c 0
 511 593 477 617 422 617 c 0
 367 617 332 590 321 537 c 0
 207 0 l 1
 67 0 l 1
 186 558 l 2
 208 662 312 729 452 729 c 0
 574 729 654 670 654 582 c 0xe8
 654 504 606 437 532 411 c 1
 594 397 630 348 630 277 c 0
 630 213 570 -23 349 -23 c 0
 329 -23 313 -21 281 -16 c 1
 305 96 l 1
 319 96 l 2xf0
EndSplineSet
EndChar
StartChar: ae
Encoding: 230 230 163
Width: 889
Flags: W
HStem: -23 112<160.5 303 562 666> 226 93<547 909> 437 112<335 430.5 667 783>
VStem: 54 143<65.5 162.5> 784 143<319 406>
Fore
718 549 m 0
 848 549 927 461 927 351 c 0
 927 313 921 271 909 226 c 1
 547 226 l 1
 541 200 540 189 540 175 c 0
 540 124 579 89 636 89 c 0
 685 89 730 114 750 152 c 1
 888 152 l 1
 835 45 726 -23 606 -23 c 0
 518 -23 453 13 425 77 c 1
 355 2 301 -23 209 -23 c 0
 112 -23 54 25 54 106 c 0
 54 144 72 280 256 311 c 2
 313 320 l 2
 363 327 440 331 440 394 c 0
 440 424 418 437 367 437 c 0
 303 437 272 417 255 362 c 1
 124 362 l 1
 137 425 154 459 187 488 c 0
 232 528 302 549 392 549 c 0
 469 549 521 533 553 500 c 1
 599 531 659 549 718 549 c 0
404 216 m 1
 412 254 l 1
 400 248 397 247 386 244 c 0
 382 244 375 242 365 241 c 2
 299 230 l 2
 234 219 197 186 197 139 c 0
 197 106 222 89 268 89 c 0
 338 89 386 134 404 216 c 1
784 319 m 1
 784 346 l 2
 784 404 753 437 699 437 c 0
 635 437 589 396 568 319 c 1
 784 319 l 1
EndSplineSet
KernsSLIFO: 86 -21 0 0 87 -7 0 0 89 -23 0 0
EndChar
StartChar: ccedilla
Encoding: 231 231 164
Width: 556
Flags: W
HStem: -220 50<196 263.5> -23 112<279 341.5> 437 112<349.5 460>
VStem: 77 143<153 220> 282 87<-145.5 -95>
Fore
561 187 m 1
 510 25 382 -23 301 -23 c 0
 289 -23 l 2
 288 -23 l 1
 262 -62 l 1
 277 -58 289 -56 305 -56 c 0
 345 -56 369 -77 369 -113 c 0
 369 -178 309 -220 218 -220 c 0
 174 -220 141 -213 85 -191 c 1
 115 -139 l 1
 162 -163 186 -170 214 -170 c 0
 252 -170 282 -150 282 -126 c 0
 282 -106 264 -93 238 -93 c 0
 221 -93 209 -96 184 -106 c 1
 241 -19 l 1
 86 11 77 133 77 173 c 0
 77 267 119 384 177 454 c 0
 230 517 304 549 398 549 c 0
 522 549 597 474 597 381 c 0
 597 371 596 362 593 338 c 1
 459 338 l 1
 458 394 451 437 377 437 c 0
 322 437 285 411 257 352 c 0
 233 304 220 245 220 192 c 0
 220 123 249 89 309 89 c 0
 363 89 396 116 427 187 c 1
 561 187 l 1
EndSplineSet
EndChar
StartChar: eth
Encoding: 240 240 173
Width: 611
Flags: W
HStem: -23 112<235.5 403.5> 431 99<243.5 408.5>
VStem: 83 144<115 231> 491 142<242.5 409>
Fore
83 178 m 0
 83 253 125 530 362 530 c 0
 394 530 414 524 452 503 c 1
 428 544 393 582 355 609 c 1
 258 564 l 1
 217 607 l 1
 305 648 l 1
 279 666 273 670 235 694 c 1
 305 744 l 1
 325 735 364 717 400 693 c 1
 504 738 l 1
 547 695 l 1
 454 654 l 1
 584 558 633 473 633 345 c 0
 633 140 502 -23 305 -23 c 0
 166 -23 83 52 83 178 c 0
491 326 m 0
 491 410 430 431 387 431 c 0
 252 431 227 256 227 206 c 0
 227 107 288 89 326 89 c 0
 420 89 491 190 491 326 c 0
EndSplineSet
EndChar
StartChar: divide
Encoding: 247 247 180
Width: 584
Flags: W
HStem: 0 21G<277.5 311.5> 172 120<102 581>
Fore
606 292 m 1
 581 172 l 1
 77 172 l 1
 102 292 l 1
 606 292 l 1
318 124 m 0
 347 124 368 103 368 73 c 0
 368 36 331 0 292 0 c 0
 263 0 242 21 242 49 c 0
 242 88 279 124 318 124 c 0
390 462 m 0
 419 462 440 441 440 411 c 0
 440 374 403 338 363 338 c 0
 335 338 314 359 314 387 c 0
 314 425 351 462 390 462 c 0
EndSplineSet
EndChar
StartChar: oslash
Encoding: 248 248 181
Width: 611
Flags: W
HStem: -23 112<268.5 404.5> 437 112<313 453.5>
Fore
636 344 m 0
 636 151 505 -23 304 -23 c 0
 233 -23 175 -2 135 36 c 1
 46 -38 l 1
 12 2 l 1
 105 80 l 1
 91 110 84 143 84 178 c 0
 84 369 209 549 417 549 c 0
 490 549 551 527 590 486 c 1
 675 557 l 1
 709 516 l 1
 618 440 l 1
 630 411 636 379 636 344 c 0
328 89 m 0
 461 89 494 266 494 321 c 0
 494 324 494 329 493 336 c 1
 246 129 l 1
 263 104 294 89 328 89 c 0
395 437 m 0
 261 437 227 261 227 208 c 0
 227 199 227 194 228 183 c 1
 478 392 l 1
 460 421 430 437 395 437 c 0
EndSplineSet
EndChar
StartChar: thorn
Encoding: 254 254 187
Width: 611
Flags: W
HStem: -23 112<307.5 424.5> 437 112<363 516.5> 709 20G<212 352>
VStem: 494 143<242.5 405.5>
Fore
352 729 m 1
 295 460 l 1
 341 519 397 549 464 549 c 0
 569 549 637 468 637 343 c 0
 637 142 505 -23 344 -23 c 0
 274 -23 232 5 211 64 c 1
 151 -218 l 1
 11 -218 l 1
 212 729 l 1
 352 729 l 1
406 437 m 0
 320 437 246 327 246 202 c 0
 246 134 281 89 334 89 c 0
 420 89 494 197 494 323 c 0
 494 392 459 437 406 437 c 0
EndSplineSet
EndChar
StartChar: Amacron
Encoding: 256 256 189
Width: 722
Flags: W
HStem: 0 21G<26 179 550 703> 709 20G<433 606> 821 80<406 689>
Fore
532 147 m 1
 260 147 l 1
 179 0 l 1
 26 0 l 1
 433 729 l 1
 606 729 l 1
 703 0 l 1
 550 0 l 1
 532 147 l 1
518 272 m 1
 483 555 l 1
 329 272 l 1
 518 272 l 1
706 901 m 1
 689 821 l 1
 389 821 l 1
 406 901 l 1
 706 901 l 1
EndSplineSet
EndChar
StartChar: amacron
Encoding: 257 257 190
Width: 556
Flags: W
HStem: -23 112<154.5 300> 437 112<307.5 466.5> 642 80<279 562>
VStem: 50 143<69 162.5> 436 142<362.5 452>
Fore
386 549 m 0
 547 549 578 476 578 428 c 0
 578 416 576 401 572 383 c 2
 509 83 l 1
 507 75 506 68 506 62 c 0
 506 47 512 34 527 17 c 1
 523 0 l 1
 370 0 l 1
 365 11 363 17 363 27 c 0
 363 34 363 39 366 54 c 1
 306 0 257 -23 199 -23 c 0
 110 -23 50 30 50 108 c 0
 50 149 80 282 252 311 c 2
 310 320 l 2
 359 327 436 331 436 394 c 0
 436 424 414 437 363 437 c 0
 299 437 268 417 251 362 c 1
 120 362 l 1
 148 492 229 549 386 549 c 0
400 217 m 1
 408 255 l 1
 391 245 392 247 361 241 c 2
 295 230 l 2
 230 219 193 186 193 139 c 0
 193 106 218 89 266 89 c 0
 334 89 382 135 400 217 c 1
579 722 m 1
 562 642 l 1
 262 642 l 1
 279 722 l 1
 579 722 l 1
EndSplineSet
EndChar
StartChar: Abreve
Encoding: 258 258 191
Width: 722
Flags: W
HStem: 0 21G<26 179 550 703> 709 20G<433 606> 791 78<500.5 573.5>
VStem: 426 48<864 934>
Fore
532 147 m 1
 260 147 l 1
 179 0 l 1
 26 0 l 1
 433 729 l 1
 606 729 l 1
 703 0 l 1
 550 0 l 1
 532 147 l 1
518 272 m 1
 483 555 l 1
 329 272 l 1
 518 272 l 1
651 934 m 1
 693 934 l 1
 679 852 611 791 532 791 c 0
 469 791 426 833 426 895 c 0
 426 907 427 916 432 934 c 1
 474 934 l 1
 474 926 l 2
 474 890 501 869 548 869 c 0
 599 869 634 891 651 934 c 1
EndSplineSet
EndChar
StartChar: abreve
Encoding: 259 259 192
Width: 556
Flags: W
HStem: -23 112<154.5 300> 437 112<307.5 466.5> 611 78<373.5 446.5>
VStem: 50 143<69 162.5> 299 48<684 754> 436 142<362.5 452>
Fore
386 549 m 0
 547 549 578 476 578 428 c 0
 578 416 576 401 572 383 c 2
 509 83 l 1
 507 75 506 68 506 62 c 0
 506 47 512 34 527 17 c 1
 523 0 l 1
 370 0 l 1
 365 11 363 17 363 27 c 0
 363 34 363 39 366 54 c 1
 306 0 257 -23 199 -23 c 0
 110 -23 50 30 50 108 c 0
 50 149 80 282 252 311 c 2
 310 320 l 2
 359 327 436 331 436 394 c 0
 436 424 414 437 363 437 c 0
 299 437 268 417 251 362 c 1
 120 362 l 1
 148 492 229 549 386 549 c 0
400 217 m 1
 408 255 l 1
 391 245 392 247 361 241 c 2
 295 230 l 2
 230 219 193 186 193 139 c 0
 193 106 218 89 266 89 c 0
 334 89 382 135 400 217 c 1
524 754 m 1
 566 754 l 1
 552 672 484 611 405 611 c 0
 342 611 299 653 299 715 c 0
 299 727 300 736 305 754 c 1
 347 754 l 1
 347 746 l 2
 347 710 374 689 421 689 c 0
 472 689 507 711 524 754 c 1
EndSplineSet
EndChar
StartChar: Aogonek
Encoding: 260 260 193
Width: 722
Flags: W
HStem: -233 50<561.5 637> -20 20G<550 625> 709 20G<433 606>
VStem: 469 100<-180 -108>
Fore
469 -155 m 0
 469 -61 581 -15 625 0 c 1
 550 0 l 1
 532 147 l 1
 260 147 l 1
 179 0 l 1
 26 0 l 1
 433 729 l 1
 606 729 l 1
 703 0 l 1
 625 -32 569 -91 569 -140 c 0
 569 -170 586 -183 624 -183 c 0
 650 -183 672 -180 696 -172 c 1
 685 -224 l 1
 654 -231 633 -233 605 -233 c 0
 518 -233 469 -205 469 -155 c 0
518 272 m 1
 483 555 l 1
 329 272 l 1
 518 272 l 1
EndSplineSet
EndChar
StartChar: aogonek
Encoding: 261 261 194
Width: 556
Flags: W
HStem: -233 50<384 458.5> -23 112<154.5 300> 437 112<307.5 466.5>
VStem: 50 143<69 162.5> 293 99<-180 -116.5> 436 142<362.5 452>
Fore
386 549 m 0
 547 549 578 476 578 428 c 0
 578 416 576 401 572 383 c 2
 509 83 l 1
 507 75 506 68 506 62 c 0
 506 47 512 34 527 17 c 1
 523 0 l 1
 435 -47 392 -93 392 -140 c 0
 392 -169 408 -183 443 -183 c 0
 474 -183 495 -180 519 -172 c 1
 509 -224 l 1
 477 -231 457 -233 428 -233 c 0
 340 -233 293 -206 293 -154 c 0
 293 -92 346 -39 449 0 c 1
 370 0 l 1
 365 11 363 17 363 27 c 0
 363 34 363 39 366 54 c 1
 306 0 257 -23 199 -23 c 0
 110 -23 50 30 50 108 c 0
 50 149 80 282 252 311 c 2
 310 320 l 2
 359 327 436 331 436 394 c 0
 436 424 414 437 363 437 c 0
 299 437 268 417 251 362 c 1
 120 362 l 1
 148 492 229 549 386 549 c 0
400 217 m 1
 408 255 l 1
 391 245 392 247 361 241 c 2
 295 230 l 2
 230 219 193 186 193 139 c 0
 193 106 218 89 266 89 c 0
 334 89 382 135 400 217 c 1
EndSplineSet
EndChar
StartChar: Cacute
Encoding: 262 262 195
Width: 722
Flags: W
HStem: -23 128<296.5 473> 613 128<405.5 610.5>
VStem: 107 149<155 376> 648 145<482 594>
Fore
107 235 m 0
 107 517 289 741 533 741 c 0
 688 741 793 656 793 532 c 0
 793 521 792 510 789 482 c 1
 648 482 l 1
 648 559 615 613 516 613 c 0
 295 613 256 334 256 264 c 0
 256 159 306 105 403 105 c 0
 499 105 570 157 599 249 c 1
 742 249 l 1
 698 78 564 -23 382 -23 c 0
 211 -23 107 75 107 235 c 0
730 936 m 1
 572 786 l 1
 502 786 l 1
 604 936 l 1
 730 936 l 1
EndSplineSet
EndChar
StartChar: cacute
Encoding: 263 263 196
Width: 556
Flags: W
HStem: -23 112<206 356.5> 437 112<349.5 460>
VStem: 77 143<133 219.5>
Fore
398 549 m 0
 522 549 597 474 597 381 c 0
 597 371 596 362 593 338 c 1
 459 338 l 1
 458 394 451 437 377 437 c 0
 322 437 285 411 257 352 c 0
 233 304 220 245 220 192 c 0
 220 123 249 89 309 89 c 0
 363 89 396 116 427 187 c 1
 561 187 l 1
 519 53 421 -23 292 -23 c 0
 120 -23 77 94 77 172 c 0
 77 267 119 384 178 454 c 0
 230 517 304 549 398 549 c 0
573 757 m 1
 415 607 l 1
 345 607 l 1
 447 757 l 1
 573 757 l 1
EndSplineSet
EndChar
StartChar: Ccaron
Encoding: 268 268 201
Width: 722
Flags: W
HStem: -23 128<296.5 473> 613 128<405.5 610.5>
VStem: 107 149<155 376> 648 145<482 594>
Fore
107 235 m 0
 107 517 289 741 533 741 c 0
 688 741 793 656 793 532 c 0
 793 521 792 510 789 482 c 1
 648 482 l 1
 648 559 615 613 516 613 c 0
 295 613 256 334 256 264 c 0
 256 159 306 105 403 105 c 0
 499 105 570 157 599 249 c 1
 742 249 l 1
 698 78 564 -23 382 -23 c 0
 211 -23 107 75 107 235 c 0
610 789 m 1
 502 789 l 1
 431 936 l 1
 509 936 l 1
 570 839 l 1
 673 936 l 1
 749 936 l 1
 610 789 l 1
EndSplineSet
EndChar
StartChar: ccaron
Encoding: 269 269 202
Width: 556
Flags: W
HStem: -23 112<206 356.5> 437 112<349.5 460>
VStem: 77 143<133 219.5>
Fore
398 549 m 0
 522 549 597 474 597 381 c 0
 597 371 596 362 593 338 c 1
 459 338 l 1
 458 394 451 437 377 437 c 0
 322 437 285 411 257 352 c 0
 233 304 220 245 220 192 c 0
 220 123 249 89 309 89 c 0
 363 89 396 116 427 187 c 1
 561 187 l 1
 519 53 421 -23 292 -23 c 0
 120 -23 77 94 77 172 c 0
 77 267 119 384 178 454 c 0
 230 517 304 549 398 549 c 0
468 610 m 1
 360 610 l 1
 289 757 l 1
 367 757 l 1
 428 660 l 1
 531 757 l 1
 607 757 l 1
 468 610 l 1
EndSplineSet
EndChar
StartChar: Dcaron
Encoding: 270 270 203
Width: 722
Flags: W
HStem: 0 125<254 434.5> 709 20G<232 517>
VStem: 627 149<420 566.5>
Fore
77 0 m 1
 232 729 l 1
 517 729 l 2
 698 729 776 654 776 479 c 0
 776 361 735 238 664 140 c 0
 591 39 507 0 362 0 c 2
 77 0 l 1
254 125 m 1
 388 125 l 2
 475 125 524 153 567 228 c 0
 601 287 627 390 627 469 c 0
 627 560 582 604 490 604 c 2
 355 604 l 1
 254 125 l 1
547 789 m 1
 439 789 l 1
 368 936 l 1
 446 936 l 1
 507 839 l 1
 610 936 l 1
 686 936 l 1
 547 789 l 1
EndSplineSet
EndChar
StartChar: dcaron
Encoding: 271 271 204
Width: 722
Flags: W
HStem: -23 112<199 351.5> 437 112<331.5 407> 709 20G<560 700 760 882>
VStem: 79 143<122 266.5>
Fore
405 0 m 1
 417 55 l 1
 371 2 318 -23 251 -23 c 0
 147 -23 79 59 79 185 c 0
 79 267 108 357 157 428 c 0
 209 503 291 549 372 549 c 0
 440 549 482 524 505 470 c 1
 560 729 l 1
 700 729 l 1
 545 0 l 1
 405 0 l 1
380 437 m 0
 297 437 222 327 222 206 c 0
 222 134 256 89 309 89 c 0
 394 89 468 197 468 323 c 0
 468 393 434 437 380 437 c 0
760 729 m 1
 882 729 l 1
 861 633 l 1
 851 555 784 488 708 482 c 1
 718 528 l 1
 762 536 797 572 803 617 c 1
 736 617 l 1
 760 729 l 1
EndSplineSet
EndChar
StartChar: Dcroat
Encoding: 272 272 205
Width: 722
Flags: W
HStem: 0 125<254 434.5> 341 80<90 166 300 473> 709 20G<232 517>
VStem: 627 149<420 566.5>
Fore
150 341 m 1
 73 341 l 1
 90 421 l 1
 166 421 l 1
 232 729 l 1
 517 729 l 2
 698 729 776 654 776 479 c 0
 776 361 735 238 664 140 c 0
 591 39 507 0 362 0 c 2
 77 0 l 1
 150 341 l 1
300 341 m 1
 254 125 l 1
 388 125 l 2
 475 125 524 153 567 228 c 0
 601 287 627 390 627 469 c 0
 627 560 582 604 490 604 c 2
 355 604 l 1
 316 421 l 1
 490 421 l 1
 473 341 l 1
 300 341 l 1
EndSplineSet
EndChar
StartChar: dcroat
Encoding: 273 273 206
Width: 611
Flags: W
HStem: -23 112<199 351.5> 437 112<331.5 407> 596 67<406 546 672 732> 709 20G<560 700>
VStem: 79 143<122 266.5>
Fore
546 663 m 1
 560 729 l 1
 700 729 l 1
 686 663 l 1
 746 663 l 1
 732 596 l 1
 672 596 l 1
 545 0 l 1
 405 0 l 1
 417 55 l 1
 371 2 318 -23 251 -23 c 0
 147 -23 79 59 79 185 c 0
 79 267 108 357 157 428 c 0
 210 503 291 549 372 549 c 0
 440 549 482 524 505 470 c 1
 532 596 l 1
 392 596 l 1
 406 663 l 1
 546 663 l 1
380 437 m 0
 297 437 222 327 222 206 c 0
 222 134 256 89 309 89 c 0
 394 89 468 197 468 323 c 0
 468 392 434 437 380 437 c 0
EndSplineSet
EndChar
StartChar: Emacron
Encoding: 274 274 207
Width: 667
Flags: W
HStem: 0 125<79 624> 314 125<296 645> 709 20G<234 762> 821 80<386 669>
Fore
296 314 m 1
 256 125 l 1
 651 125 l 1
 624 0 l 1
 79 0 l 1
 234 729 l 1
 762 729 l 1
 735 604 l 1
 357 604 l 1
 322 439 l 1
 671 439 l 1
 645 314 l 1
 296 314 l 1
686 901 m 1
 669 821 l 1
 369 821 l 1
 386 901 l 1
 686 901 l 1
EndSplineSet
EndChar
StartChar: emacron
Encoding: 275 275 208
Width: 556
Flags: W
HStem: -23 112<212.5 335.5> 226 93<210 573> 437 112<245 443> 642 80<277 560>
VStem: 64 143<123 225> 448 143<319 409>
Fore
379 549 m 0
 507 549 591 467 591 351 c 0
 591 313 585 271 573 226 c 1
 210 226 l 1
 207 198 207 190 207 181 c 0
 207 126 245 89 302 89 c 0
 350 89 394 114 414 152 c 1
 552 152 l 1
 497 41 396 -23 275 -23 c 0
 150 -23 64 61 64 185 c 0
 64 265 111 549 379 549 c 0
448 334 m 2
 448 389 432 437 362 437 c 0
 282 437 245 379 228 319 c 1
 448 319 l 1
 448 334 l 2
577 722 m 1
 560 642 l 1
 260 642 l 1
 277 722 l 1
 577 722 l 1
EndSplineSet
EndChar
StartChar: Edotaccent
Encoding: 278 278 211
Width: 667
Flags: W
HStem: 0 125<79 624> 314 125<296 645> 709 20G<234 762>
Fore
296 314 m 1
 256 125 l 1
 651 125 l 1
 624 0 l 1
 79 0 l 1
 234 729 l 1
 762 729 l 1
 735 604 l 1
 357 604 l 1
 322 439 l 1
 671 439 l 1
 645 314 l 1
 296 314 l 1
592 918 m 1
 566 798 l 1
 456 798 l 1
 482 918 l 1
 592 918 l 1
EndSplineSet
EndChar
StartChar: edotaccent
Encoding: 279 279 212
Width: 556
Flags: W
HStem: -23 112<212.5 335.5> 226 93<210 573> 437 112<245 443> 721 20G<372 482>
VStem: 64 143<123 225> 448 143<319 409>
Fore
379 549 m 0
 507 549 591 467 591 351 c 0
 591 313 585 271 573 226 c 1
 210 226 l 1
 207 198 207 190 207 181 c 0
 207 126 245 89 302 89 c 0
 350 89 394 114 414 152 c 1
 552 152 l 1
 497 41 396 -23 275 -23 c 0
 150 -23 64 61 64 185 c 0
 64 265 111 549 379 549 c 0
448 334 m 2
 448 389 432 437 362 437 c 0
 282 437 245 379 228 319 c 1
 448 319 l 1
 448 334 l 2
482 741 m 1
 456 621 l 1
 346 621 l 1
 372 741 l 1
 482 741 l 1
EndSplineSet
EndChar
StartChar: Eogonek
Encoding: 280 280 213
Width: 667
Flags: W
HStem: -233 50<487.5 562.5> -20 20G<79 551> 314 125<296 645> 709 20G<234 762>
VStem: 395 100<-180.5 -118>
Fore
395 -156 m 0
 395 -98 442 -37 551 0 c 1
 79 0 l 1
 234 729 l 1
 762 729 l 1
 735 604 l 1
 357 604 l 1
 322 439 l 1
 671 439 l 1
 645 314 l 1
 296 314 l 1
 256 125 l 1
 651 125 l 1
 624 0 l 1
 533 -51 495 -93 495 -143 c 0
 495 -170 512 -183 549 -183 c 0
 576 -183 598 -180 622 -172 c 1
 611 -224 l 1
 580 -231 559 -233 531 -233 c 0
 444 -233 395 -205 395 -156 c 0
EndSplineSet
EndChar
StartChar: eogonek
Encoding: 281 281 214
Width: 556
Flags: W
HStem: -233 50<313.5 385> -24 113<213 326> 226 93<210 573> 437 112<245 443>
VStem: 64 143<122.5 224> 222 99<-177.5 -89> 448 143<319 409>
Fore
552 152 m 1
 488 19 321 -38 321 -140 c 0
 321 -168 339 -183 372 -183 c 0
 398 -183 423 -179 443 -172 c 1
 432 -224 l 1
 401 -230 380 -233 356 -233 c 0
 271 -233 222 -203 222 -152 c 0
 222 -101 249 -69 335 -17 c 1
 308 -22 295 -24 276 -24 c 0
 150 -24 64 61 64 184 c 0
 64 264 111 549 379 549 c 0
 507 549 591 467 591 351 c 0
 591 313 585 271 573 226 c 1
 210 226 l 1
 207 198 207 190 207 181 c 0
 207 126 245 89 302 89 c 0
 350 89 394 114 414 152 c 1
 552 152 l 1
448 334 m 2
 448 389 432 437 362 437 c 0
 282 437 245 379 228 319 c 1
 448 319 l 1
 448 334 l 2
EndSplineSet
EndChar
StartChar: Ecaron
Encoding: 282 282 215
Width: 667
Flags: W
HStem: 0 125<79 624> 314 125<296 645> 709 20G<234 762>
Fore
296 314 m 1
 256 125 l 1
 651 125 l 1
 624 0 l 1
 79 0 l 1
 234 729 l 1
 762 729 l 1
 735 604 l 1
 357 604 l 1
 322 439 l 1
 671 439 l 1
 645 314 l 1
 296 314 l 1
563 789 m 1
 455 789 l 1
 384 936 l 1
 462 936 l 1
 523 839 l 1
 626 936 l 1
 702 936 l 1
 563 789 l 1
EndSplineSet
EndChar
StartChar: ecaron
Encoding: 283 283 216
Width: 556
Flags: W
HStem: -23 112<212.5 335.5> 226 93<210 573> 437 112<245 443>
VStem: 64 143<123 225> 448 143<319 409>
Fore
379 549 m 0
 507 549 591 467 591 351 c 0
 591 313 585 271 573 226 c 1
 210 226 l 1
 207 198 207 190 207 181 c 0
 207 126 245 89 302 89 c 0
 350 89 394 114 414 152 c 1
 552 152 l 1
 497 41 396 -23 275 -23 c 0
 150 -23 64 61 64 185 c 0
 64 265 111 549 379 549 c 0
448 334 m 2
 448 389 432 437 362 437 c 0
 282 437 245 379 228 319 c 1
 448 319 l 1
 448 334 l 2
454 610 m 1
 346 610 l 1
 275 757 l 1
 353 757 l 1
 414 660 l 1
 517 757 l 1
 593 757 l 1
 454 610 l 1
EndSplineSet
EndChar
StartChar: Gbreve
Encoding: 286 286 219
Width: 778
Flags: W
HStem: -23 128<307 495> 267 125<503 642> 613 128<476.5 628.5> 791 78<528.5 601.5>
VStem: 107 149<175 320> 454 48<864 934>
Fore
795 392 m 1
 711 -2 l 1
 621 -2 l 1
 628 88 l 1
 554 9 488 -23 395 -23 c 0
 219 -23 107 88 107 262 c 0
 107 378 155 505 233 596 c 0
 315 691 424 741 547 741 c 0
 710 741 819 655 819 529 c 0
 819 521 818 510 817 496 c 1
 679 496 l 1
 671 571 614 613 519 613 c 0
 434 613 366 575 318 501 c 0
 282 446 256 355 256 284 c 0
 256 181 328 105 426 105 c 0
 564 105 626 218 642 267 c 1
 476 267 l 1
 503 392 l 1
 795 392 l 1
679 934 m 1
 721 934 l 1
 707 852 639 791 560 791 c 0
 497 791 454 833 454 895 c 0
 454 907 455 916 460 934 c 1
 502 934 l 1
 502 926 l 2
 502 890 529 869 576 869 c 0
 627 869 662 891 679 934 c 1
EndSplineSet
EndChar
StartChar: gbreve
Encoding: 287 287 220
Width: 611
Flags: W
HStem: -218 90<151 318> -23 112<203.5 350.5> 437 112<338 407.5> 611 78<404.5 477.5>
VStem: 79 143<112 262.5> 330 48<684 754>
Fore
235 -218 m 0
 67 -218 26 -148 26 -96 c 0
 26 -88 27 -77 29 -65 c 1
 173 -65 l 1
 172 -77 l 1
 172 -106 209 -128 258 -128 c 0
 331 -128 390 -83 404 -18 c 2
 420 55 l 1
 356 -4 316 -23 254 -23 c 0
 153 -23 79 57 79 167 c 0
 79 264 116 374 174 445 c 0
 227 511 302 549 378 549 c 0
 437 549 478 519 505 457 c 1
 523 540 l 1
 656 540 l 1
 537 -18 l 1
 510 -146 401 -218 235 -218 c 0
379 437 m 0
 297 437 222 324 222 201 c 0
 222 132 254 89 306 89 c 0
 395 89 471 193 471 315 c 0
 471 389 435 437 379 437 c 0
555 754 m 1
 597 754 l 1
 583 672 515 611 436 611 c 0
 373 611 330 653 330 715 c 0
 330 727 331 736 336 754 c 1
 378 754 l 1
 378 746 l 2
 378 710 405 689 452 689 c 0
 503 689 538 711 555 754 c 1
EndSplineSet
EndChar
StartChar: Gcommaaccent
Encoding: 290 290 223
Width: 778
Flags: W
HStem: -23 128<307 495> 267 125<503 642> 613 128<476.5 628.5>
VStem: 107 149<175 320>
Fore
795 392 m 1
 711 -2 l 1
 621 -2 l 1
 628 88 l 1
 554 9 488 -23 395 -23 c 0
 219 -23 107 88 107 262 c 0
 107 378 155 505 233 596 c 0
 315 691 424 741 547 741 c 0
 710 741 819 655 819 529 c 0
 819 521 818 510 817 496 c 1
 679 496 l 1
 671 571 614 613 519 613 c 0
 434 613 366 575 318 501 c 0
 282 446 256 355 256 284 c 0
 256 181 328 105 426 105 c 0
 564 105 626 218 642 267 c 1
 476 267 l 1
 503 392 l 1
 795 392 l 1
323 -60 m 1
 445 -60 l 1
 424 -156 l 1
 414 -234 347 -301 271 -307 c 1
 281 -261 l 1
 325 -253 360 -217 366 -172 c 1
 299 -172 l 1
 323 -60 l 1
EndSplineSet
EndChar
StartChar: gcommaaccent
Encoding: 291 291 224
Width: 611
Flags: W
HStem: -218 90<151 318> -23 112<203.5 350.5> 437 112<338 407.5> 719 21G<450 516>
VStem: 79 143<112 262.5>
Fore
235 -218 m 0
 67 -218 26 -148 26 -96 c 0
 26 -88 27 -77 29 -65 c 1
 173 -65 l 1
 172 -77 l 1
 172 -106 209 -128 258 -128 c 0
 331 -128 390 -83 404 -18 c 2
 420 55 l 1
 356 -4 316 -23 254 -23 c 0
 153 -23 79 57 79 167 c 0
 79 264 116 374 174 445 c 0
 227 511 302 549 378 549 c 0
 437 549 478 519 505 457 c 1
 523 540 l 1
 656 540 l 1
 537 -18 l 1
 510 -146 401 -218 235 -218 c 0
379 437 m 0
 297 437 222 324 222 201 c 0
 222 132 254 89 306 89 c 0
 395 89 471 193 471 315 c 0
 471 389 435 437 379 437 c 0
493 607 m 1
 371 607 l 1
 391 703 l 1
 402 781 469 848 545 854 c 1
 535 808 l 1
 490 800 456 764 450 719 c 1
 516 719 l 1
 493 607 l 1
EndSplineSet
EndChar
StartChar: Hbar
Encoding: 294 294 227
Width: 722
Flags: W
HStem: 0 21G<-9 141 430 580> 532 67<58 118 254 556 693 753> 709 20G<145 295 583 734>
Fore
707 599 m 1
 767 599 l 1
 753 532 l 1
 693 532 l 1
 580 0 l 1
 430 0 l 1
 500 331 l 1
 211 331 l 1
 141 0 l 1
 -9 0 l 1
 104 532 l 1
 44 532 l 1
 58 599 l 1
 118 599 l 1
 145 729 l 1
 295 729 l 1
 268 599 l 1
 556 599 l 1
 583 729 l 1
 734 729 l 1
 707 599 l 1
542 532 m 1
 254 532 l 1
 237 456 l 1
 525 456 l 1
 542 532 l 1
EndSplineSet
EndChar
StartChar: hbar
Encoding: 295 295 228
Width: 611
Flags: W
HStem: 0 21G<-10 130 324 464> 529 20G<369.5 434> 596 67<71 130 256 390> 709 20G<144 284>
VStem: 399 148<362.5 472>
Fore
404 549 m 0
 464 549 547 523 547 421 c 0
 547 403 545 384 540 362 c 2
 464 0 l 1
 324 0 l 1
 394 330 l 2
 397 346 399 358 399 367 c 0
 399 409 369 430 329 430 c 0
 266 430 212 386 198 324 c 2
 130 0 l 1
 -10 0 l 1
 116 596 l 1
 57 596 l 1
 71 663 l 1
 130 663 l 1
 144 729 l 1
 284 729 l 1
 270 663 l 1
 404 663 l 1
 390 596 l 1
 256 596 l 1
 228 462 l 1
 279 521 335 549 404 549 c 0
EndSplineSet
EndChar
StartChar: Imacron
Encoding: 298 298 231
Width: 278
Flags: W
HStem: 0 21G<63 213> 709 20G<218 368> 821 80<193 449>
Fore
368 729 m 1
 213 0 l 1
 63 0 l 1
 218 729 l 1
 368 729 l 1
466 901 m 1
 449 821 l 1
 176 821 l 1
 193 901 l 1
 466 901 l 1
EndSplineSet
EndChar
StartChar: imacron
Encoding: 299 299 232
Width: 278
Flags: W
HStem: 0 21G<67 207> 520 20G<182 322> 642 80<157 407>
Fore
322 540 m 1
 207 0 l 1
 67 0 l 1
 182 540 l 1
 322 540 l 1
424 722 m 1
 407 642 l 1
 140 642 l 1
 157 722 l 1
 424 722 l 1
EndSplineSet
EndChar
StartChar: Iogonek
Encoding: 302 302 235
Width: 278
Flags: W
HStem: -233 50<90.5 157> -20 20G<63 139> 709 20G<218 368>
VStem: 7 97<-179.5 -117>
Fore
368 729 m 1
 213 0 l 1
 153 -32 104 -95 104 -139 c 0
 104 -167 121 -183 150 -183 c 0
 164 -183 192 -178 210 -172 c 1
 199 -224 l 1
 165 -231 151 -233 128 -233 c 0
 53 -233 7 -204 7 -155 c 0
 7 -98 49 -50 139 0 c 1
 63 0 l 1
 218 729 l 1
 368 729 l 1
EndSplineSet
EndChar
StartChar: iogonek
Encoding: 303 303 236
Width: 268
Flags: W
HStem: -233 51<82 150.5> -20 20G<56 129> 520 20G<171 311> 709 20G<211 351>
VStem: 0 96<-176 -117.5>
Fore
311 540 m 1
 196 0 l 1
 132 -45 96 -95 96 -140 c 0
 96 -167 112 -182 143 -182 c 0
 158 -182 163 -181 193 -172 c 1
 182 -224 l 1
 141 -233 138 -233 119 -233 c 0
 45 -233 0 -202 0 -150 c 0
 0 -98 36 -56 129 0 c 1
 56 0 l 1
 171 540 l 1
 311 540 l 1
351 729 m 1
 325 604 l 1
 185 604 l 1
 211 729 l 1
 351 729 l 1
EndSplineSet
EndChar
StartChar: Idotaccent
Encoding: 304 304 237
Width: 278
Flags: W
HStem: 0 21G<63 213> 709 20G<218 368>
Fore
368 729 m 1
 213 0 l 1
 63 0 l 1
 218 729 l 1
 368 729 l 1
388 918 m 1
 362 798 l 1
 252 798 l 1
 278 918 l 1
 388 918 l 1
EndSplineSet
EndChar
StartChar: dotlessi
Encoding: 305 305 238
Width: 278
Flags: W
HStem: 0 21G<67 207> 520 20G<182 322>
Fore
322 540 m 1
 207 0 l 1
 67 0 l 1
 182 540 l 1
 322 540 l 1
EndSplineSet
EndChar
StartChar: jcircumflex
Encoding: 309 309 242
Width: 278
HStem: -218 112<-7.5 59> 520 20G<185 325> 715 21G<124 200 364 442>
Fore
325 540 m 1
 190 -94 l 1
 172 -181 116 -218 2 -218 c 0
 -17 -218 -29 -217 -43 -213 c 1
 -19 -102 l 1
 -15 -105 -8 -106 6 -106 c 0
 36 -106 50 -94 57 -62 c 2
 185 540 l 1
 325 540 l 1
263 862 m 1
 371 862 l 1
 442 715 l 1
 364 715 l 1
 303 812 l 1
 200 715 l 1
 124 715 l 1
 263 862 l 1
EndSplineSet
EndChar
StartChar: Kcommaaccent
Encoding: 310 310 243
Width: 722
Flags: W
HStem: 0 21G<74 224 538 717> 709 20G<229 379 665 843>
Fore
274 234 m 1
 224 0 l 1
 74 0 l 1
 229 729 l 1
 379 729 l 1
 311 409 l 1
 665 729 l 1
 843 729 l 1
 482 410 l 1
 717 0 l 1
 538 0 l 1
 365 314 l 1
 274 234 l 1
305 -60 m 1
 427 -60 l 1
 406 -156 l 1
 396 -234 329 -301 253 -307 c 1
 263 -261 l 1
 307 -253 342 -217 348 -172 c 1
 281 -172 l 1
 305 -60 l 1
EndSplineSet
EndChar
StartChar: kcommaaccent
Encoding: 311 311 244
Width: 556
Flags: W
HStem: 0 21G<59 199 384 548> 520 20G<492 651> 709 20G<214 354>
Fore
354 729 m 1
 269 330 l 1
 492 540 l 1
 651 540 l 1
 419 334 l 1
 548 0 l 1
 384 0 l 1
 305 239 l 1
 237 177 l 1
 199 0 l 1
 59 0 l 1
 214 729 l 1
 354 729 l 1
220 -60 m 1
 342 -60 l 1
 321 -156 l 1
 311 -234 244 -301 168 -307 c 1
 178 -261 l 1
 222 -253 257 -217 263 -172 c 1
 196 -172 l 1
 220 -60 l 1
EndSplineSet
EndChar
StartChar: kgreenlandic
Encoding: 312 312 245
Width: 529
Flags: W
HStem: 0 21G<59 199 366 548> 520 20G<174 314 476 624>
Fore
274 351 m 1
 476 540 l 1
 624 540 l 1
 358 296 l 1
 548 0 l 1
 366 0 l 1
 241 198 l 1
 199 0 l 1
 59 0 l 1
 174 540 l 1
 314 540 l 1
 274 351 l 1
EndSplineSet
EndChar
StartChar: Lacute
Encoding: 313 313 246
Width: 611
Flags: W
HStem: 0 125<80 579> 709 20G<235 385>
Fore
385 729 m 1
 257 125 l 1
 606 125 l 1
 579 0 l 1
 80 0 l 1
 235 729 l 1
 385 729 l 1
494 936 m 1
 336 786 l 1
 266 786 l 1
 368 936 l 1
 494 936 l 1
EndSplineSet
EndChar
StartChar: lacute
Encoding: 314 314 247
Width: 278
Flags: W
HStem: 0 21G<67 207> 709 20G<222 362>
Fore
362 729 m 1
 207 0 l 1
 67 0 l 1
 222 729 l 1
 362 729 l 1
474 936 m 1
 316 786 l 1
 246 786 l 1
 348 936 l 1
 474 936 l 1
EndSplineSet
EndChar
StartChar: Lcommaaccent
Encoding: 315 315 248
Width: 611
Flags: W
HStem: 0 125<80 579> 709 20G<235 385>
Fore
385 729 m 1
 257 125 l 1
 606 125 l 1
 579 0 l 1
 80 0 l 1
 235 729 l 1
 385 729 l 1
265 -62 m 1
 387 -62 l 1
 366 -158 l 1
 356 -236 289 -303 213 -309 c 1
 223 -263 l 1
 267 -255 302 -219 308 -174 c 1
 241 -174 l 1
 265 -62 l 1
EndSplineSet
EndChar
StartChar: lcommaaccent
Encoding: 316 316 249
Width: 278
Flags: W
HStem: 0 21G<67 207> 709 20G<222 362>
Fore
362 729 m 1
 207 0 l 1
 67 0 l 1
 222 729 l 1
 362 729 l 1
63 -60 m 1
 185 -60 l 1
 164 -156 l 1
 154 -234 87 -301 11 -307 c 1
 21 -261 l 1
 65 -253 100 -217 106 -172 c 1
 39 -172 l 1
 63 -60 l 1
EndSplineSet
EndChar
StartChar: Lcaron
Encoding: 317 317 250
Width: 611
Flags: W
HStem: 0 125<80 579> 709 20G<235 385 485 607>
Fore
385 729 m 1
 257 125 l 1
 606 125 l 1
 579 0 l 1
 80 0 l 1
 235 729 l 1
 385 729 l 1
485 729 m 1
 607 729 l 1
 586 633 l 1
 576 555 509 488 433 482 c 1
 443 528 l 1
 487 536 522 572 528 617 c 1
 461 617 l 1
 485 729 l 1
EndSplineSet
EndChar
StartChar: lcaron
Encoding: 318 318 251
Width: 384
Flags: W
HStem: 0 21G<67 207> 709 20G<222 362 422 544>
Fore
362 729 m 1
 207 0 l 1
 67 0 l 1
 222 729 l 1
 362 729 l 1
422 729 m 1
 544 729 l 1
 523 633 l 1
 513 555 446 488 370 482 c 1
 380 528 l 1
 424 536 459 572 465 617 c 1
 398 617 l 1
 422 729 l 1
EndSplineSet
EndChar
StartChar: Lslash
Encoding: 321 321 254
Width: 611
Flags: W
HStem: 0 125<98 597> 709 20G<253 403>
Fore
338 421 m 1
 525 531 l 1
 505 437 l 1
 318 327 l 1
 275 125 l 1
 624 125 l 1
 597 0 l 1
 98 0 l 1
 154 262 l 1
 54 201 l 1
 74 295 l 1
 174 356 l 1
 253 729 l 1
 403 729 l 1
 338 421 l 1
EndSplineSet
EndChar
StartChar: lslash
Encoding: 322 322 255
Width: 278
Flags: W
HStem: 0 21G<64 204> 709 20G<219 359>
Fore
296 435 m 1
 372 480 l 1
 355 398 l 1
 279 353 l 1
 204 0 l 1
 64 0 l 1
 126 294 l 1
 50 246 l 1
 67 329 l 1
 143 376 l 1
 219 729 l 1
 359 729 l 1
 296 435 l 1
EndSplineSet
EndChar
StartChar: Nacute
Encoding: 323 323 256
Width: 722
Flags: W
HStem: 0 21G<68 210 513 661> 709 20G<223 373 674 816>
Fore
816 729 m 1
 661 0 l 1
 513 0 l 1
 321 523 l 1
 210 0 l 1
 68 0 l 1
 223 729 l 1
 373 729 l 1
 565 214 l 1
 674 729 l 1
 816 729 l 1
690 936 m 1
 532 786 l 1
 462 786 l 1
 564 936 l 1
 690 936 l 1
EndSplineSet
EndChar
StartChar: nacute
Encoding: 324 324 257
Width: 611
Flags: W
HStem: 0 21G<63 203 406 546> 437 112<371.5 526.5>
Fore
178 540 m 1
 318 540 l 1
 300 458 l 1
 354 522 408 549 482 549 c 0
 571 549 629 497 629 417 c 0
 629 399 627 381 623 362 c 2
 546 0 l 1
 406 0 l 1
 473 313 l 1
 477 335 479 349 479 362 c 0
 479 410 453 437 405 437 c 0
 338 437 286 386 268 304 c 0
 203 0 l 1
 63 0 l 1
 178 540 l 1
594 757 m 1
 436 607 l 1
 366 607 l 1
 468 757 l 1
 594 757 l 1
EndSplineSet
EndChar
StartChar: Ncommaaccent
Encoding: 325 325 258
Width: 722
Flags: W
HStem: 0 21G<68 210 513 661> 709 20G<223 373 674 816>
Fore
816 729 m 1
 661 0 l 1
 513 0 l 1
 321 523 l 1
 210 0 l 1
 68 0 l 1
 223 729 l 1
 373 729 l 1
 565 214 l 1
 674 729 l 1
 816 729 l 1
288 -60 m 1
 410 -60 l 1
 389 -156 l 1
 379 -234 312 -301 236 -307 c 1
 246 -261 l 1
 290 -253 325 -217 331 -172 c 1
 264 -172 l 1
 288 -60 l 1
EndSplineSet
EndChar
StartChar: ncommaaccent
Encoding: 326 326 259
Width: 611
Flags: W
HStem: 0 21G<63 203 406 546> 437 112<371.5 526.5>
Fore
178 540 m 1
 318 540 l 1
 300 458 l 1
 354 522 408 549 482 549 c 0
 571 549 629 497 629 417 c 0
 629 399 627 381 623 362 c 2
 546 0 l 1
 406 0 l 1
 473 313 l 1
 477 335 479 349 479 362 c 0
 479 410 453 437 405 437 c 0
 338 437 286 386 268 304 c 0
 203 0 l 1
 63 0 l 1
 178 540 l 1
231 -60 m 1
 353 -60 l 1
 332 -156 l 1
 322 -234 255 -301 179 -307 c 1
 189 -261 l 1
 233 -253 268 -217 274 -172 c 1
 207 -172 l 1
 231 -60 l 1
EndSplineSet
EndChar
StartChar: Ncaron
Encoding: 327 327 260
Width: 722
Flags: W
HStem: 0 21G<68 210 513 661> 709 20G<223 373 674 816>
Fore
816 729 m 1
 661 0 l 1
 513 0 l 1
 321 523 l 1
 210 0 l 1
 68 0 l 1
 223 729 l 1
 373 729 l 1
 565 214 l 1
 674 729 l 1
 816 729 l 1
577 789 m 1
 469 789 l 1
 398 936 l 1
 476 936 l 1
 537 839 l 1
 640 936 l 1
 716 936 l 1
 577 789 l 1
EndSplineSet
EndChar
StartChar: ncaron
Encoding: 328 328 261
Width: 611
Flags: W
HStem: 0 21G<63 203 406 546> 437 112<371.5 526.5>
Fore
178 540 m 1
 318 540 l 1
 300 458 l 1
 354 522 408 549 482 549 c 0
 571 549 629 497 629 417 c 0
 629 399 627 381 623 362 c 2
 546 0 l 1
 406 0 l 1
 473 313 l 1
 477 335 479 349 479 362 c 0
 479 410 453 437 405 437 c 0
 338 437 286 386 268 304 c 0
 203 0 l 1
 63 0 l 1
 178 540 l 1
478 610 m 1
 370 610 l 1
 299 757 l 1
 377 757 l 1
 438 660 l 1
 541 757 l 1
 617 757 l 1
 478 610 l 1
EndSplineSet
EndChar
StartChar: napostrophe
Encoding: 329 329 262
Width: 611
Flags: W
HStem: 0 21G<63 203 406 546> 437 112<371.5 526.5>
Fore
178 540 m 1
 318 540 l 1
 300 458 l 1
 354 522 408 549 482 549 c 0
 571 549 629 497 629 417 c 0
 629 399 627 381 623 362 c 2
 546 0 l 1
 406 0 l 1
 473 313 l 1
 477 335 479 349 479 362 c 0
 479 410 453 437 405 437 c 0
 338 437 286 386 268 304 c 0
 203 0 l 1
 63 0 l 1
 178 540 l 1
EndSplineSet
EndChar
StartChar: Eng
Encoding: 330 330 263
Width: 722
Flags: W
HStem: 0 21G<68 210 513 661> 709 20G<223 373 674 816>
Fore
816 729 m 1
 661 0 l 1
 513 0 l 1
 321 523 l 1
 210 0 l 1
 68 0 l 1
 223 729 l 1
 373 729 l 1
 565 214 l 1
 674 729 l 1
 816 729 l 1
EndSplineSet
EndChar
StartChar: eng
Encoding: 331 331 264
Width: 611
Flags: W
HStem: 0 21G<63 203 406 546> 437 112<371.5 526.5>
Fore
178 540 m 1
 318 540 l 1
 300 458 l 1
 354 522 408 549 482 549 c 0
 571 549 629 497 629 417 c 0
 629 399 627 381 623 362 c 2
 546 0 l 1
 406 0 l 1
 473 313 l 1
 477 335 479 349 479 362 c 0
 479 410 453 437 405 437 c 0
 338 437 286 386 268 304 c 0
 203 0 l 1
 63 0 l 1
 178 540 l 1
EndSplineSet
EndChar
StartChar: Omacron
Encoding: 332 332 265
Width: 778
Flags: W
HStem: -23 128<306 528.5> 613 128<409 629.5> 821 80<433 716>
VStem: 106 149<173.5 318.5> 679 149<396 545>
Fore
538 741 m 0
 721 741 828 635 828 455 c 0
 828 337 783 215 705 124 c 0
 619 22 523 -23 395 -23 c 0
 217 -23 106 86 106 261 c 0
 106 376 153 502 231 594 c 0
 313 693 414 741 538 741 c 0
419 105 m 0
 638 105 679 371 679 437 c 0
 679 547 619 613 519 613 c 0
 299 613 255 351 255 282 c 0
 255 173 318 105 419 105 c 0
733 901 m 1
 716 821 l 1
 416 821 l 1
 433 901 l 1
 733 901 l 1
EndSplineSet
EndChar
StartChar: omacron
Encoding: 333 333 266
Width: 611
Flags: W
HStem: -23 112<233 400.5> 437 112<312 481.5> 642 80<306 589>
VStem: 82 143<116 277.5> 491 143<246 411>
Fore
82 177 m 0
 82 378 211 549 413 549 c 0
 550 549 634 473 634 349 c 0
 634 143 502 -23 299 -23 c 0
 167 -23 82 55 82 177 c 0
324 89 m 0
 458 89 491 265 491 320 c 0
 491 391 452 437 391 437 c 0
 301 437 225 332 225 205 c 0
 225 134 264 89 324 89 c 0
606 722 m 1
 589 642 l 1
 289 642 l 1
 306 722 l 1
 606 722 l 1
EndSplineSet
EndChar
StartChar: Ohungarumlaut
Encoding: 336 336 269
Width: 778
Flags: W
HStem: -23 128<306 528.5> 613 128<409 629.5>
VStem: 106 149<173.5 318.5> 679 149<396 545>
Fore
538 741 m 0
 721 741 828 635 828 455 c 0
 828 337 783 215 705 124 c 0
 619 22 523 -23 395 -23 c 0
 217 -23 106 86 106 261 c 0
 106 376 153 502 231 594 c 0
 313 693 414 741 538 741 c 0
419 105 m 0
 638 105 679 371 679 437 c 0
 679 547 619 613 519 613 c 0
 299 613 255 351 255 282 c 0
 255 173 318 105 419 105 c 0
653 936 m 1
 495 789 l 1
 425 789 l 1
 527 936 l 1
 653 936 l 1
841 936 m 1
 683 789 l 1
 613 789 l 1
 715 936 l 1
 841 936 l 1
EndSplineSet
EndChar
StartChar: ohungarumlaut
Encoding: 337 337 270
Width: 611
Flags: W
HStem: -23 112<233 400.5> 437 112<312 481.5>
VStem: 82 143<116 277.5> 491 143<246 411>
Fore
82 177 m 0
 82 378 211 549 413 549 c 0
 550 549 634 473 634 349 c 0
 634 143 502 -23 299 -23 c 0
 167 -23 82 55 82 177 c 0
324 89 m 0
 458 89 491 265 491 320 c 0
 491 391 452 437 391 437 c 0
 301 437 225 332 225 205 c 0
 225 134 264 89 324 89 c 0
522 757 m 1
 364 610 l 1
 294 610 l 1
 396 757 l 1
 522 757 l 1
710 757 m 1
 552 610 l 1
 482 610 l 1
 584 757 l 1
 710 757 l 1
EndSplineSet
EndChar
StartChar: OE
Encoding: 338 338 271
Width: 1000
Flags: W
HStem: -23 128<255.5 409.5> 0 125<481 971> 314 125<692 990> 613 128<385 515>
VStem: 90 149<164.5 314>
Fore
692 314 m 1xb8
 652 125 l 1
 997 125 l 1
 971 0 l 1
 481 0 l 1x78
 493 59 l 1
 437 -1 393 -23 326 -23 c 0
 185 -23 90 84 90 245 c 0
 90 377 146 527 230 619 c 0
 303 700 388 741 482 741 c 0
 548 741 588 723 625 677 c 1
 636 729 l 1
 1107 729 l 1
 1080 604 l 1
 754 604 l 1
 719 439 l 1
 1017 439 l 1
 990 314 l 1
 692 314 l 1xb8
482 613 m 0
 288 613 239 354 239 274 c 0
 239 168 292 105 383 105 c 0xb8
 436 105 474 126 513 178 c 1
 590 540 l 1
 571 591 538 613 482 613 c 0
EndSplineSet
EndChar
StartChar: oe
Encoding: 339 339 272
Width: 944
Flags: W
HStem: -23 112<221 380 629 725.5> 226 93<606 968> 437 112<300.5 442.5 726 843>
VStem: 71 143<114.5 273> 843 143<319 406>
Fore
778 549 m 0
 908 549 986 461 986 351 c 0
 986 313 980 271 968 226 c 1
 606 226 l 1
 600 200 599 188 599 174 c 0
 599 124 638 89 695 89 c 0
 744 89 789 114 809 152 c 1
 947 152 l 1
 894 45 785 -23 666 -23 c 0
 592 -23 526 6 498 50 c 1
 446 4 369 -23 288 -23 c 0
 154 -23 71 53 71 176 c 0
 71 370 198 549 403 549 c 0
 482 549 549 522 583 477 c 1
 629 522 703 549 778 549 c 0
313 89 m 0
 447 89 480 265 480 320 c 0
 480 391 441 437 380 437 c 0
 290 437 214 332 214 205 c 0
 214 135 253 89 313 89 c 0
843 319 m 1
 843 347 l 2
 843 404 812 437 758 437 c 0
 694 437 648 396 627 319 c 1
 843 319 l 1
EndSplineSet
EndChar
StartChar: Racute
Encoding: 340 340 273
Width: 722
Flags: W
HStem: 0 21G<80 230 518 677> 709 20G<235 612>
VStem: 636 149<506.5 606.5>
Fore
510 41 m 0
 510 102 548 198 548 234 c 0
 548 271 520 289 463 289 c 2
 291 289 l 1
 230 0 l 1
 80 0 l 1
 235 729 l 1
 612 729 l 2
 750 729 785 634 785 579 c 0
 785 434 665 375 618 352 c 1
 670 335 696 308 696 270 c 0
 696 207 665 100 665 61 c 0
 665 47 670 37 683 27 c 1
 677 0 l 1
 518 0 l 1
 512 19 510 29 510 41 c 0
636 534 m 0
 636 590 587 604 526 604 c 2
 358 604 l 1
 318 414 l 1
 499 414 l 2
 612 414 636 493 636 534 c 0
673 936 m 1
 515 786 l 1
 445 786 l 1
 547 936 l 1
 673 936 l 1
EndSplineSet
EndChar
StartChar: racute
Encoding: 341 341 274
Width: 389
Flags: W
HStem: 0 21G<63 203> 520 20G<178 318>
Fore
178 540 m 1
 318 540 l 1
 295 434 l 1
 342 507 406 549 470 549 c 0
 474 549 479 549 487 548 c 1
 457 406 l 1
 439 409 429 410 414 410 c 0
 332 410 281 369 264 287 c 0
 203 0 l 1
 63 0 l 1
 178 540 l 1
500 757 m 1
 342 607 l 1
 272 607 l 1
 374 757 l 1
 500 757 l 1
EndSplineSet
EndChar
StartChar: Rcommaaccent
Encoding: 342 342 275
Width: 722
Flags: W
HStem: 0 21G<80 230 518 677> 709 20G<235 612>
VStem: 636 149<506.5 606.5>
Fore
510 41 m 0
 510 102 548 198 548 234 c 0
 548 271 520 289 463 289 c 2
 291 289 l 1
 230 0 l 1
 80 0 l 1
 235 729 l 1
 612 729 l 2
 750 729 785 634 785 579 c 0
 785 434 665 375 618 352 c 1
 670 335 696 308 696 270 c 0
 696 207 665 100 665 61 c 0
 665 47 670 37 683 27 c 1
 677 0 l 1
 518 0 l 1
 512 19 510 29 510 41 c 0
636 534 m 0
 636 590 587 604 526 604 c 2
 358 604 l 1
 318 414 l 1
 499 414 l 2
 612 414 636 493 636 534 c 0
298 -60 m 1
 420 -60 l 1
 399 -156 l 1
 389 -234 322 -301 246 -307 c 1
 256 -261 l 1
 300 -253 335 -217 341 -172 c 1
 274 -172 l 1
 298 -60 l 1
EndSplineSet
EndChar
StartChar: rcommaaccent
Encoding: 343 343 276
Width: 389
Flags: W
HStem: 0 21G<63 203> 520 20G<178 318>
Fore
178 540 m 1
 318 540 l 1
 296 434 l 1
 342 507 406 549 470 549 c 0
 474 549 479 549 487 548 c 1
 457 406 l 1
 439 409 429 410 414 410 c 0
 332 410 281 369 264 287 c 0
 203 0 l 1
 63 0 l 1
 178 540 l 1
60 -60 m 1
 182 -60 l 1
 161 -156 l 1
 151 -234 84 -301 8 -307 c 1
 18 -261 l 1
 62 -253 97 -217 103 -172 c 1
 36 -172 l 1
 60 -60 l 1
EndSplineSet
EndChar
StartChar: Rcaron
Encoding: 344 344 277
Width: 722
Flags: W
HStem: 0 21G<80 230 518 677> 709 20G<235 612>
VStem: 636 149<506.5 606.5>
Fore
510 41 m 0
 510 102 548 198 548 234 c 0
 548 271 520 289 463 289 c 2
 291 289 l 1
 230 0 l 1
 80 0 l 1
 235 729 l 1
 612 729 l 2
 750 729 785 634 785 579 c 0
 785 434 665 375 618 352 c 1
 670 335 696 308 696 270 c 0
 696 207 665 100 665 61 c 0
 665 47 670 37 683 27 c 1
 677 0 l 1
 518 0 l 1
 512 19 510 29 510 41 c 0
636 534 m 0
 636 590 587 604 526 604 c 2
 358 604 l 1
 318 414 l 1
 499 414 l 2
 612 414 636 493 636 534 c 0
564 789 m 1
 456 789 l 1
 385 936 l 1
 463 936 l 1
 524 839 l 1
 627 936 l 1
 703 936 l 1
 564 789 l 1
EndSplineSet
EndChar
StartChar: rcaron
Encoding: 345 345 278
Width: 389
Flags: W
HStem: 0 21G<63 203> 520 20G<178 318>
Fore
178 540 m 1
 318 540 l 1
 295 434 l 1
 342 507 406 549 470 549 c 0
 474 549 479 549 487 548 c 1
 457 406 l 1
 439 409 429 410 414 410 c 0
 332 410 281 369 264 287 c 0
 203 0 l 1
 63 0 l 1
 178 540 l 1
394 610 m 1
 286 610 l 1
 215 757 l 1
 293 757 l 1
 354 660 l 1
 457 757 l 1
 533 757 l 1
 394 610 l 1
EndSplineSet
EndChar
StartChar: Sacute
Encoding: 346 346 279
Width: 667
Flags: W
HStem: -23 128<237.5 482> 613 128<373.5 552>
VStem: 151 149<430.5 546.5> 538 149<182.5 303.5> 579 146<527.5 623>
Fore
151 472 m 0xf0
 151 621 274 741 473 741 c 0
 631 741 725 677 725 569 c 0
 725 549 723 535 717 507 c 1
 577 507 l 1
 578 516 579 525 579 530 c 0xe8
 579 584 532 613 447 613 c 0
 356 613 300 573 300 509 c 0
 300 471 327 455 421 436 c 2
 530 414 l 2
 632 394 687 342 687 265 c 0
 687 157 619 -23 345 -23 c 0
 130 -23 76 89 76 174 c 0
 76 188 77 198 80 218 c 1
 226 218 l 1
 225 209 224 200 224 196 c 0
 224 138 276 105 367 105 c 0
 471 105 538 149 538 216 c 0
 538 262 509 283 418 301 c 2
 320 321 l 2
 201 345 151 389 151 472 c 0xf0
649 936 m 1
 491 786 l 1
 421 786 l 1
 522 936 l 1
 649 936 l 1
EndSplineSet
EndChar
StartChar: sacute
Encoding: 347 347 280
Width: 556
Flags: W
HStem: -23 112<192.5 366> 437 112<309 450>
VStem: 127 149<317 402.5> 411 148<123 217>
Fore
127 345 m 0
 127 460 231 549 387 549 c 0
 513 549 589 494 589 404 c 0
 589 393 588 384 584 366 c 1
 449 366 l 1
 451 375 452 379 452 385 c 0
 452 417 419 437 364 437 c 0
 311 437 276 416 276 384 c 0
 276 364 290 354 341 339 c 2
 437 311 l 2
 520 286 559 247 559 187 c 0
 559 59 451 -23 281 -23 c 0
 104 -23 60 71 60 127 c 0
 60 136 61 142 64 157 c 1
 201 157 l 1
 204 99 265 89 307 89 c 0
 368 89 411 112 411 144 c 0
 411 167 398 176 335 196 c 2
 256 221 l 2
 168 250 127 289 127 345 c 0
570 757 m 1
 412 607 l 1
 342 607 l 1
 444 757 l 1
 570 757 l 1
EndSplineSet
EndChar
StartChar: Scedilla
Encoding: 350 350 283
Width: 667
Flags: W
HStem: -220 50<254.5 322> -23 128<321.5 419> 613 128<373.5 552>
VStem: 151 149<430.5 546.5> 340 87<-145.5 -95> 538 149<182.5 303.5> 579 146<527.5 623>
Fore
151 472 m 0xfc
 151 621 274 741 473 741 c 0
 631 741 725 677 725 569 c 0
 725 549 723 535 717 507 c 1
 577 507 l 1
 578 516 579 525 579 530 c 0xfa
 579 584 532 613 447 613 c 0
 356 613 300 573 300 509 c 0
 300 471 327 455 421 436 c 2
 530 414 l 2
 632 394 687 342 687 265 c 0
 687 153 621 -20 347 -23 c 1
 320 -62 l 1
 335 -58 349 -56 364 -56 c 0
 403 -56 427 -77 427 -113 c 0
 427 -178 367 -220 277 -220 c 0
 232 -220 200 -213 144 -191 c 1
 174 -140 l 1
 221 -163 244 -170 273 -170 c 0
 310 -170 340 -150 340 -126 c 0
 340 -106 322 -93 296 -93 c 0
 279 -93 267 -96 243 -106 c 1
 298 -22 l 1
 153 0 76 55 76 174 c 0
 76 188 77 198 80 218 c 1
 226 218 l 1
 225 209 224 200 224 196 c 0
 224 138 276 105 367 105 c 0
 471 105 538 149 538 216 c 0
 538 262 509 283 418 301 c 2
 320 321 l 2
 201 345 151 389 151 472 c 0xfc
EndSplineSet
EndChar
StartChar: scedilla
Encoding: 351 351 284
Width: 556
Flags: W
HStem: -220 50<195.5 263> -22 111<286 371> 437 112<309 450>
VStem: 127 149<317 402.5> 281 87<-145.5 -95> 411 148<123.5 217>
Fore
127 345 m 0
 127 460 231 549 387 549 c 0
 513 549 589 494 589 404 c 0
 589 393 588 384 584 366 c 1
 449 366 l 1
 451 375 452 379 452 385 c 0
 452 417 419 437 364 437 c 0
 311 437 276 416 276 384 c 0
 276 364 290 354 341 339 c 2
 437 311 l 2
 520 286 559 247 559 187 c 0
 559 60 454 -22 288 -22 c 1
 262 -62 l 1
 277 -58 290 -56 305 -56 c 0
 344 -56 368 -77 368 -113 c 0
 368 -178 308 -220 218 -220 c 0
 173 -220 142 -213 85 -191 c 1
 115 -140 l 1
 162 -163 185 -170 213 -170 c 0
 251 -170 281 -150 281 -126 c 0
 281 -106 263 -93 237 -93 c 0
 220 -93 208 -96 184 -106 c 1
 238 -21 l 1
 202 -21 60 16 60 127 c 0
 60 135 61 143 64 157 c 1
 201 157 l 1
 204 99 265 89 307 89 c 0
 368 89 411 112 411 144 c 0
 411 167 398 176 335 196 c 2
 256 221 l 2
 168 250 127 289 127 345 c 0
EndSplineSet
EndChar
StartChar: Scaron
Encoding: 352 352 285
Width: 667
Flags: W
HStem: -23 128<237.5 482> 613 128<373.5 552>
VStem: 151 149<430.5 546.5> 538 149<182.5 303.5> 579 146<527.5 623>
Fore
537 789 m 1xe0
 429 789 l 1
 358 936 l 1
 436 936 l 1
 497 839 l 1
 600 936 l 1
 676 936 l 1
 537 789 l 1xe0
151 472 m 0
 151 621 274 741 473 741 c 0
 631 741 725 677 725 569 c 0
 725 549 723 535 717 507 c 1
 577 507 l 1
 578 516 579 525 579 530 c 0xe8
 579 584 532 613 447 613 c 0
 356 613 300 573 300 509 c 0
 300 471 327 455 421 436 c 2
 530 414 l 2
 632 394 687 342 687 265 c 0
 687 157 619 -23 345 -23 c 0
 130 -23 76 89 76 174 c 0
 76 188 77 198 80 218 c 1
 226 218 l 1
 225 209 224 200 224 196 c 0
 224 138 276 105 367 105 c 0
 471 105 538 149 538 216 c 0xf0
 538 262 509 283 418 301 c 2
 320 321 l 2
 201 345 151 389 151 472 c 0
EndSplineSet
EndChar
StartChar: scaron
Encoding: 353 353 286
Width: 556
Flags: W
HStem: -23 112<192.5 366> 437 112<309 450>
VStem: 127 149<317 402.5> 411 148<123 217>
Fore
127 345 m 0
 127 460 231 549 387 549 c 0
 513 549 589 494 589 404 c 0
 589 393 588 384 584 366 c 1
 449 366 l 1
 451 375 452 379 452 385 c 0
 452 417 419 437 364 437 c 0
 311 437 276 416 276 384 c 0
 276 364 290 354 341 339 c 2
 437 311 l 2
 520 286 559 247 559 187 c 0
 559 59 451 -23 281 -23 c 0
 104 -23 60 71 60 127 c 0
 60 136 61 142 64 157 c 1
 201 157 l 1
 204 99 265 89 307 89 c 0
 368 89 411 112 411 144 c 0
 411 167 398 176 335 196 c 2
 256 221 l 2
 168 250 127 289 127 345 c 0
458 610 m 1
 350 610 l 1
 279 757 l 1
 357 757 l 1
 418 660 l 1
 521 757 l 1
 597 757 l 1
 458 610 l 1
EndSplineSet
EndChar
StartChar: Tcaron
Encoding: 356 356 289
Width: 611
Flags: W
HStem: 0 21G<235 385> 604 125<169 753>
Fore
514 604 m 1
 385 0 l 1
 235 0 l 1
 364 604 l 1
 142 604 l 1
 169 729 l 1
 753 729 l 1
 726 604 l 1
 514 604 l 1
532 789 m 1
 424 789 l 1
 353 936 l 1
 431 936 l 1
 492 839 l 1
 595 936 l 1
 671 936 l 1
 532 789 l 1
EndSplineSet
EndChar
StartChar: tcaron
Encoding: 357 357 290
Width: 404
Flags: W
HStem: -23 21G<177.5 230.5> 436 93<127 196 336 394> 697 20G<432 499>
Fore
414 529 m 1
 394 436 l 1
 316 436 l 1
 254 142 l 1
 250 125 248 113 248 108 c 0
 248 93 263 83 286 83 c 0
 297 83 305 84 319 86 c 1
 299 -12 l 1
 271 -20 247 -23 214 -23 c 0
 141 -23 101 8 101 63 c 0
 101 76 103 90 106 104 c 2
 176 436 l 1
 107 436 l 1
 127 529 l 1
 196 529 l 1
 227 674 l 1
 367 674 l 1
 336 529 l 1
 414 529 l 1
456 829 m 1
 578 829 l 1
 557 733 l 1
 547 655 480 588 404 582 c 1
 414 628 l 1
 458 636 493 672 499 717 c 1
 432 717 l 1
 456 829 l 1
EndSplineSet
EndChar
StartChar: Tbar
Encoding: 358 358 291
Width: 611
Flags: W
HStem: 0 21G<235 385> 604 125<169 753>
Fore
514 604 m 1
 385 0 l 1
 235 0 l 1
 364 604 l 1
 142 604 l 1
 169 729 l 1
 753 729 l 1
 726 604 l 1
 514 604 l 1
EndSplineSet
EndChar
StartChar: tbar
Encoding: 359 359 292
Width: 333
Flags: W
HStem: -23 21G<177.5 230.5> 436 93<127 196 336 394>
Fore
414 529 m 1
 394 436 l 1
 316 436 l 1
 254 142 l 1
 250 125 248 113 248 108 c 0
 248 93 263 83 286 83 c 0
 297 83 305 84 319 86 c 1
 299 -12 l 1
 271 -20 247 -23 214 -23 c 0
 141 -23 101 8 101 63 c 0
 101 76 103 90 106 104 c 2
 176 436 l 1
 107 436 l 1
 127 529 l 1
 196 529 l 1
 227 674 l 1
 367 674 l 1
 336 529 l 1
 414 529 l 1
EndSplineSet
EndChar
StartChar: Umacron
Encoding: 362 362 295
Width: 722
Flags: W
HStem: -23 128<290.5 439.5> 709 20G<231 381 659 809> 821 80<407 690>
VStem: 119 152<109 197.5>
Fore
659 729 m 1
 809 729 l 1
 704 235 l 1
 686 152 654 96 597 51 c 0
 536 3 454 -23 366 -23 c 0
 215 -23 119 51 119 167 c 0
 119 189 123 222 130 255 c 2
 231 729 l 1
 381 729 l 1
 276 235 l 1
 273 219 271 205 271 190 c 0
 271 137 316 105 394 105 c 0
 485 105 535 145 554 235 c 2
 659 729 l 1
707 901 m 1
 690 821 l 1
 390 821 l 1
 407 901 l 1
 707 901 l 1
EndSplineSet
EndChar
StartChar: umacron
Encoding: 363 363 296
Width: 611
Flags: W
HStem: -23 112<190 346.5> 520 20G<174 314 516 656> 642 80<304 587>
Fore
541 0 m 1
 401 0 l 1
 416 68 l 1
 362 4 308 -23 234 -23 c 0
 146 -23 88 29 88 109 c 0
 88 127 90 145 94 164 c 2
 174 540 l 1
 314 540 l 1
 244 213 l 1
 240 190 238 178 238 164 c 0
 238 115 264 89 314 89 c 0
 379 89 431 141 448 222 c 0
 516 540 l 1
 656 540 l 1
 541 0 l 1
604 722 m 1
 587 642 l 1
 287 642 l 1
 304 722 l 1
 604 722 l 1
EndSplineSet
EndChar
StartChar: Uring
Encoding: 366 366 299
Width: 722
Flags: W
HStem: -23 128<290.5 439.5> 709 20G<231 381 659 809> 773 50<506 556> 903 50<538 588>
VStem: 119 152<109 197.5> 455 49<823.5 872.5> 590 49<853.5 902.5>
Fore
659 729 m 1
 809 729 l 1
 704 235 l 1
 686 152 654 96 597 51 c 0
 536 3 454 -23 366 -23 c 0
 215 -23 119 51 119 167 c 0
 119 189 123 222 130 255 c 2
 231 729 l 1
 381 729 l 1
 276 235 l 1
 273 219 271 205 271 190 c 0
 271 137 316 105 394 105 c 0
 485 105 535 145 554 235 c 2
 659 729 l 1
567 953 m 0
 609 953 639 923 639 882 c 0
 639 825 585 773 527 773 c 0
 485 773 455 803 455 844 c 0
 455 901 509 953 567 953 c 0
557 903 m 0
 530 903 504 880 504 855 c 0
 504 837 518 823 538 823 c 0
 565 823 590 847 590 872 c 0
 590 890 576 903 557 903 c 0
EndSplineSet
EndChar
StartChar: uring
Encoding: 367 367 300
Width: 611
Flags: W
HStem: -23 112<190 346.5> 520 20G<174 314 516 656> 593 50<404 454> 723 50<436 486>
VStem: 353 49<643.5 692.5> 488 49<673.5 722.5>
Fore
541 0 m 1
 401 0 l 1
 416 68 l 1
 362 4 308 -23 234 -23 c 0
 146 -23 88 29 88 109 c 0
 88 127 90 145 94 164 c 2
 174 540 l 1
 314 540 l 1
 244 213 l 1
 240 190 238 178 238 164 c 0
 238 115 264 89 314 89 c 0
 379 89 431 141 448 222 c 0
 516 540 l 1
 656 540 l 1
 541 0 l 1
465 773 m 0
 507 773 537 743 537 702 c 0
 537 645 483 593 425 593 c 0
 383 593 353 623 353 664 c 0
 353 721 407 773 465 773 c 0
455 723 m 0
 428 723 402 700 402 675 c 0
 402 657 416 643 436 643 c 0
 463 643 488 667 488 692 c 0
 488 710 474 723 455 723 c 0
EndSplineSet
EndChar
StartChar: Uhungarumlaut
Encoding: 368 368 301
Width: 722
Flags: W
HStem: -23 128<290.5 439.5> 709 20G<231 381 659 809>
VStem: 119 152<109 197.5>
Fore
659 729 m 1
 809 729 l 1
 704 235 l 1
 686 152 654 96 597 51 c 0
 536 3 454 -23 366 -23 c 0
 215 -23 119 51 119 167 c 0
 119 189 123 222 130 255 c 2
 231 729 l 1
 381 729 l 1
 276 235 l 1
 273 219 271 205 271 190 c 0
 271 137 316 105 394 105 c 0
 485 105 535 145 554 235 c 2
 659 729 l 1
608 936 m 1
 450 789 l 1
 380 789 l 1
 482 936 l 1
 608 936 l 1
796 936 m 1
 638 789 l 1
 568 789 l 1
 670 936 l 1
 796 936 l 1
EndSplineSet
EndChar
StartChar: uhungarumlaut
Encoding: 369 369 302
Width: 611
Flags: W
HStem: -23 112<190 346.5> 520 20G<174 314 516 656>
Fore
541 0 m 1
 401 0 l 1
 416 68 l 1
 362 4 308 -23 234 -23 c 0
 146 -23 88 29 88 109 c 0
 88 127 90 145 94 164 c 2
 174 540 l 1
 314 540 l 1
 244 213 l 1
 240 190 238 178 238 164 c 0
 238 115 264 89 314 89 c 0
 379 89 431 141 448 222 c 0
 516 540 l 1
 656 540 l 1
 541 0 l 1
509 757 m 1
 351 610 l 1
 281 610 l 1
 383 757 l 1
 509 757 l 1
697 757 m 1
 539 610 l 1
 469 610 l 1
 571 757 l 1
 697 757 l 1
EndSplineSet
EndChar
StartChar: Uogonek
Encoding: 370 370 303
Width: 722
Flags: W
HStem: -233 50<437.5 511> -23 128<291.5 439.5> 709 20G<231 381 659 809>
VStem: 119 152<108.5 197.5> 342 100<-181 -113>
Fore
569 -172 m 1
 558 -224 l 1
 528 -230 506 -233 482 -233 c 0
 393 -233 342 -205 342 -157 c 0
 342 -69 435 -27 473 -10 c 1
 423 -20 400 -23 368 -23 c 0
 215 -23 119 50 119 167 c 0
 119 189 123 222 130 255 c 2
 231 729 l 1
 381 729 l 1
 276 235 l 1
 273 219 271 205 271 190 c 0
 271 137 316 105 394 105 c 0
 485 105 535 145 554 235 c 2
 659 729 l 1
 809 729 l 1
 704 235 l 2
 659 38 553 45 474 -63 c 0
 452 -93 442 -117 442 -139 c 0
 442 -169 460 -183 498 -183 c 0
 524 -183 548 -179 569 -172 c 1
EndSplineSet
EndChar
StartChar: uogonek
Encoding: 371 371 304
Width: 611
Flags: W
HStem: -233 50<410 480> -23 112<190 346.5> 520 20G<174 314 516 656>
VStem: 317 99<-180 -117>
Fore
656 540 m 1
 541 0 l 1
 461 -41 416 -92 416 -142 c 0
 416 -169 434 -183 469 -183 c 0
 491 -183 515 -179 537 -172 c 1
 526 -224 l 1
 483 -233 482 -233 456 -233 c 0
 364 -233 317 -206 317 -154 c 0
 317 -94 365 -45 466 0 c 1
 401 0 l 1
 416 68 l 1
 362 4 308 -23 234 -23 c 0
 146 -23 88 29 88 109 c 0
 88 127 90 145 94 164 c 2
 174 540 l 1
 314 540 l 1
 244 213 l 1
 240 190 238 178 238 164 c 0
 238 115 264 89 314 89 c 0
 379 89 431 141 448 222 c 0
 516 540 l 1
 656 540 l 1
EndSplineSet
EndChar
StartChar: Ydieresis
Encoding: 376 376 309
Width: 667
Flags: W
HStem: 0 21G<269 419> 709 20G<182 349 638 805> 800 120<385 469 571 655>
Fore
477 270 m 1
 419 0 l 1
 269 0 l 1
 327 270 l 1
 182 729 l 1
 349 729 l 1
 431 414 l 1
 638 729 l 1
 805 729 l 1
 477 270 l 1
495 920 m 1
 469 800 l 1
 359 800 l 1
 385 920 l 1
 495 920 l 1
681 920 m 1
 655 800 l 1
 545 800 l 1
 571 920 l 1
 681 920 l 1
EndSplineSet
EndChar
StartChar: Zacute
Encoding: 377 377 310
Width: 611
Flags: W
HStem: 0 125<30 578> 604 125<185 733>
Fore
733 729 m 1
 706 604 l 1
 232 125 l 1
 605 125 l 1
 578 0 l 1
 30 0 l 1
 57 125 l 1
 531 604 l 1
 158 604 l 1
 185 729 l 1
 733 729 l 1
624 936 m 1
 466 786 l 1
 396 786 l 1
 498 936 l 1
 624 936 l 1
EndSplineSet
EndChar
StartChar: zacute
Encoding: 378 378 311
Width: 500
Flags: W
HStem: 0 113<21 469> 427 113<154 575>
Fore
575 540 m 1
 551 427 l 1
 219 113 l 1
 493 113 l 1
 469 0 l 1
 21 0 l 1
 45 113 l 1
 379 427 l 1
 130 427 l 1
 154 540 l 1
 575 540 l 1
542 757 m 1
 384 607 l 1
 314 607 l 1
 416 757 l 1
 542 757 l 1
EndSplineSet
EndChar
StartChar: Zdotaccent
Encoding: 379 379 312
Width: 611
Flags: W
HStem: 0 125<30 578> 604 125<185 733>
Fore
733 729 m 1
 706 604 l 1
 232 125 l 1
 605 125 l 1
 578 0 l 1
 30 0 l 1
 57 125 l 1
 531 604 l 1
 158 604 l 1
 185 729 l 1
 733 729 l 1
549 918 m 1
 523 798 l 1
 413 798 l 1
 439 918 l 1
 549 918 l 1
EndSplineSet
EndChar
StartChar: zdotaccent
Encoding: 380 380 313
Width: 500
Flags: W
HStem: 0 113<21 469> 427 113<154 575> 721 20G<354 464>
Fore
575 540 m 1
 551 427 l 1
 219 113 l 1
 493 113 l 1
 469 0 l 1
 21 0 l 1
 45 113 l 1
 379 427 l 1
 130 427 l 1
 154 540 l 1
 575 540 l 1
464 741 m 1
 438 621 l 1
 328 621 l 1
 354 741 l 1
 464 741 l 1
EndSplineSet
EndChar
StartChar: Zcaron
Encoding: 381 381 314
Width: 611
Flags: W
HStem: 0 125<30 578> 604 125<185 733>
Fore
733 729 m 1
 706 604 l 1
 232 125 l 1
 605 125 l 1
 578 0 l 1
 30 0 l 1
 57 125 l 1
 531 604 l 1
 158 604 l 1
 185 729 l 1
 733 729 l 1
523 789 m 1
 415 789 l 1
 344 936 l 1
 422 936 l 1
 483 839 l 1
 586 936 l 1
 662 936 l 1
 523 789 l 1
EndSplineSet
EndChar
StartChar: zcaron
Encoding: 382 382 315
Width: 500
Flags: W
HStem: 0 113<21 469> 427 113<154 575>
Fore
575 540 m 1
 551 427 l 1
 219 113 l 1
 493 113 l 1
 469 0 l 1
 21 0 l 1
 45 113 l 1
 379 427 l 1
 130 427 l 1
 154 540 l 1
 575 540 l 1
435 610 m 1
 327 610 l 1
 256 757 l 1
 334 757 l 1
 395 660 l 1
 498 757 l 1
 574 757 l 1
 435 610 l 1
EndSplineSet
EndChar
StartChar: longs
Encoding: 383 383 316
Width: 333
Flags: W
HStem: 0 21G<90 230> 436 93<126 202> 625 104<338 405>
Fore
230 0 m 1
 90 0 l 1
 183 436 l 1
 106 436 l 1
 126 529 l 1
 202 529 l 1
 216 594 l 2
 236 687 289 729 387 729 c 0
 405 729 422 728 464 726 c 1
 442 621 l 1
 415 624 410 625 400 625 c 0
 375 625 360 611 354 582 c 0
 230 0 l 1
EndSplineSet
EndChar
StartChar: florin
Encoding: 402 402 317
Width: 556
Flags: W
HStem: -220 116<49 132.5> 383 100<207 345 480 582> 629 115<545.5 613.5>
Fore
603 483 m 1
 582 383 l 1
 445 383 l 1
 305 1 l 2
 263 -113 200 -220 65 -220 c 0
 33 -220 8 -214 -21 -198 c 1
 28 -83 l 1
 45 -96 64 -104 80 -104 c 0
 116 -104 139 -76 170 7 c 2
 309 383 l 1
 186 383 l 1
 207 483 l 1
 345 483 l 1
 368 542 l 2
 422 681 493 744 598 744 c 0
 629 744 650 740 690 727 c 1
 646 613 l 1
 621 626 610 629 594 629 c 0
 555 629 522 594 495 524 c 1
 480 483 l 1
 603 483 l 1
EndSplineSet
EndChar
StartChar: Scommaaccent
Encoding: 536 536 318
Width: 667
Flags: W
HStem: -23 128<237.5 482> 613 128<373.5 552>
VStem: 151 149<430.5 546.5> 538 149<182.5 303.5> 579 146<527.5 623>
Fore
151 472 m 0xf0
 151 621 274 741 473 741 c 0
 631 741 725 677 725 569 c 0
 725 549 723 535 717 507 c 1
 577 507 l 1
 578 516 579 525 579 530 c 0xe8
 579 584 532 613 447 613 c 0
 356 613 300 573 300 509 c 0
 300 471 327 455 421 436 c 2
 530 414 l 2
 632 394 687 342 687 265 c 0
 687 157 619 -23 345 -23 c 0
 130 -23 76 89 76 174 c 0
 76 188 77 198 80 218 c 1
 226 218 l 1
 225 209 224 200 224 196 c 0
 224 138 276 105 367 105 c 0
 471 105 538 149 538 216 c 0
 538 262 509 283 418 301 c 2
 320 321 l 2
 201 345 151 389 151 472 c 0xf0
272 -60 m 1
 393 -60 l 1
 373 -156 l 1
 362 -234 295 -301 219 -307 c 1
 229 -261 l 1
 274 -253 309 -216 315 -172 c 1
 248 -172 l 1
 272 -60 l 1
EndSplineSet
EndChar
StartChar: scommaaccent
Encoding: 537 537 319
Width: 556
Flags: W
HStem: -23 112<192.5 366> 437 112<309 450>
VStem: 127 149<317 402.5> 411 148<123 217>
Fore
127 345 m 0
 127 460 231 549 387 549 c 0
 513 549 589 494 589 404 c 0
 589 393 588 384 584 366 c 1
 449 366 l 1
 451 375 452 379 452 385 c 0
 452 417 419 437 364 437 c 0
 311 437 276 416 276 384 c 0
 276 364 290 354 341 339 c 2
 437 311 l 2
 520 286 559 247 559 187 c 0
 559 59 451 -23 281 -23 c 0
 104 -23 60 71 60 127 c 0
 60 136 61 142 64 157 c 1
 201 157 l 1
 204 99 265 89 307 89 c 0
 368 89 411 112 411 144 c 0
 411 167 398 176 335 196 c 2
 256 221 l 2
 168 250 127 289 127 345 c 0
210 -60 m 1
 332 -60 l 1
 311 -156 l 1
 301 -234 234 -301 158 -307 c 1
 168 -261 l 1
 212 -253 247 -217 253 -172 c 1
 186 -172 l 1
 210 -60 l 1
EndSplineSet
EndChar
StartChar: Tcommaaccent
Encoding: 538 538 320
Width: 611
Flags: W
HStem: 0 21G<235 385> 604 125<169 753>
Fore
514 604 m 1
 385 0 l 1
 235 0 l 1
 364 604 l 1
 142 604 l 1
 169 729 l 1
 753 729 l 1
 726 604 l 1
 514 604 l 1
237 -60 m 1
 359 -60 l 1
 338 -156 l 1
 328 -234 261 -301 185 -307 c 1
 195 -261 l 1
 239 -253 274 -217 280 -172 c 1
 213 -172 l 1
 237 -60 l 1
EndSplineSet
EndChar
StartChar: tcommaaccent
Encoding: 539 539 321
Width: 333
Flags: W
HStem: -23 21G<177.5 230.5> 436 93<126 196 336 394>
Fore
414 529 m 1
 394 436 l 1
 316 436 l 1
 253 142 l 1
 250 125 248 113 248 108 c 0
 248 93 263 83 286 83 c 0
 296 83 305 84 319 86 c 1
 298 -12 l 1
 271 -20 247 -23 214 -23 c 0
 141 -23 101 8 101 63 c 0
 101 77 103 90 106 104 c 0
 176 436 l 1
 107 436 l 1
 126 529 l 1
 196 529 l 1
 227 674 l 1
 367 674 l 1
 336 529 l 1
 414 529 l 1
114 -60 m 1
 236 -60 l 1
 215 -156 l 1
 205 -234 138 -301 62 -307 c 1
 72 -261 l 1
 116 -253 151 -217 157 -172 c 1
 90 -172 l 1
 114 -60 l 1
EndSplineSet
EndChar
StartChar: circumflex
Encoding: 710 710 322
Width: 333
Flags: W
Fore
274 757 m 1
 382 757 l 1
 453 610 l 1
 375 610 l 1
 314 707 l 1
 211 610 l 1
 135 610 l 1
 274 757 l 1
EndSplineSet
EndChar
StartChar: caron
Encoding: 711 711 323
Width: 333
Flags: W
Fore
346 610 m 1
 238 610 l 1
 167 757 l 1
 245 757 l 1
 306 660 l 1
 409 757 l 1
 485 757 l 1
 346 610 l 1
EndSplineSet
EndChar
StartChar: breve
Encoding: 728 728 324
Width: 333
Flags: W
HStem: 611 78<262.5 335.5>
VStem: 188 48<684 754>
Fore
413 754 m 1
 455 754 l 1
 441 672 373 611 294 611 c 0
 231 611 188 653 188 715 c 0
 188 727 189 736 194 754 c 1
 236 754 l 1
 236 746 l 2
 236 710 263 689 310 689 c 0
 361 689 396 711 413 754 c 1
EndSplineSet
EndChar
StartChar: dotaccent
Encoding: 729 729 325
Width: 333
Flags: W
HStem: 721 20G<267 377>
Fore
377 741 m 1
 351 621 l 1
 241 621 l 1
 267 741 l 1
 377 741 l 1
EndSplineSet
EndChar
StartChar: ring
Encoding: 730 730 326
Width: 333
Flags: W
HStem: 593 50<265 315> 723 50<297 347>
VStem: 214 49<643.5 692.5> 349 49<673.5 722.5>
Fore
326 773 m 0
 368 773 398 743 398 702 c 0
 398 645 344 593 286 593 c 0
 244 593 214 623 214 664 c 0
 214 721 268 773 326 773 c 0
316 723 m 0
 289 723 263 700 263 675 c 0
 263 657 277 643 297 643 c 0
 324 643 349 667 349 692 c 0
 349 710 335 723 316 723 c 0
EndSplineSet
EndChar
StartChar: ogonek
Encoding: 731 731 327
Width: 333
Flags: W
HStem: -233 50<115.5 186> -20 20G<174 248>
VStem: 23 100<-180.5 -105.5>
Fore
23 -157 m 0
 23 -89 73 -42 174 0 c 1
 248 0 l 1
 217 -18 123 -68 123 -143 c 0
 123 -169 140 -183 173 -183 c 0
 199 -183 224 -179 244 -172 c 1
 234 -224 l 1
 202 -230 181 -233 157 -233 c 0
 74 -233 23 -204 23 -157 c 0
EndSplineSet
EndChar
StartChar: tilde
Encoding: 732 732 328
Width: 333
Flags: W
HStem: 622 71<358.5 403.5> 672 69<211 250.5>
Fore
500 744 m 1x80
 475 654 420 622 367 622 c 0x80
 350 622 329 627 316 633 c 2
 266 658 l 2
 251 665 230 672 222 672 c 0
 204 672 188 657 171 624 c 1
 117 624 l 1
 140 699 184 741 238 741 c 0x40
 263 741 277 738 309 724 c 2
 359 703 l 2
 378 694 380 693 392 693 c 0
 415 693 432 710 446 744 c 1
 500 744 l 1x80
EndSplineSet
EndChar
StartChar: hungarumlaut
Encoding: 733 733 329
Width: 333
Flags: W
Fore
310 757 m 1
 152 610 l 1
 82 610 l 5
 184 757 l 1
 310 757 l 1
498 757 m 1
 340 610 l 1
 270 610 l 1
 372 757 l 1
 498 757 l 1
EndSplineSet
EndChar
StartChar: uni030F
Encoding: 783 783 341
Width: 0
Flags: W
Fore
-64 757 m 1
 55 757 l 1
 100 607 l 1
 37 607 l 1
 -64 757 l 1
-252 757 m 1
 -133 757 l 1
 -88 607 l 1
 -151 607 l 1
 -252 757 l 1
EndSplineSet
EndChar
StartChar: uni0313
Encoding: 787 787 343
Width: 0
Flags: W
HStem: 583 42<-219 -191> 670 70<-185 -159>
Fore
-185 740 m 1
 -78 740 l 1
 -93 671 l 2
 -105 614 -163 583 -219 583 c 1
 -210 625 l 1
 -207 625 l 0
 -188 625 -169 626 -159 670 c 1
 -200 670 l 1
 -185 740 l 1
EndSplineSet
EndChar
StartChar: uni0374
Encoding: 884 884 345
Width: 208
Flags: W
Fore
172 706 m 1
 40 575 l 1
 25 649 l 1
 113 789 l 1
 172 706 l 1
EndSplineSet
EndChar
StartChar: uni037A
Encoding: 890 890 347
Width: 364
Flags: W
HStem: -253 37<163 261.5>
Fore
247 -216 m 0
 276 -216 270 -210 281 -192 c 1
 306 -192 l 1
 293 -252 242 -253 184 -253 c 0
 142 -253 124 -235 124 -202 c 0
 124 -193 125 -184 127 -174 c 2
 163 -76 l 1
 266 -76 l 1
 253 -141 233 -183 233 -203 c 0
 233 -212 237 -216 247 -216 c 0
EndSplineSet
EndChar
StartChar: Kappa
Encoding: 922 922 349
Width: 744
Flags: W
HStem: 721 20G<145 289 607 799>
Fore
621 -25 m 1
 432 -25 l 1
 271 323 l 1
 163 237 l 1
 98 -25 l 1
 -46 -25 l 1
 145 741 l 1
 289 741 l 1
 209 423 l 1
 607 741 l 1
 799 741 l 1
 401 423 l 1
 621 -25 l 1
EndSplineSet
EndChar
StartChar: Lambda
Encoding: 923 923 350
Width: 744
Flags: W
HStem: 721 20G<363 498>
Fore
620 -25 m 1
 460 -25 l 1
 392 483 l 2
 380 574 378 606 377 635 c 1
 427 638 l 1
 412 597 390 561 352 496 c 2
 32 -25 l 1
 -123 -25 l 1
 363 741 l 1
 498 741 l 1
 620 -25 l 1
EndSplineSet
EndChar
StartChar: Mu
Encoding: 924 924 351
Width: 860
Flags: W
HStem: 721 20G<135 322 698 869>
Fore
678 -25 m 1
 536 -25 l 1
 654 451 l 1
 371 -25 l 1
 249 -25 l 1
 206 457 l 1
 86 -25 l 1
 -56 -25 l 1
 135 741 l 1
 322 741 l 1
 365 219 l 2
 366 208 372 146 372 145 c 2
 372 141 l 1
 373 143 374 162 375 197 c 1
 698 741 l 1
 869 741 l 1
 678 -25 l 1
EndSplineSet
EndChar
StartChar: Nu
Encoding: 925 925 352
Width: 714
Flags: W
HStem: 721 20G<127 264 601 741>
Fore
550 -25 m 1
 415 -25 l 1
 203 479 l 1
 78 -25 l 1
 -64 -25 l 1
 127 741 l 1
 264 741 l 1
 475 237 l 1
 601 741 l 1
 741 741 l 1
 550 -25 l 1
EndSplineSet
EndChar
StartChar: Xi
Encoding: 926 926 353
Width: 690
Flags: W
HStem: -25 134<-17 534> 301 134<126 543> 607 134<141 675>
Fore
675 607 m 1
 107 607 l 1
 141 741 l 1
 709 741 l 1
 675 607 l 1
543 301 m 1
 93 301 l 1
 126 435 l 1
 576 435 l 1
 543 301 l 1
534 -25 m 1
 -50 -25 l 1
 -17 109 l 1
 567 109 l 1
 534 -25 l 1
EndSplineSet
EndChar
StartChar: Omicron
Encoding: 927 927 354
Width: 822
Flags: W
HStem: -51 132<172 447.5> 631 132<326.5 601>
VStem: 1 149<163 299.5> 624 148<410 549>
Fore
488 763 m 0
 714 763 772 607 772 491 c 0
 772 329 693 155 577 58 c 0
 491 -15 394 -51 285 -51 c 0
 59 -51 1 105 1 221 c 0
 1 378 75 553 196 654 c 0
 281 727 379 763 488 763 c 0
150 244 m 0
 150 114 250 81 318 81 c 0
 577 81 624 395 624 468 c 0
 624 598 524 631 455 631 c 0
 198 631 150 321 150 244 c 0
EndSplineSet
EndChar
StartChar: Pi
Encoding: 928 928 355
Width: 781
Flags: W
HStem: 607 134<151 761>
Fore
570 -25 m 1
 426 -25 l 1
 583 607 l 1
 261 607 l 1
 104 -25 l 1
 -40 -25 l 1
 151 741 l 1
 761 741 l 1
 570 -25 l 1
EndSplineSet
EndChar
StartChar: Rho
Encoding: 929 929 356
Width: 698
Flags: W
HStem: 721 20G<149 444>
Fore
695 574 m 0
 695 519 664 364 510 298 c 0
 461 277 402 267 334 267 c 2
 175 267 l 1
 102 -25 l 1
 -42 -25 l 1
 149 741 l 1
 444 741 l 2
 524 741 607 740 655 686 c 0
 685 654 695 616 695 574 c 0
369 401 m 2
 517 401 543 482 543 540 c 0
 543 594 516 607 418 607 c 2
 259 607 l 1
 208 401 l 1
 369 401 l 2
EndSplineSet
EndChar
StartChar: Sigma
Encoding: 931 931 357
Width: 688
Flags: W
HStem: -25 134<139 535> 723 20G<144 706>
Fore
535 -25 m 1
 -81 -25 l 1
 -51 98 l 1
 250 386 l 1
 115 625 l 1
 144 743 l 1
 706 743 l 1
 673 609 l 1
 305 609 l 1
 323 573 319 585 330 564 c 2
 431 386 l 1
 139 109 l 1
 568 109 l 1
 535 -25 l 1
EndSplineSet
EndChar
StartChar: Tau
Encoding: 932 932 358
Width: 688
Flags: W
HStem: 721 20G<110 728>
Fore
694 607 m 1
 456 607 l 1
 299 -25 l 1
 155 -25 l 1
 312 607 l 1
 76 607 l 1
 110 741 l 1
 728 741 l 1
 694 607 l 1
EndSplineSet
EndChar
StartChar: Upsilon
Encoding: 933 933 359
Width: 744
Flags: W
HStem: 721 20G<63 238 642 814>
Fore
814 741 m 1
 394 296 l 1
 314 -25 l 1
 170 -25 l 1
 250 296 l 1
 63 741 l 1
 238 741 l 1
 330 514 l 1
 345 473 356 445 361 429 c 1
 452 536 548 637 642 741 c 1
 814 741 l 1
EndSplineSet
EndChar
StartChar: Phi
Encoding: 934 934 360
Width: 777
Flags: W
HStem: 725 20G<389 520>
VStem: -9 146<209 350> 577 145<353 493>
Fore
499 662 m 1
 647 652 722 551 722 435 c 0
 722 271 582 63 347 49 c 1
 329 -25 l 1
 196 -25 l 1
 214 49 l 1
 72 58 -9 149 -9 269 c 0
 -9 431 130 647 368 662 c 1
 389 745 l 1
 520 745 l 1
 499 662 l 1
378 171 m 1
 508 200 577 311 577 407 c 0
 577 484 521 523 469 536 c 1
 378 171 l 1
336 536 m 1
 195 505 137 393 137 303 c 0
 137 224 190 184 245 171 c 1
 336 536 l 1
EndSplineSet
EndChar
StartChar: Chi
Encoding: 935 935 361
Width: 783
Flags: W
HStem: 721 20G<110 283 647 813>
Fore
397 492 m 1
 399 494 403 500 405 500 c 1
 647 741 l 1
 813 741 l 1
 451 378 l 1
 641 -25 l 1
 462 -25 l 1
 339 242 l 1
 333 258 l 1
 343 268 l 2
 343 269 343 269 344 270 c 2
 335 259 l 2
 326 250 317 239 313 235 c 2
 61 -25 l 1
 -116 -25 l 1
 280 374 l 1
 110 741 l 1
 283 741 l 1
 372 547 l 2
 377 533 397 503 397 492 c 1
EndSplineSet
EndChar
StartChar: Psi
Encoding: 936 936 362
Width: 805
Flags: W
HStem: 723 20G<400 536>
VStem: 18 146<220.5 333.5>
Fore
164 326 m 0
 164 280 187 254 277 254 c 2
 278 254 l 1
 400 743 l 1
 536 743 l 1
 414 254 l 1
 415 254 l 2
 518 254 559 285 584 380 c 2
 674 742 l 1
 815 746 l 1
 721 368 l 2
 657 117 455 121 384 121 c 1
 385 121 l 1
 348 -27 l 1
 204 -27 l 1
 241 121 l 1
 242 121 l 1
 103 121 18 153 18 288 c 0
 18 312 22 339 29 368 c 2
 123 746 l 1
 262 742 l 1
 172 380 l 2
 167 359 164 341 164 326 c 0
EndSplineSet
EndChar
StartChar: Omega
Encoding: 937 937 363
Width: 780
Flags: W
HStem: -25 126<-79 235 544 631> 621 126<326.5 574.5>
VStem: 11 139<232 369> 600 144<334.5 536>
Fore
744 475 m 0
 744 325 669 183 544 101 c 1
 662 101 l 1
 631 -25 l 1
 307 -25 l 1
 337 96 l 1
 411 124 600 223 600 446 c 0
 600 518 567 621 433 621 c 0
 265 621 150 433 150 285 c 0
 150 179 203 127 265 97 c 1
 235 -25 l 1
 -79 -25 l 1
 -48 101 l 1
 74 101 l 1
 29 151 11 206 11 271 c 0
 11 467 191 747 462 747 c 0
 687 747 744 597 744 475 c 0
EndSplineSet
EndChar
StartChar: alpha
Encoding: 945 945 371
Width: 656
Flags: W
HStem: -11 122<137 305.5> 432 120<206 350>
VStem: 11 135<104 224>
Fore
233 111 m 0
 378 111 403 300 403 338 c 0
 403 411 370 432 319 432 c 0
 181 432 146 250 146 198 c 0
 146 146 168 111 233 111 c 0
430 -12 m 0
 414 -12 376 -6 358 31 c 1
 312 4 260 -11 203 -11 c 0
 71 -11 11 50 11 158 c 0
 11 237 62 552 350 552 c 0
 407 550 447 542 482 502 c 1
 493 543 l 1
 615 543 l 1
 504 119 l 1
 502 113 l 1
 542 136 l 1
 548 20 l 1
 497 -1 458 -12 430 -12 c 0
EndSplineSet
EndChar
StartChar: beta
Encoding: 946 946 372
Width: 576
Flags: W
HStem: -22 117<179 340.5> 311 117<216 345.5> 616 115<256.5 445.5>
Fore
524 266 m 0
 524 205 463 -22 218 -22 c 0
 140 -22 109 -3 88 12 c 1
 32 -197 l 1
 -107 -197 l 1
 74 478 l 2
 91 540 141 731 372 731 c 0
 519 731 557 653 557 592 c 0
 557 549 539 451 444 389 c 1
 443 389 443 389 442 388 c 1
 507 360 524 311 524 266 c 0
232 95 m 0
 356 95 378 214 378 245 c 0
 378 271 361 311 261 311 c 2
 185 311 l 1
 216 428 l 1
 285 428 l 2
 406 428 427 531 427 558 c 0
 427 604 382 616 354 616 c 0
 238 616 222 510 212 475 c 2
 127 155 l 1
 138 94 210 95 232 95 c 0
EndSplineSet
EndChar
StartChar: gamma
Encoding: 947 947 373
Width: 591
Flags: W
HStem: 522 20G<510 650>
Fore
650 542 m 1
 326 48 l 1
 264 -193 l 1
 129 -193 l 1
 192 47 l 1
 135 379 l 1
 133 405 130 422 127 431 c 0
 127 432 126 433 125 433 c 0
 120 433 103 428 74 418 c 1
 91 518 l 2
 95 537 135 554 166 554 c 0
 231 554 258 536 268 452 c 2
 301 218 l 1
 510 542 l 1
 650 542 l 1
EndSplineSet
EndChar
StartChar: delta
Encoding: 948 948 374
Width: 620
Flags: W
HStem: -5 123<87 289.5> 704 20G<143 596>
VStem: -33 148<132.5 232> 399 144<287.5 405>
Fore
209 118 m 0
 370 118 399 276 399 320 c 0
 399 378 366 412 294 412 c 0
 152 412 115 252 115 204 c 0
 115 147 146 118 209 118 c 0
-33 166 m 0
 -33 298 55 483 247 517 c 1
 116 622 l 1
 143 724 l 1
 596 724 l 1
 565 611 l 1
 346 611 l 1
 439 535 l 2
 469 509 543 458 543 352 c 0
 543 223 458 71 341 24 c 0
 295 4 239 -5 175 -5 c 0
 -1 -5 -33 99 -33 166 c 0
EndSplineSet
EndChar
StartChar: epsilon
Encoding: 949 949 375
Width: 570
Flags: W
HStem: -10 114<108 263.5> 219 104<207.5 306> 438 114<243 337>
VStem: -30 142<68 156>
CounterMasks: 1 00
Fore
204 104 m 0
 323 104 345 153 354 176 c 1
 484 176 l 1
 417 15 301 -10 177 -10 c 0
 39 -10 -30 29 -30 107 c 0
 -30 205 45 254 75 271 c 1
 60 282 34 302 34 348 c 0
 34 432 91 549 328 552 c 2
 337 552 l 2
 495 552 537 496 537 405 c 0
 537 393 536 380 535 366 c 1
 405 366 l 1
 406 370 406 374 406 377 c 0
 406 412 378 438 294 438 c 0
 192 438 173 398 173 372 c 0
 173 340 191 323 262 323 c 2
 335 323 l 1
 306 219 l 1
 234 219 l 2
 181 219 137 215 112 157 c 0
 111 153 112 149 112 147 c 0
 112 118 142 104 204 104 c 0
EndSplineSet
EndChar
StartChar: zeta
Encoding: 950 950 376
Width: 522
Flags: W
HStem: -34 20G<198.5 236> 616 119<147 294>
VStem: -14 155<90.5 247>
Fore
-14 160 m 0
 -14 234 47 453 294 616 c 1
 116 616 l 1
 147 735 l 1
 565 735 l 1
 539 638 l 1
 243 500 141 290 141 204 c 0
 141 102 271 115 325 102 c 0
 344 99 400 85 400 13 c 0
 400 -31 378 -87 297 -205 c 1
 181 -160 l 1
 235 -90 258 -57 258 -31 c 0
 258 -17 250 -14 222 -14 c 0
 175 -14 -14 21 -14 160 c 0
EndSplineSet
EndChar
StartChar: eta
Encoding: 951 951 377
Width: 586
Flags: W
HStem: 429 126<329.5 485>
Fore
182 556 m 0
 238 556 251 509 252 494 c 1
 261 505 l 2
 281 525 354 555 416 555 c 0
 554 555 578 473 578 419 c 0
 578 397 574 373 561 320 c 2
 427 -215 l 1
 299 -177 l 1
 422 316 l 2
 428 340 431 359 431 374 c 0
 431 405 415 429 367 429 c 0
 292 429 242 381 218 284 c 2
 141 -25 l 1
 3 -25 l 1
 112 414 l 2
 117 424 117 424 118 426 c 1
 117 426 105 423 80 418 c 1
 87 536 l 1
 126 549 158 556 182 556 c 0
EndSplineSet
EndChar
StartChar: theta
Encoding: 952 952 378
Width: 586
Flags: W
HStem: -12 116<98.5 250> 617 114<214.5 440>
VStem: -15 137<111.5 226> 414 134<511 553>
Fore
368 731 m 0
 512 731 546 629 548 549 c 2
 548 535 l 2
 548 427 483 116 315 24 c 0
 270 0 221 -12 167 -12 c 0
 30 -12 -15 59 -15 164 c 0
 -15 288 61 731 368 731 c 0
414 526 m 0
 414 580 403 617 337 617 c 0
 266 617 211 554 170 424 c 1
 400 424 l 1
 409 462 414 496 414 526 c 0
122 192 m 0
 122 122 158 104 199 104 c 0
 301 104 343 224 369 309 c 1
 140 309 l 1
 128 262 122 212 122 192 c 0
EndSplineSet
EndChar
StartChar: iota
Encoding: 953 953 379
Width: 346
Flags: W
HStem: -16 21G<80.5 122> 525 20G<101 242>
Fore
137 131 m 0
 137 124 142 117 150 117 c 2
 155 117 l 2
 165 118 187 126 223 142 c 1
 239 15 l 1
 183 -5 138 -16 106 -16 c 0
 55 -16 -12 4 -12 86 c 0
 -12 103 -10 123 -4 145 c 0
 101 545 l 1
 242 545 l 1
 141 162 l 2
 138 146 137 147 137 143 c 0
 137 141 137 134 137 131 c 0
EndSplineSet
EndChar
StartChar: kappa
Encoding: 954 954 380
Width: 576
Flags: W
HStem: -14 21G<-27 110 303 470> 523 20G<113 250 420 604>
Fore
470 -14 m 1
 303 -14 l 1
 204 233 l 1
 165 203 l 1
 110 -14 l 1
 -27 -14 l 1
 113 543 l 1
 250 543 l 1
 207 372 l 1
 420 543 l 1
 604 543 l 1
 326 327 l 1
 470 -14 l 1
EndSplineSet
EndChar
StartChar: lambda
Encoding: 955 955 381
Width: 620
Flags: W
HStem: -5 21G<339.5 390.5> 605 127<169.5 291>
Fore
437 119 m 0
 451 119 467 128 494 139 c 1
 498 29 l 1
 445 6 404 -5 377 -5 c 0
 302 -5 305 43 296 82 c 2
 267 302 l 1
 265 313 264 324 263 335 c 1
 46 6 l 1
 -106 6 l 1
 241 512 l 1
 240 524 l 2
 237 591 219 605 184 605 c 0
 155 605 140 598 97 594 c 1
 146 714 l 1
 183 726 211 732 230 732 c 0
 352 732 362 641 376 529 c 2
 426 148 l 1
 433 123 l 2
 434 121 436 119 437 119 c 0
EndSplineSet
EndChar
StartChar: uni03BC
Encoding: 956 956 382
Width: 667
Flags: W
HStem: -12 119<217 312> 523 20G<147 285 493 629>
Fore
198 189 m 0
 198 158 215 107 280 107 c 0
 344 107 373 149 389 170 c 0
 392 173 393 175 393 176 c 1
 402 191 405 201 410 221 c 2
 493 543 l 1
 629 543 l 1
 532 167 l 2
 526 144 523 128 523 119 c 2
 523 118 l 1
 517 118 514 119 514 121 c 2
 514 122 l 1
 542 109 l 1
 558 33 l 1
 536 21 499 -2 464 -2 c 0
 417 -2 393 18 387 43 c 1
 349 9 296 -12 246 -12 c 0
 188 -12 165 8 149 19 c 1
 94 -194 l 1
 -44 -194 l 1
 147 543 l 1
 285 543 l 1
 202 221 l 2
 199 210 198 199 198 189 c 0
EndSplineSet
EndChar
StartChar: nu
Encoding: 957 957 383
Width: 564
Flags: W
HStem: -9 21G<122 238> 522 20G<48 194 450 594>
Fore
450 542 m 1
 594 542 l 1
 238 -9 l 1
 122 -9 l 1
 48 542 l 1
 194 542 l 1
 235 205 l 1
 450 542 235 205 450 542 c 1
EndSplineSet
EndChar
StartChar: xi
Encoding: 958 958 384
Width: 530
Flags: W
HStem: -17 117<180 290> 313 111<217.5 424> 612 116<134 526>
VStem: -34 141<99 203.5>
Fore
222 100 m 0
 358 100 398 85 398 12 c 0
 398 -33 375 -95 296 -212 c 1
 188 -168 l 1
 205 -141 264 -49 264 -28 c 0
 264 -19 251 -17 199 -17 c 2
 180 -17 l 2
 0 -17 -34 68 -34 130 c 0
 -34 277 86 348 139 374 c 1
 113 391 96 427 96 463 c 0
 96 552 147 590 164 612 c 1
 104 612 l 1
 134 728 l 1
 556 728 l 1
 526 612 l 1
 335 612 l 2
 286 612 225 538 225 490 c 0
 225 462 243 424 345 424 c 2
 452 424 l 1
 424 313 l 1
 289 313 l 2
 146 313 107 208 107 176 c 0
 107 129 158 100 222 100 c 0
EndSplineSet
EndChar
StartChar: omicron
Encoding: 959 959 385
Width: 610
Flags: W
HStem: -10 118<151.5 343> 436 116<197 396>
VStem: -14 147<103 229.5> 415 149<321 443>
Fore
564 370 m 0
 564 275 488 -10 198 -10 c 0
 105 -10 -14 28 -14 178 c 0
 -14 258 45 552 349 552 c 0
 443 552 564 516 564 370 c 0
230 108 m 0
 386 108 415 299 415 343 c 0
 413 384 396 436 318 436 c 0
 171 436 133 256 133 203 c 0
 133 164 148 108 230 108 c 0
EndSplineSet
EndChar
StartChar: pi
Encoding: 960 960 386
Width: 721
Flags: W
HStem: 525 20G<100 702>
VStem: 528 3<88 89>
Fore
472 -29 m 0
 405 -29 382 -0 382 47 c 0
 382 66 385 88 392 114 c 0
 470 425 l 1
 284 425 l 1
 172 -24 l 1
 27 -28 l 1
 141 425 l 1
 71 425 l 1
 100 545 l 1
 702 545 l 1
 672 425 l 1
 608 425 l 1
 531 116 l 1
 528 102 526 93 526 88 c 2
 526 86 l 1
 528 88 l 2
 528 89 528 89 529 89 c 2
 531 89 l 1
 531 88 531 88 532 88 c 1
 582 119 l 1
 583 -1 l 1
 519 -22 496 -29 472 -29 c 0
EndSplineSet
EndChar
StartChar: rho
Encoding: 961 961 387
Width: 626
Flags: W
HStem: -35 124<211.5 351> 435 122<292 478.5>
VStem: 461 143<305 402.5>
Fore
395 557 m 0
 562 557 604 443 604 362 c 0
 604 248 549 113 463 44 c 0
 405 -5 329 -35 247 -35 c 0
 176 -35 146 -10 129 2 c 1
 73 -225 l 1
 -65 -225 l 1
 58 270 l 2
 111 483 267 557 395 557 c 0
278 89 m 0
 424 89 461 280 461 331 c 0
 461 414 404 435 364 435 c 0
 220 435 184 247 184 189 c 0
 184 109 237 89 278 89 c 0
EndSplineSet
EndChar
StartChar: sigma1
Encoding: 962 962 388
Width: 595
Flags: W
HStem: 433 128<266.5 417.5>
VStem: 426 144<352.5 458.5>
Fore
375 561 m 0
 460 561 570 527 570 390 c 0
 570 363 566 332 558 299 c 1
 417 299 l 1
 423 323 426 344 426 361 c 0
 426 399 408 433 335 433 c 0
 198 433 161 271 161 225 c 0
 161 164 215 121 302 117 c 0
 442 105 481 78 481 14 c 0
 481 -32 457 -76 447 -93 c 2
 371 -214 l 1
 243 -165 l 1
 272 -124 300 -80 327 -34 c 1
 327 -31 321 -30 310 -30 c 0
 172 -15 154 -25 77 42 c 0
 26 86 12 162 12 197 c 0
 12 259 45 447 226 528 c 0
 273 550 323 561 375 561 c 0
EndSplineSet
EndChar
StartChar: sigma
Encoding: 963 963 389
Width: 676
Flags: W
HStem: -37 124<157 341.5> 433 122<201 358.5>
VStem: -4 143<82 215> 413 140<297 352.5>
Fore
-4 161 m 0
 -4 242 53 555 349 555 c 0
 368 555 385 551 400 551 c 0
 687 551 l 1
 654 419 l 1
 540 419 l 1
 549 394 553 367 553 338 c 0
 553 256 481 -37 202 -37 c 0
 112 -37 -4 3 -4 161 c 0
233 87 m 0
 385 87 413 288 413 335 c 0
 411 378 394 433 319 433 c 0
 176 433 139 243 139 187 c 0
 139 102 195 87 233 87 c 0
EndSplineSet
EndChar
StartChar: tau
Encoding: 964 964 390
Width: 592
Flags: W
HStem: 523 20G<88 590>
Fore
257 -29 m 0
 157 -29 139 23 139 62 c 0
 139 94 148 125 153 144 c 2
 223 425 l 1
 59 425 l 1
 88 543 l 1
 590 543 l 1
 561 425 l 1
 361 425 l 1
 293 152 l 2
 288 131 285 118 285 114 c 1
 288 106 293 105 306 105 c 0
 309 105 312 105 314 106 c 0
 319 106 334 109 361 115 c 1
 359 -13 l 1
 288 -28 279 -29 257 -29 c 0
EndSplineSet
EndChar
StartChar: upsilon
Encoding: 965 965 391
Width: 575
Flags: W
HStem: -39 126<155.5 279.5> 523 20G<87 225 437 575>
Fore
132 139 m 0
 135 90 185 87 219 87 c 0
 329 87 339 152 360 232 c 2
 437 543 l 1
 575 543 l 1
 489 198 l 2
 450 39 370 -39 189 -39 c 0
 122 -39 77 -31 52 -15 c 0
 16 11 -14 29 -14 97 c 2
 -14 102 l 2
 -14 125 -9 157 1 198 c 2
 87 543 l 1
 225 543 l 1
 148 232 l 2
 138 191 133 160 132 139 c 0
EndSplineSet
EndChar
StartChar: phi
Encoding: 966 966 392
Width: 801
Flags: W
HStem: -35 131<214.5 297 404 514.5> 407 140<506 612>
VStem: 34 139<90.5 258.5> 616 138<218.5 372.5>
Fore
429 96 m 1
 471 96 616 139 616 298 c 0
 616 385 550 407 506 407 c 1
 429 96 l 1
262 -35 m 1
 167 -35 34 7 34 174 c 0
 34 254 73 421 272 528 c 1
 326 424 l 1
 241 373 173 300 173 217 c 0
 173 146 220 96 297 96 c 1
 409 547 l 1
 517 547 l 2
 707 547 754 418 754 327 c 0
 754 178 625 -35 404 -35 c 2
 397 -35 l 1
 350 -225 l 1
 212 -225 l 1
 259 -35 l 1
 262 -35 l 1
EndSplineSet
EndChar
StartChar: chi
Encoding: 967 967 393
Width: 632
Flags: W
HStem: 523 20G<534 687>
Fore
503 -217 m 1
 470 -230 443 -237 422 -237 c 2
 414 -237 l 2
 369 -237 325 -209 303 -134 c 2
 264 24 l 1
 35 -225 l 1
 -129 -225 l 1
 218 161 l 1
 138 408 l 2
 129 432 127 433 111 433 c 0
 100 430 82 429 58 429 c 1
 89 554 l 1
 123 559 141 561 144 561 c 0
 161 562 171 563 172 563 c 0
 250 563 267 510 273 491 c 2
 333 287 l 1
 534 543 l 1
 687 543 l 1
 383 160 l 1
 448 -79 l 2
 456 -100 458 -102 473 -102 c 0
 476 -102 481 -101 486 -100 c 0
 490 -100 507 -95 536 -84 c 1
 503 -217 l 1
EndSplineSet
EndChar
StartChar: psi
Encoding: 968 968 394
Width: 722
Flags: W
HStem: 523 20G<112 252 600 740>
VStem: 20 147<73.5 180.5>
Fore
217 -26 m 1
 138 -23 20 7 20 140 c 0
 20 163 23 187 30 214 c 0
 112 543 l 1
 252 543 l 1
 177 242 l 2
 170 214 167 190 167 171 c 0
 167 113 209 102 247 98 c 1
 354 525 l 1
 490 525 l 1
 383 98 l 1
 416 101 494 108 525 242 c 2
 600 543 l 1
 740 543 l 1
 658 214 l 2
 631 106 548 -18 353 -26 c 1
 303 -225 l 1
 167 -225 l 1
 217 -26 l 1
EndSplineSet
EndChar
StartChar: omega
Encoding: 969 969 395
Width: 800
Flags: W
HStem: -34 122<89 185 428 520.5>
VStem: -7 136<99.5 233.5> 600 136<317 358.5>
Fore
670 555 m 1
 692 532 733 476 736 355 c 2
 736 341 l 2
 736 201 663 47 540 -12 c 0
 510 -27 477 -34 441 -34 c 0
 415 -34 345 -29 313 34 c 1
 267 -12 212 -34 153 -34 c 0
 25 -34 -7 62 -7 137 c 2
 -7 143 l 2
 -7 325 138 504 217 554 c 1
 336 513 l 1
 224 417 129 304 129 163 c 0
 129 118 140 88 185 88 c 0
 221 90 216 87 244 107 c 0
 261 120 272 136 276 153 c 2
 338 401 l 1
 472 401 l 1
 410 153 l 2
 409 148 408 142 408 137 c 0
 408 87 455 89 468 88 c 0
 573 88 598 267 600 317 c 0
 600 400 575 445 531 512 c 1
 670 555 l 1
EndSplineSet
EndChar
StartChar: afii10051
Encoding: 1026 1026 403
Width: 790
Flags: W
HStem: -163 93<393 468> 0 21G<142 293> 709 20G<109 631>
Fore
587 504 m 2
 697 504 770 439 770 356 c 0
 770 341 768 329 767 323 c 2
 698 0 l 1
 680 -54 665 -120 577 -146 c 4
 492 -171 493 -163 443 -163 c 4
 373 -164 l 5
 393 -70 l 5
 453 -70 l 5
 502 -69 537 -52 548 0 c 0
 615 317 l 2
 616 322 617 327 617 332 c 0
 617 355 602 370 573 376 c 1
 549 379 l 1
 374 379 l 1
 293 0 l 1
 142 0 l 1
 271 605 l 1
 83 605 l 1
 109 729 l 1
 631 729 l 1
 605 605 l 1
 421 605 l 1
 399 504 l 1
 587 504 l 2
EndSplineSet
EndChar
StartChar: afii10053
Encoding: 1028 1028 405
Width: 722
Flags: W
HStem: -23 126<209.5 383.5> 311 125<186 478> 613 128<356 534.5>
VStem: 31 152<160 271.5>
Fore
565 482 m 1
 563 550 543 613 437 613 c 0
 340 613 257 548 213 436 c 1
 504 436 l 1
 478 311 l 1
 186 311 l 1
 184 295 183 279 183 264 c 0
 183 161 232 103 324 103 c 0
 417 103 487 156 516 249 c 1
 662 249 l 1
 617 82 474 -23 293 -23 c 0
 126 -23 31 77 31 243 c 0
 31 279 35 317 44 358 c 0
 94 594 253 741 459 741 c 0
 610 741 712 659 712 535 c 0
 712 519 711 502 708 482 c 1
 565 482 l 1
EndSplineSet
EndChar
StartChar: afii10056
Encoding: 1031 1031 408
Width: 278
Flags: W
HStem: 0 21G<63 213> 709 20G<218 368> 800 120<187 271 373 457>
Fore
368 729 m 1
 213 0 l 1
 63 0 l 1
 218 729 l 1
 368 729 l 1
297 920 m 1
 271 800 l 1
 161 800 l 1
 187 920 l 1
 297 920 l 1
483 920 m 1
 457 800 l 1
 347 800 l 1
 373 920 l 1
 483 920 l 1
EndSplineSet
EndChar
StartChar: afii10058
Encoding: 1033 1033 410
Width: 1110
Flags: W
HStem: 0 145<-31 73> 0 125<606 812> 309 126<802 929.5> 709 20G<212 734>
VStem: 883 152<157 300.5>
Fore
859 435 m 2xb8
 1000 435 1035 339 1035 262 c 0
 1035 52 872 0 752 0 c 2
 430 0 l 1x78
 558 604 l 1
 336 604 l 1
 296 414 l 2
 257 235 177 0 -31 0 c 1
 -1 145 l 1
 -0 145 0 145 0 145 c 0
 96 145 142 398 156 461 c 2
 212 729 l 1
 734 729 l 1
 672 435 l 1
 859 435 l 2xb8
766 125 m 0
 832 125 883 134 883 234 c 0
 883 280 856 305 803 309 c 2
 802 309 l 1
 801 310 l 1
 645 310 l 1
 606 125 l 1
 746 125 l 2
 753 125 760 125 766 125 c 0
EndSplineSet
EndChar
StartChar: afii10059
Encoding: 1034 1034 411
Width: 1088
Flags: W
HStem: 0 125<606 839> 344 125<653 866> 709 20G<145 295 583 734>
VStem: 890 153<206.5 348.5>
Fore
1043 294 m 0
 1043 119 926 0 752 0 c 2
 430 0 l 1
 496 311 l 1
 207 311 l 1
 141 0 l 1
 -9 0 l 1
 145 729 l 1
 295 729 l 1
 233 436 l 1
 521 436 l 1
 583 729 l 1
 734 729 l 1
 679 469 l 1
 866 469 l 2
 978 469 1043 403 1043 294 c 0
746 125 m 2
 861 125 890 209 890 270 c 0
 890 320 859 344 793 344 c 2
 653 344 l 1
 606 125 l 1
 746 125 l 2
EndSplineSet
EndChar
StartChar: afii10060
Encoding: 1035 1035 412
Width: 790
Flags: W
HStem: 0 21G<125 276 531 681> 709 20G<91 613>
Fore
570 504 m 2
 680 504 753 439 753 356 c 0
 753 341 751 329 749 323 c 2
 681 0 l 1
 531 0 l 1
 598 317 l 2
 599 322 600 327 600 332 c 0
 600 355 585 370 555 376 c 1
 531 379 l 1
 356 379 l 1
 276 0 l 1
 125 0 l 1
 253 605 l 1
 65 605 l 1
 91 729 l 1
 613 729 l 1
 587 605 l 1
 403 605 l 1
 382 504 l 1
 570 504 l 2
EndSplineSet
EndChar
StartChar: afii10145
Encoding: 1039 1039 416
Width: 722
Flags: W
HStem: 0 125<68 657> 709 20G<223 373 662 812>
Fore
245 125 m 1
 534 125 l 1
 662 729 l 1
 812 729 l 1
 657 0 l 1
 68 0 l 1
 223 729 l 1
 373 729 l 1
 245 125 l 1
EndSplineSet
EndChar
StartChar: afii10018
Encoding: 1041 1041 418
Width: 722
Flags: W
HStem: 0 125<259 492> 709 20G<237 749>
VStem: 572 143<213.5 291>
Fore
488 439 m 2
 674 439 715 330 715 252 c 0
 715 175 666 96 605 53 c 0
 553 16 494 0 410 0 c 2
 82 0 l 1
 237 729 l 1
 749 729 l 1
 722 604 l 1
 360 604 l 1
 325 439 l 1
 488 439 l 2
438 125 m 2
 546 125 572 198 572 245 c 0
 572 290 540 314 478 314 c 2
 299 314 l 1
 259 125 l 1
 438 125 l 2
EndSplineSet
EndChar
StartChar: afii10020
Encoding: 1043 1043 420
Width: 611
Flags: W
HStem: 0 21G<74 224> 604 125<229 714>
Fore
224 0 m 1
 74 0 l 1
 229 729 l 1
 741 729 l 1
 714 604 l 1
 352 604 l 1
 224 0 l 1
EndSplineSet
EndChar
StartChar: afii10021
Encoding: 1044 1044 421
Width: 918
Flags: W
HStem: -20 20G<111 681> 709 20G<329 851>
Fore
106 108 m 2
 4 108 l 1
 -50 -150 l 1
 80 -150 l 1
 111 0 l 1
 681 0 l 1
 650 -150 l 1
 780 -150 l 1
 834 108 l 1
 719 108 l 1
 851 729 l 1
 329 729 l 1
 272 461 l 1
 229 255 159 108 106 108 c 2
304 125 m 1
 362 209 392 319 412 414 c 0
 453 604 l 1
 675 604 l 1
 573 125 l 1
 304 125 l 1
EndSplineSet
EndChar
StartChar: afii10024
Encoding: 1046 1046 423
Width: 1054
Flags: W
HStem: 0 21G<22 201 475 625 899 1078> 709 20G<221 385 630 780 1025 1189>
Fore
536 285 m 1
 201 0 l 1
 22 0 l 1
 459 378 l 1
 221 729 l 1
 385 729 l 1
 571 450 l 1
 630 729 l 1
 780 729 l 1
 721 450 l 1
 1025 729 l 1
 1189 729 l 1
 801 378 l 1
 1078 0 l 1
 899 0 l 1
 686 285 l 1
 625 0 l 1
 475 0 l 1
 536 285 l 1
EndSplineSet
EndChar
StartChar: afii10025
Encoding: 1047 1047 424
Width: 659
Flags: W
HStem: -23 120<239 430.5> 308 120<334 475> 621 120<347.5 557.5>
VStem: 67 148<107.5 200.5> 526 151<172.5 292.5> 572 144<526.5 625.5>
Fore
356 97 m 0xf8
 427 97 526 122 526 223 c 0xf8
 526 270 496 308 411 308 c 2
 309 308 l 1
 334 428 l 1
 410 428 l 2
 540 428 572 504 572 549 c 0
 572 593 531 621 463 621 c 0
 368 621 307 581 286 507 c 1
 146 507 l 1
 159 569 213 741 482 741 c 0
 633 741 716 680 716 571 c 0xf4
 716 495 683 419 617 377 c 1
 658 352 677 317 677 268 c 0
 677 99 539 -23 322 -23 c 0
 156 -23 67 45 67 170 c 0
 67 185 68 201 71 218 c 1
 217 218 l 1
 216 211 215 204 215 197 c 0
 215 132 264 97 356 97 c 0xf8
EndSplineSet
EndChar
StartChar: afii10026
Encoding: 1048 1048 425
Width: 722
Flags: W
HStem: 0 21G<68 218 511 661> 709 20G<223 373 662 816>
Fore
218 0 m 1
 68 0 l 1
 223 729 l 1
 373 729 l 1
 268 233 l 1
 662 729 l 1
 816 729 l 1
 661 0 l 1
 511 0 l 1
 618 504 l 1
 218 0 l 1
EndSplineSet
EndChar
StartChar: afii10027
Encoding: 1049 1049 426
Width: 722
Flags: W
HStem: 0 21G<68 218 511 661> 709 20G<223 373 662 816>
Fore
218 0 m 1
 68 0 l 1
 223 729 l 1
 373 729 l 1
 268 233 l 1
 662 729 l 1
 816 729 l 1
 661 0 l 1
 511 0 l 1
 618 504 l 1
 218 0 l 1
EndSplineSet
EndChar
StartChar: afii10029
Encoding: 1051 1051 428
Width: 722
Flags: W
HStem: 0 145<-31 75> 709 20G<212 734>
Fore
558 604 m 1
 336 604 l 1
 296 414 l 1
 258 237 181 0 -31 0 c 1
 -1 145 l 1
 -0 145 l 0
 70 145 113 256 156 461 c 0
 212 729 l 1
 734 729 l 1
 580 0 l 1
 430 0 l 1
 558 604 l 1
EndSplineSet
EndChar
StartChar: afii10031
Encoding: 1053 1053 430
Width: 722
Flags: W
HStem: 0 21G<68 218 507 657> 709 20G<223 373 661 812>
Fore
573 311 m 1
 284 311 l 1
 218 0 l 1
 68 0 l 1
 223 729 l 1
 373 729 l 1
 311 436 l 1
 599 436 l 1
 661 729 l 1
 812 729 l 1
 657 0 l 1
 507 0 l 1
 573 311 l 1
EndSplineSet
EndChar
StartChar: afii10033
Encoding: 1055 1055 432
Width: 722
Flags: W
HStem: 0 21G<68 218 507 657> 604 125<223 812>
Fore
635 604 m 1
 346 604 l 1
 218 0 l 1
 68 0 l 1
 223 729 l 1
 812 729 l 1
 657 0 l 1
 507 0 l 1
 635 604 l 1
EndSplineSet
EndChar
StartChar: afii10037
Encoding: 1059 1059 436
Width: 698
Flags: W
HStem: 0 21G<136 310> 709 20G<152 315 659 833>
Fore
310 0 m 1
 136 0 l 1
 298 226 l 1
 152 729 l 1
 315 729 l 1
 414 384 l 1
 659 729 l 1
 833 729 l 1
 310 0 l 1
EndSplineSet
EndChar
StartChar: afii10038
Encoding: 1060 1060 437
Width: 902
Flags: W
HStem: 0 21G<294 444> 94 94<271 314 484 651.5> 540 98<240 408 571 607> 709 20G<449 599>
VStem: 23 135<199.5 357> 735 138<377 539.5>
Fore
873 450 m 0
 873 321 805 94 498 94 c 0
 484 94 472 94 464 94 c 1
 444 0 l 1
 294 0 l 1
 314 94 l 1
 306 94 294 94 280 94 c 0
 194 94 23 107 23 292 c 0
 23 422 79 638 401 638 c 0
 411 638 421 638 429 638 c 1
 449 729 l 1
 599 729 l 1
 579 638 l 1
 587 638 597 638 607 638 c 0
 700 638 873 629 873 450 c 0
392 540 m 0
 191 540 158 396 158 307 c 0
 158 197 241 188 301 188 c 0
 313 188 325 188 334 188 c 1
 408 540 l 1
 403 540 398 540 392 540 c 0
517 188 m 0
 691 188 735 332 735 422 c 0
 735 535 631 540 574 540 c 0
 568 540 563 540 558 540 c 1
 484 188 l 1
 493 188 505 188 517 188 c 0
EndSplineSet
EndChar
StartChar: afii10039
Encoding: 1061 1061 438
Width: 664
Flags: W
HStem: 0 21G<22 196 475 653> 709 20G<185 363 625 799>
Fore
498 372 m 1
 653 0 l 1
 475 0 l 1
 389 253 l 1
 196 0 l 1
 22 0 l 1
 330 367 l 1
 185 729 l 1
 363 729 l 1
 440 489 l 1
 625 729 l 1
 799 729 l 1
 498 372 l 1
EndSplineSet
EndChar
StartChar: afii10040
Encoding: 1062 1062 439
Width: 730
Flags: W
HStem: -20 20G<68 667> 709 20G<223 373 662 812>
Fore
534 125 m 1
 662 729 l 1
 812 729 l 1
 680 108 l 1
 820 108 l 1
 765 -150 l 1
 635 -150 l 1
 667 0 l 1
 68 0 l 1
 223 729 l 1
 373 729 l 1
 245 125 l 1
 534 125 l 1
EndSplineSet
EndChar
StartChar: afii10041
Encoding: 1063 1063 440
Width: 671
Flags: W
HStem: 0 21G<456 606> 709 20G<215 365 610 761>
Fore
514 274 m 1
 268 274 l 2
 198 275 141 313 141 371 c 0
 141 378 141 385 143 392 c 2
 215 729 l 1
 365 729 l 1
 295 399 l 1
 540 399 l 1
 610 729 l 1
 761 729 l 1
 606 0 l 1
 456 0 l 1
 514 274 l 1
EndSplineSet
EndChar
StartChar: afii10042
Encoding: 1064 1064 441
Width: 1101
Flags: W
HStem: 0 21G<68 1036> 709 20G<223 373 632 782 1041 1191>
Fore
1036 0 m 1
 68 0 l 1
 223 729 l 1
 373 729 l 1
 245 125 l 1
 504 125 l 1
 632 729 l 1
 782 729 l 1
 654 125 l 1
 913 125 l 1
 1041 729 l 1
 1191 729 l 1
 1036 0 l 1
EndSplineSet
EndChar
StartChar: afii10043
Encoding: 1065 1065 442
Width: 1179
Flags: W
HStem: -20 20G<68 1046> 709 20G<223 373 632 782 1041 1191>
Fore
1046 0 m 1
 68 0 l 1
 223 729 l 1
 373 729 l 1
 245 125 l 1
 504 125 l 1
 632 729 l 1
 782 729 l 1
 654 125 l 1
 913 125 l 1
 1041 729 l 1
 1191 729 l 1
 1059 108 l 1
 1199 108 l 1
 1144 -150 l 1
 1014 -150 l 1
 1046 0 l 1
EndSplineSet
EndChar
StartChar: afii10044
Encoding: 1066 1066 443
Width: 816
Flags: W
HStem: 0 125<420 652.5> 344 125<466 680> 709 20G<168 548>
VStem: 704 152<208 349.5>
Fore
856 296 m 0
 856 120 740 0 565 0 c 2
 243 0 l 1
 372 604 l 1
 142 605 l 1
 168 729 l 1
 548 729 l 1
 493 469 l 1
 680 469 l 2
 792 469 856 403 856 296 c 0
560 125 m 2
 675 125 704 210 704 270 c 0
 704 320 672 344 606 344 c 2
 466 344 l 1
 420 125 l 1
 560 125 l 2
EndSplineSet
EndChar
StartChar: afii10045
Encoding: 1067 1067 444
Width: 939
Flags: W
HStem: 0 125<243 475.5> 344 125<289 503> 709 20G<221 371 887 1037>
VStem: 527 152<208 349.5>
Fore
1037 729 m 1
 882 0 l 1
 732 0 l 1
 887 729 l 1
 1037 729 l 1
679 296 m 0
 679 120 563 0 388 0 c 2
 66 0 l 1
 221 729 l 1
 371 729 l 1
 316 469 l 1
 503 469 l 2
 615 469 679 403 679 296 c 0
383 125 m 2
 498 125 527 210 527 270 c 0
 527 320 495 344 429 344 c 2
 289 344 l 1
 243 125 l 1
 383 125 l 2
EndSplineSet
EndChar
StartChar: afii10046
Encoding: 1068 1068 445
Width: 639
Flags: W
HStem: 0 125<243 475.5> 344 125<289 503> 709 20G<221 371>
VStem: 527 152<208 349.5>
Fore
679 296 m 0
 679 120 563 0 388 0 c 2
 66 0 l 1
 221 729 l 1
 371 729 l 1
 316 469 l 1
 503 469 l 2
 615 469 679 403 679 296 c 0
383 125 m 2
 498 125 527 210 527 270 c 0
 527 320 495 344 429 344 c 2
 289 344 l 1
 243 125 l 1
 383 125 l 2
EndSplineSet
EndChar
StartChar: afii10047
Encoding: 1069 1069 446
Width: 737
Flags: W
HStem: -23 126<282.5 464.5> 311 125<347 638> 613 128<423.5 606>
VStem: 106 148<128.5 228> 638 149<436 557>
Fore
162 482 m 1
 204 621 326 741 521 741 c 0
 691 741 787 641 787 473 c 0
 787 437 783 399 774 358 c 0
 724 124 566 -23 363 -23 c 0
 202 -23 106 60 106 197 c 0
 106 213 107 231 110 249 c 1
 256 249 l 1
 255 240 254 232 254 224 c 0
 254 146 302 103 386 103 c 0
 490 103 572 179 612 311 c 1
 320 311 l 1
 347 436 l 1
 638 436 l 1
 638 445 l 0
 638 551 583 613 489 613 c 0
 411 613 349 578 305 482 c 1
 162 482 l 1
EndSplineSet
EndChar
StartChar: afii10048
Encoding: 1070 1070 447
Width: 1080
Flags: W
HStem: -23 128<624 823> 613 128<765.5 1009.5>
VStem: 456 151<197.5 319> 1027 151<379 520.5>
Fore
736 -23 m 0
 512 -23 456 137 456 258 c 0
 456 275 457 293 459 311 c 1
 283 311 l 1
 216 0 l 1
 66 0 l 1
 221 729 l 1
 371 729 l 1
 309 436 l 1
 488 436 l 1
 520 521 636 741 897 741 c 0
 1122 741 1178 584 1178 457 c 0
 1178 301 1098 158 1006 78 c 0
 929 10 840 -23 736 -23 c 0
871 613 m 0
 660 613 607 358 607 280 c 0
 607 172 664 105 763 105 c 0
 883 105 985 206 1017 355 c 0
 1024 385 1027 413 1027 439 c 0
 1027 548 970 613 871 613 c 0
EndSplineSet
EndChar
StartChar: afii10049
Encoding: 1071 1071 448
Width: 690
Flags: W
HStem: 0 21G<22 201 483 633> 604 125<377.5 611>
VStem: 175 152<384.5 521.5>
Fore
175 435 m 0
 175 608 289 729 466 729 c 2
 788 729 l 1
 633 0 l 1
 483 0 l 1
 538 260 l 1
 505 260 l 1
 201 0 l 1
 22 0 l 1
 323 261 l 1
 231 270 175 334 175 435 c 0
471 604 m 2
 356 604 327 519 327 459 c 0
 327 409 359 385 425 385 c 2
 565 385 l 1
 611 604 l 1
 471 604 l 2
EndSplineSet
EndChar
StartChar: afii10066
Encoding: 1073 1073 450
Width: 611
Flags: W
HStem: -23 117<216 420> 432 117<315.5 471>
VStem: 76 142<92.5 231> 467 142<294 425>
Fore
609 342 m 0
 609 264 560 -23 280 -23 c 0
 152 -23 76 23 76 162 c 0
 76 199 81 242 92 292 c 0
 121 428 176 603 321 684 c 0
 372 712 453 716 520 724 c 0
 568 730 583 776 583 776 c 1
 687 777 l 1
 678 736 668 690 630 666 c 0
 534 606 463 655 369 592 c 0
 316 557 269 470 269 470 c 1
 314 524 367 549 434 549 c 0
 508 549 609 508 609 342 c 0
307 94 m 0
 432 94 467 269 467 319 c 0
 467 388 434 432 379 432 c 0
 252 432 218 256 218 206 c 0
 218 137 251 94 307 94 c 0
EndSplineSet
EndChar
StartChar: afii10067
Encoding: 1074 1074 451
Width: 621
Flags: W
HStem: 0 110<223 419.5> 520 20G<175 463>
VStem: 439 137<132.5 203>
Fore
576 182 m 0
 576 83 488 0 351 0 c 2
 60 0 l 1
 175 540 l 1
 463 540 l 2
 589 540 612 470 612 423 c 0
 612 341 540 302 512 286 c 1
 555 257 576 223 576 182 c 0
387 333 m 2
 437 333 473 342 473 395 c 0
 473 423 451 430 407 430 c 2
 291 430 l 1
 271 333 l 1
 387 333 l 2
345 110 m 2
 397 110 439 128 439 188 c 0
 439 218 415 223 369 223 c 2
 247 223 l 1
 223 110 l 1
 345 110 l 2
EndSplineSet
EndChar
StartChar: afii10068
Encoding: 1075 1075 452
Width: 475
Flags: W
HStem: 0 21G<60 200> 520 20G<175 523>
Fore
523 540 m 1
 499 427 l 1
 291 427 l 1
 200 0 l 1
 60 0 l 1
 175 540 l 1
 523 540 l 1
EndSplineSet
EndChar
StartChar: afii10069
Encoding: 1076 1076 453
Width: 804
Flags: W
HStem: -20 20G<115 599> 520 20G<293 732>
Fore
638 101 m 1
 730 101 l 1
 682 -125 l 1
 572 -125 l 1
 599 0 l 1
 115 0 l 1
 88 -125 l 1
 -22 -125 l 1
 26 101 l 1
 122 101 l 2
 176 102 230 252 260 388 c 0
 293 540 l 1
 732 540 l 1
 638 101 l 1
303 113 m 1
 501 113 l 1
 568 427 l 1
 409 427 l 1
 398 376 l 2
 373 259 343 174 303 113 c 1
EndSplineSet
EndChar
StartChar: afii10072
Encoding: 1078 1078 455
Width: 775
Flags: W
HStem: 0 21G<16 195 332 472 609 788> 520 20G<167 315 447 587 719 867>
Fore
374 198 m 1
 195 0 l 1
 16 0 l 1
 292 296 l 1
 167 540 l 1
 315 540 l 1
 407 351 l 1
 447 540 l 1
 587 540 l 1
 547 351 l 1
 719 540 l 1
 867 540 l 1
 638 296 l 1
 788 0 l 1
 609 0 l 1
 514 198 l 1
 472 0 l 1
 332 0 l 1
 374 198 l 1
EndSplineSet
EndChar
StartChar: afii10073
Encoding: 1079 1079 456
Width: 556
Flags: W
HStem: -23 110<203.5 359.5> 208 110<271 398.5> 439 110<324.5 457>
VStem: 56 141<72.5 157> 410 145<134.5 212.5> 446 139<381.5 452.5>
CounterMasks: 1 00
Fore
292 87 m 0xf8
 381 87 410 120 410 163 c 0xf8
 410 185 399 208 339 208 c 2
 247 208 l 1
 271 318 l 1
 365 318 l 2
 432 318 446 371 446 397 c 0
 446 422 419 439 374 439 c 0
 307 439 269 415 258 366 c 1
 123 366 l 1
 149 480 252 549 397 549 c 0
 517 549 585 496 585 409 c 0xf4
 585 354 561 298 516 271 c 1
 542 252 555 229 555 196 c 0
 555 73 443 -23 276 -23 c 0
 131 -23 56 26 56 119 c 0
 56 131 57 143 60 157 c 1
 197 157 l 1
 197 154 197 152 197 149 c 0
 197 112 216 87 292 87 c 0xf8
EndSplineSet
EndChar
StartChar: afii10074
Encoding: 1080 1080 457
Width: 636
Flags: W
HStem: 0 21G<60 215 403 543> 520 20G<175 315 503 658>
Fore
175 540 m 1
 315 540 l 1
 242 197 l 1
 503 540 l 1
 658 540 l 1
 543 0 l 1
 403 0 l 1
 476 343 l 1
 215 0 l 1
 60 0 l 1
 175 540 l 1
EndSplineSet
EndChar
StartChar: afii10075
Encoding: 1081 1081 458
Width: 636
Flags: W
HStem: 0 21G<60 215 403 543> 520 20G<175 315 503 658> 611 78<398.5 471.5>
VStem: 324 48<684 754>
Fore
549 754 m 1
 591 754 l 1
 577 672 509 611 430 611 c 0
 367 611 324 653 324 715 c 0
 324 727 325 736 330 754 c 1
 372 754 l 1
 372 746 l 2
 372 710 399 689 446 689 c 0
 497 689 532 711 549 754 c 1
175 540 m 1
 315 540 l 1
 242 197 l 1
 503 540 l 1
 658 540 l 1
 543 0 l 1
 403 0 l 1
 476 343 l 1
 215 0 l 1
 60 0 l 1
 175 540 l 1
EndSplineSet
EndChar
StartChar: afii10076
Encoding: 1082 1082 459
Width: 529
Flags: W
HStem: 0 21G<59 199 366 548> 520 20G<174 314 476 624>
Fore
274 351 m 1
 476 540 l 1
 624 540 l 1
 358 296 l 1
 548 0 l 1
 366 0 l 1
 241 198 l 1
 199 0 l 1
 59 0 l 1
 174 540 l 1
 314 540 l 1
 274 351 l 1
EndSplineSet
EndChar
StartChar: afii10077
Encoding: 1083 1083 460
Width: 608
Flags: W
HStem: 0 21G<346 486> 520 20G<161 600>
Fore
161 540 m 1
 600 540 l 1
 486 0 l 1
 346 0 l 1
 436 427 l 1
 277 427 l 1
 267 376 l 1
 210 112 125 0 -28 0 c 1
 0 135 l 1
 74 136 100 252 129 388 c 2
 161 540 l 1
EndSplineSet
EndChar
StartChar: afii10078
Encoding: 1084 1084 461
Width: 697
Flags: W
HStem: 0 21G<60 200 464 604> 520 20G<175 315 579 719>
Fore
313 74 m 1
 255 257 l 1
 200 0 l 1
 60 0 l 1
 175 540 l 1
 315 540 l 1
 394 289 l 1
 579 540 l 1
 719 540 l 1
 604 0 l 1
 464 0 l 1
 519 257 l 1
 383 74 l 1
 313 74 l 1
EndSplineSet
EndChar
StartChar: afii10079
Encoding: 1085 1085 462
Width: 636
Flags: W
HStem: 0 21G<60 200 403 543> 520 20G<175 315 518 658>
Fore
175 540 m 1
 315 540 l 1
 275 352 l 1
 478 352 l 1
 518 540 l 1
 658 540 l 1
 543 0 l 1
 403 0 l 1
 456 237 l 1
 253 237 l 1
 200 0 l 1
 60 0 l 1
 175 540 l 1
EndSplineSet
EndChar
StartChar: afii10081
Encoding: 1087 1087 464
Width: 636
Flags: W
HStem: 0 21G<60 200 403 543> 520 20G<175 658>
Fore
175 540 m 1
 658 540 l 1
 543 0 l 1
 403 0 l 1
 494 427 l 1
 291 427 l 1
 200 0 l 1
 60 0 l 1
 175 540 l 1
EndSplineSet
EndChar
StartChar: afii10084
Encoding: 1090 1090 467
Width: 454
Flags: W
HStem: 0 21G<145 285> 520 20G<125 535>
Fore
535 540 m 1
 511 427 l 1
 376 427 l 1
 285 0 l 1
 145 0 l 1
 236 427 l 1
 101 427 l 1
 125 540 l 1
 535 540 l 1
EndSplineSet
EndChar
StartChar: afii10085
Encoding: 1091 1091 468
Width: 552
Flags: W
HStem: -219 103<77.5 149> 520 20G<120 274 505 649>
Fore
505 540 m 1
 649 540 l 1
 291 -99 l 2
 251 -169 212 -219 86 -219 c 0
 69 -219 57 -218 37 -215 c 1
 59 -110 l 1
 76 -115 84 -116 95 -116 c 0
 144 -116 190 -77 201 -26 c 1
 201 -23 l 1
 202 -22 l 1
 120 540 l 1
 274 540 l 1
 309 147 l 1
 505 540 l 1
EndSplineSet
EndChar
StartChar: afii10086
Encoding: 1092 1092 469
Width: 989
Flags: W
HStem: -24 117<192.5 366.5 651 746> 432 117<312 403 687.5 845> 699 20G<554 694>
VStem: 72 143<120 230> 463 128<170.5 353.5> 839 143<229 427>
CounterMasks: 1 00
Fore
982 346 m 0
 982 112 806 -24 686 -24 c 0
 618 -24 576 4 555 64 c 1
 495 -218 l 1
 355 -218 l 1
 415 64 l 1
 368 4 314 -24 246 -24 c 0
 139 -24 72 59 72 181 c 0
 72 243 95 372 182 464 c 0
 229 515 303 549 368 549 c 0
 436 549 478 520 499 460 c 1
 554 719 l 1
 694 719 l 1
 639 460 l 1
 686 520 740 549 808 549 c 0
 882 549 982 508 982 346 c 0
303 93 m 0
 430 93 463 269 463 319 c 0
 463 388 431 432 375 432 c 0
 249 432 215 255 215 205 c 0
 215 137 248 93 303 93 c 0
751 432 m 0
 624 432 591 254 591 205 c 0
 591 136 623 93 679 93 c 0
 748 93 812 162 833 260 c 0
 837 281 839 301 839 318 c 0
 839 388 808 432 751 432 c 0
EndSplineSet
EndChar
StartChar: afii10087
Encoding: 1093 1093 470
Width: 554
Flags: W
HStem: 0 21G<16 184 367 535> 520 20G<135 303 478 646>
Fore
413 272 m 1
 535 0 l 1
 367 0 l 1
 312 168 l 1
 184 0 l 1
 16 0 l 1
 254 272 l 1
 135 540 l 1
 303 540 l 1
 356 377 l 1
 478 540 l 1
 646 540 l 1
 413 272 l 1
EndSplineSet
EndChar
StartChar: afii10088
Encoding: 1094 1094 471
Width: 690
Flags: W
HStem: -20 20G<60 553> 520 20G<175 315 518 658>
Fore
60 0 m 1
 175 540 l 1
 315 540 l 1
 224 113 l 1
 427 113 l 1
 518 540 l 1
 658 540 l 1
 564 101 l 1
 684 101 l 1
 636 -125 l 1
 526 -125 l 1
 553 0 l 1
 60 0 l 1
EndSplineSet
EndChar
StartChar: afii10089
Encoding: 1095 1095 472
Width: 606
Flags: W
HStem: 0 21G<373 513> 520 20G<170 310 488 628>
Fore
170 540 m 1
 310 540 l 1
 254 278 l 1
 432 278 l 1
 488 540 l 1
 628 540 l 1
 513 0 l 1
 373 0 l 1
 408 165 l 1
 230 165 l 2
 168 165 112 181 112 248 c 0
 112 258 113 268 115 279 c 0
 170 540 l 1
EndSplineSet
EndChar
StartChar: afii10090
Encoding: 1096 1096 473
Width: 934
Flags: W
HStem: 0 21G<60 841> 520 20G<175 315 494 634 816 956>
Fore
841 0 m 1
 60 0 l 1
 175 540 l 1
 315 540 l 1
 224 113 l 1
 403 113 l 1
 494 540 l 1
 634 540 l 1
 543 113 l 1
 725 113 l 1
 816 540 l 1
 956 540 l 1
 841 0 l 1
EndSplineSet
EndChar
StartChar: afii10091
Encoding: 1097 1097 474
Width: 987
Flags: W
HStem: -20 20G<60 851> 520 20G<174 314 493 633 815 955>
Fore
851 0 m 1
 60 0 l 1
 174 540 l 1
 314 540 l 1
 224 113 l 1
 403 113 l 1
 493 540 l 1
 633 540 l 1
 543 113 l 1
 725 113 l 1
 815 540 l 1
 955 540 l 1
 862 101 l 1
 982 101 l 1
 934 -125 l 1
 824 -125 l 1
 851 0 l 1
EndSplineSet
EndChar
StartChar: afii10092
Encoding: 1098 1098 475
Width: 741
Flags: W
HStem: 0 110<344 562.5> 223 110<368 507> 427 113<124 271>
VStem: 560 139<164 245>
Fore
699 202 m 0
 699 126 653 0 472 0 c 2
 181 0 l 1
 271 427 l 1
 100 427 l 1
 124 540 l 1
 435 540 l 1
 391 333 l 1
 507 333 l 2
 633 333 699 288 699 202 c 0
457 110 m 2
 544 110 560 154 560 184 c 0
 560 217 529 223 481 223 c 2
 368 223 l 1
 344 110 l 1
 457 110 l 2
EndSplineSet
EndChar
StartChar: afii10093
Encoding: 1099 1099 476
Width: 839
Flags: W
HStem: 0 110<224 441.5> 223 110<248 387> 520 20G<175 315 721 861>
VStem: 439 138<158.5 239.5>
Fore
861 540 m 1
 746 0 l 1
 606 0 l 1
 721 540 l 1
 861 540 l 1
577 196 m 0
 577 125 532 0 351 0 c 2
 60 0 l 1
 175 540 l 1
 315 540 l 1
 271 333 l 1
 387 333 l 2
 515 333 577 283 577 196 c 0
346 110 m 2
 401 110 439 129 439 188 c 0
 439 218 416 223 370 223 c 2
 248 223 l 1
 224 110 l 1
 346 110 l 2
EndSplineSet
EndChar
StartChar: afii10094
Encoding: 1100 1100 477
Width: 619
Flags: W
HStem: 0 110<223 419> 223 110<247 387> 520 20G<175 315>
VStem: 439 138<137 239.5>
Fore
577 196 m 0
 577 78 487 0 351 0 c 2
 60 0 l 1
 175 540 l 1
 315 540 l 1
 271 333 l 1
 387 333 l 2
 515 333 577 283 577 196 c 0
345 110 m 2
 401 110 439 130 439 188 c 0
 439 218 415 223 369 223 c 2
 247 223 l 1
 223 110 l 1
 345 110 l 2
EndSplineSet
EndChar
StartChar: afii10095
Encoding: 1101 1101 478
Width: 575
Flags: W
HStem: -23 113<214 373.5> 207 113<281 455> 436 113<326.5 460>
VStem: 455 142<251 414.5>
Fore
597 351 m 0
 597 151 473 -23 274 -23 c 0
 154 -23 82 45 82 155 c 0
 82 165 83 176 84 187 c 1
 218 187 l 1
 221 117 243 90 297 90 c 0
 356 90 405 133 433 207 c 1
 257 207 l 1
 281 320 l 1
 455 320 l 1
 455 324 455 329 455 333 c 0
 455 396 438 436 371 436 c 0
 314 436 281 409 250 338 c 1
 116 338 l 1
 154 470 259 549 394 549 c 0
 526 549 597 478 597 351 c 0
EndSplineSet
EndChar
StartChar: afii10096
Encoding: 1102 1102 479
Width: 908
Flags: W
HStem: -23 113<524.5 699> 436 113<625 785>
VStem: 379 143<117 233> 788 143<251.5 411.5>
Fore
931 347 m 0
 931 156 804 -23 594 -23 c 0
 455 -23 379 53 379 181 c 0
 379 189 379 198 380 207 c 1
 244 207 l 1
 200 0 l 1
 60 0 l 1
 175 540 l 1
 315 540 l 1
 268 320 l 1
 404 320 l 1
 454 463 568 549 715 549 c 0
 855 549 931 476 931 347 c 0
618 90 m 0
 753 90 788 267 788 321 c 0
 788 392 753 436 692 436 c 0
 558 436 522 259 522 207 c 0
 522 135 557 90 618 90 c 0
EndSplineSet
EndChar
StartChar: afii10097
Encoding: 1103 1103 480
Width: 636
Flags: W
HStem: 0 21G<37 216 403 543> 430 110<298 495>
VStem: 140 139<314 401>
Fore
140 344 m 0
 140 458 229 540 367 540 c 2
 658 540 l 1
 543 0 l 1
 403 0 l 1
 447 207 l 1
 403 207 l 1
 216 0 l 1
 37 0 l 1
 239 218 l 1
 174 237 140 284 140 344 c 0
373 430 m 2
 317 430 279 410 279 352 c 0
 279 322 303 317 349 317 c 2
 471 317 l 1
 495 430 l 1
 373 430 l 2
EndSplineSet
EndChar
StartChar: afii10099
Encoding: 1106 1106 483
Width: 606
Flags: W
HStem: 0 21G<33 173> 520 20G<413.5 477.5> 567 104<106 153 316 463> 709 20G<188 328>
VStem: 440 150<351 463>
Fore
371 421 m 0
 399 421 440 411 440 356 c 0
 440 346 439 334 436 321 c 2
 393 112 l 1
 359 -25 242 -108 186 -110 c 1
 172 -172 l 1
 175 -173 179 -173 183 -173 c 0
 258 -173 489 -48 537 132 c 2
 583 354 l 2
 588 375 590 394 590 412 c 0
 590 514 508 540 447 540 c 0
 380 540 320 511 269 453 c 1
 293 567 l 1
 463 567 l 1
 486 671 l 1
 316 671 l 1
 328 729 l 1
 188 729 l 1
 176 671 l 1
 106 671 l 1
 83 567 l 1
 153 567 l 1
 33 0 l 1
 173 0 l 1
 240 315 l 2
 251 365 296 421 371 421 c 0
EndSplineSet
EndChar
StartChar: afii10101
Encoding: 1108 1108 485
Width: 556
Flags: W
HStem: -23 113<160 291.5> 207 113<166 341> 436 113<249 410.5>
VStem: 23 143<109.5 269>
Fore
23 172 m 0
 23 366 148 549 350 549 c 0
 471 549 541 485 541 377 c 0
 541 365 540 352 538 338 c 1
 404 338 l 1
 403 409 382 436 325 436 c 0
 245 436 212 376 191 320 c 1
 365 320 l 1
 341 207 l 1
 166 207 l 1
 166 195 l 0
 166 128 196 90 251 90 c 0
 305 90 339 117 372 187 c 1
 506 187 l 1
 465 58 357 -23 226 -23 c 0
 94 -23 23 47 23 172 c 0
EndSplineSet
EndChar
StartChar: afii10104
Encoding: 1111 1111 488
Width: 278
Flags: W
HStem: 0 21G<67 207> 520 20G<182 322> 621 120<146 230 332 416>
Fore
322 540 m 1
 207 0 l 1
 67 0 l 1
 182 540 l 1
 322 540 l 1
256 741 m 1
 230 621 l 1
 120 621 l 1
 146 741 l 1
 256 741 l 1
442 741 m 1
 416 621 l 1
 306 621 l 1
 332 741 l 1
 442 741 l 1
EndSplineSet
EndChar
StartChar: afii10106
Encoding: 1113 1113 490
Width: 900
Flags: W
HStem: 0 110<509 697> 520 20G<161 600>
VStem: 717 129<144 233>
Fore
661 319 m 2
 775 319 846 267 846 199 c 0
 846 89 765 0 629 0 c 2
 346 0 l 1
 436 427 l 1
 277 427 l 1
 267 376 l 2
 230 204 168 11 -12 0 c 2
 -28 0 l 1
 0 135 l 1
 75 136 104 269 129 388 c 2
 161 540 l 1
 600 540 l 1
 553 319 l 1
 661 319 l 2
717 173 m 0
 717 193 698 209 634 209 c 2
 530 209 l 1
 509 110 l 1
 618 110 l 2
 690 110 717 119 717 173 c 0
EndSplineSet
EndChar
StartChar: afii10107
Encoding: 1114 1114 491
Width: 611
Flags: W
HStem: 0 110<512 700> 520 20G<120 260 463 603>
VStem: 720 129<144 233>
Fore
664 319 m 6
 778 319 849 267 849 199 c 0
 849 89 768 0 632 0 c 6
 349 0 l 5
 393 207 l 5
 190 207 l 1
 146 0 l 1
 6 0 l 1
 120 540 l 1
 260 540 l 1
 214 320 l 1
 417 320 l 5
 463 540 l 5
 603 540 l 5
 556 319 l 5
 664 319 l 6
720 173 m 0
 720 193 701 209 637 209 c 6
 533 209 l 5
 512 110 l 5
 621 110 l 6
 693 110 720 119 720 173 c 0
EndSplineSet
EndChar
StartChar: afii10108
Encoding: 1115 1115 492
Width: 606
Flags: W
HStem: 0 21G<15 155 349 489> 520 20G<395 459.5> 567 104<87 157 275 445> 709 20G<169 309>
VStem: 422 149<351 463>
Fore
422 356 m 0
 422 411 381 421 353 421 c 4
 274 421 232 363 221 315 c 6
 155 0 l 5
 15 0 l 5
 135 567 l 5
 65 567 l 5
 87 671 l 5
 157 671 l 5
 169 729 l 5
 309 729 l 5
 297 671 l 5
 467 671 l 5
 445 567 l 5
 275 567 l 5
 251 453 l 5
 302 511 362 540 428 540 c 4
 491 540 571 514 571 412 c 0
 571 388 567 367 565 353 c 6
 489 0 l 5
 349 0 l 5
 418 321 l 6
 421 334 422 346 422 356 c 0
EndSplineSet
EndChar
StartChar: afii10193
Encoding: 1119 1119 496
Width: 636
Flags: W
HStem: 0 21G<60 543> 520 20G<175 315 518 658>
Fore
543 0 m 1
 60 0 l 1
 175 540 l 1
 315 540 l 1
 224 113 l 1
 427 113 l 1
 518 540 l 1
 658 540 l 1
 543 0 l 1
EndSplineSet
EndChar
StartChar: uni048C
Encoding: 1164 1164 497
Width: 639
Flags: W
HStem: 0 125<243 475> 551 80<125 200 333 408> 709 20G<221 371>
VStem: 527 152<211.5 349.5>
Fore
289 344 m 1
 243 125 l 1
 383 125 l 2
 476 125 527 188 527 270 c 0
 527 320 495 344 429 344 c 2
 289 344 l 1
350 631 m 1
 425 631 l 1
 408 551 l 1
 333 551 l 1
 316 469 l 1
 503 469 l 2
 615 469 679 403 679 296 c 0
 679 127 562 0 388 0 c 2
 66 0 l 1
 183 551 l 1
 108 551 l 1
 125 631 l 1
 200 631 l 1
 221 729 l 1
 371 729 l 1
 350 631 l 1
EndSplineSet
EndChar
StartChar: uni048D
Encoding: 1165 1165 498
Width: 619
Flags: W
HStem: 0 110<223 393> 398 80<87 162 285 370> 520 20G<175 315>
VStem: 414 138<136 239.5>
Fore
247 223 m 1
 223 110 l 1
 320 110 l 2
 382 110 414 140 414 188 c 0
 414 218 390 223 344 223 c 2
 247 223 l 1
302 478 m 1
 385 478 l 1
 370 398 l 1
 285 398 l 1
 271 333 l 1
 362 333 l 2
 490 333 552 283 552 196 c 0
 552 76 460 0 326 0 c 2
 60 0 l 1
 145 398 l 1
 72 398 l 1
 87 478 l 1
 162 478 l 1
 175 540 l 1
 315 540 l 1
 302 478 l 1
EndSplineSet
EndChar
StartChar: uni048E
Encoding: 1166 1166 499
Width: 649
Flags: W
HStem: 0 21G<68 218> 260 125<273 460> 709 20G<223 545>
VStem: 584 155<511.5 620.5>
Fore
559 439 m 1
 570 457 584 494 584 529 c 0
 584 580 552 604 486 604 c 2
 346 604 l 1
 299 385 l 1
 439 385 l 2
 459 385 477 387 493 392 c 1
 434 451 l 1
 503 495 l 1
 559 439 l 1
739 568 m 0
 739 524 724 419 653 345 c 1
 715 283 l 1
 646 239 l 1
 591 294 l 1
 552 272 508 260 460 260 c 2
 273 260 l 1
 218 0 l 1
 68 0 l 1
 223 729 l 1
 545 729 l 2
 672 729 739 673 739 568 c 0
EndSplineSet
EndChar
StartChar: uni048F
Encoding: 1167 1167 500
Width: 611
Flags: W
HStem: -24 117<273 338.5> 432 117<309.5 466>
VStem: 461 143<289 426.5>
Fore
373 432 m 0
 246 432 212 254 212 205 c 0
 212 136 245 93 301 93 c 0
 334 93 365 108 391 135 c 1
 322 204 l 1
 391 248 l 1
 436 203 l 1
 445 225 461 267 461 320 c 0
 461 389 429 432 373 432 c 0
604 345 m 0
 604 233 556 148 530 109 c 1
 603 36 l 1
 534 -8 l 1
 478 48 l 1
 428 3 369 -24 308 -24 c 0
 240 -24 198 4 176 64 c 1
 116 -218 l 1
 -24 -218 l 1
 138 540 l 1
 278 540 l 1
 261 460 l 1
 307 520 362 549 430 549 c 0
 502 549 604 508 604 345 c 0
EndSplineSet
EndChar
StartChar: afii10050
Encoding: 1168 1168 501
Width: 611
Flags: W
HStem: 0 21G<-18 132>
Fore
132 0 m 1
 -18 0 l 1
 137 729 l 1
 499 728 l 1
 528 864 l 1
 678 864 l 1
 623 604 l 1
 261 604 l 1
 132 0 l 1
EndSplineSet
EndChar
StartChar: afii10098
Encoding: 1169 1169 502
Width: 454
Flags: W
HStem: 0 21G<-7 133> 520 20G<108 328>
Fore
483 666 m 1
 432 427 l 1
 224 427 l 1
 133 0 l 1
 -7 0 l 1
 108 540 l 1
 328 540 l 1
 355 666 l 1
 483 666 l 1
EndSplineSet
EndChar
StartChar: uni0492
Encoding: 1170 1170 503
Width: 611
Flags: W
HStem: 0 21G<74 224> 389 80<97 174 306 380> 709 20G<229 741>
Fore
323 469 m 1
 397 469 l 1
 380 389 l 1
 306 389 l 1
 224 0 l 1
 74 0 l 1
 157 389 l 1
 80 389 l 1
 97 469 l 1
 174 469 l 1
 229 729 l 1
 741 729 l 1
 714 604 l 1
 352 604 l 1
 323 469 l 1
EndSplineSet
EndChar
StartChar: uni0493
Encoding: 1171 1171 504
Width: 475
Flags: W
HStem: 0 21G<60 200> 264 80<51 133 256 334> 520 20G<175 523>
Fore
133 344 m 1
 175 540 l 1
 523 540 l 1
 499 427 l 1
 291 427 l 1
 273 344 l 1
 351 344 l 1
 334 264 l 1
 256 264 l 1
 200 0 l 1
 60 0 l 1
 116 264 l 1
 34 264 l 1
 51 344 l 1
 133 344 l 1
EndSplineSet
EndChar
StartChar: uni0494
Encoding: 1172 1172 505
Width: 611
Flags: W
HStem: -166 107<328 486.5> 0 21G<74 224> 330 125<294 464> 709 20G<229 741>
Fore
224 0 m 1
 74 0 l 1
 229 729 l 1
 741 729 l 1
 714 604 l 1
 352 604 l 1
 320 455 l 1
 464 455 l 2
 617 455 673 390 673 289 c 0
 673 266 670 241 665 215 c 2
 619 0 l 2
 599 -92 563 -166 410 -166 c 2
 306 -166 l 1
 328 -59 l 1
 383 -59 l 2
 450 -59 462 -34 469 0 c 2
 517 224 l 2
 520 241 523 257 523 271 c 0
 523 307 504 330 437 330 c 2
 294 330 l 1
 224 0 l 1
EndSplineSet
EndChar
StartChar: uni0495
Encoding: 1173 1173 506
Width: 475
Flags: W
HStem: -132 88<281 387.5> 0 21G<60 200> 187 112<240 374> 520 20G<175 523>
Fore
291 427 m 1
 266 299 l 1
 374 299 l 2
 461 299 519 246 519 167 c 0
 519 149 517 131 513 112 c 2
 489 0 l 2
 473 -75 431 -132 344 -132 c 2
 263 -132 l 1
 281 -44 l 1
 328 -44 342 -26 352 22 c 2
 370 94 l 2
 374 115 375 115 375 128 c 0
 375 177 342 187 314 187 c 2
 240 187 l 1
 200 0 l 1
 60 0 l 1
 175 540 l 1
 523 540 l 1
 499 427 l 1
 291 427 l 1
EndSplineSet
EndChar
StartChar: uni0496
Encoding: 1174 1174 507
Width: 1054
Flags: W
HStem: -20 20G<899 948> 709 20G<221 385 630 780 1025 1189>
Fore
999 108 m 1
 1101 108 l 1
 1046 -150 l 1
 916 -150 l 1
 948 0 l 1
 899 0 l 1
 686 285 l 1
 625 0 l 1
 475 0 l 1
 536 285 l 1
 201 0 l 1
 22 0 l 1
 459 378 l 1
 221 729 l 1
 385 729 l 1
 571 450 l 1
 630 729 l 1
 780 729 l 1
 721 450 l 1
 1025 729 l 1
 1189 729 l 1
 801 378 l 1
 999 108 l 1
EndSplineSet
EndChar
StartChar: uni0497
Encoding: 1175 1175 508
Width: 775
Flags: W
HStem: -20 20G<609 678> 520 20G<167 315 447 587 719 867>
Fore
737 101 m 1
 809 101 l 1
 761 -125 l 1
 651 -125 l 1
 678 0 l 1
 609 0 l 1
 514 198 l 1
 472 0 l 1
 332 0 l 1
 374 198 l 1
 195 0 l 1
 16 0 l 1
 292 296 l 1
 167 540 l 1
 315 540 l 1
 407 351 l 1
 447 540 l 1
 587 540 l 1
 547 351 l 1
 719 540 l 1
 867 540 l 1
 638 296 l 1
 737 101 l 1
EndSplineSet
EndChar
StartChar: uni0498
Encoding: 1176 1176 509
Width: 659
Flags: W
HStem: -233 50<299 369.5> 308 120<334 466> 621 120<347.5 557.5>
VStem: 362 100<-180.5 -119> 526 151<169 292.5> 572 144<512.5 625.5>
Fore
360 -22 m 1xf8
 388 -35 462 -81 462 -157 c 0
 462 -204 411 -233 328 -233 c 0
 304 -233 283 -230 251 -224 c 1
 241 -172 l 1
 261 -179 286 -183 312 -183 c 0
 345 -183 362 -169 362 -143 c 0
 362 -116 345 -64 273 -21 c 1
 138 -8 67 59 67 170 c 0
 67 185 68 201 71 218 c 1
 217 218 l 1
 216 211 215 204 215 197 c 0
 215 132 268 97 356 97 c 0
 455 97 526 142 526 223 c 0xf8
 526 270 496 308 411 308 c 2
 309 308 l 1
 334 428 l 1
 410 428 l 2
 522 428 572 483 572 542 c 0
 572 586 531 621 463 621 c 0
 368 621 307 581 286 507 c 1
 146 507 l 1
 159 569 213 741 482 741 c 0
 633 741 716 680 716 571 c 0xf4
 716 487 674 413 617 377 c 1
 658 352 677 317 677 268 c 0
 677 70 539 -12 360 -22 c 1xf8
EndSplineSet
EndChar
StartChar: uni0499
Encoding: 1177 1177 510
Width: 556
Flags: W
HStem: -233 50<256 326.5> 208 110<271 396.5> 439 110<319.5 452>
VStem: 56 141<78.5 157> 319 100<-180.5 -118.5> 410 145<135.5 212.5> 441 139<376 452.5>
Fore
316 -21 m 1xf4
 347 -38 419 -80 419 -157 c 0
 419 -204 368 -233 285 -233 c 0
 261 -233 240 -230 208 -224 c 1
 198 -172 l 1
 218 -179 243 -183 269 -183 c 0
 302 -183 319 -169 319 -143 c 0xf8
 319 -116 302 -64 230 -21 c 1
 115 -11 56 38 56 119 c 0
 56 131 57 143 60 157 c 1
 197 157 l 1
 197 149 l 2
 197 92 247 87 292 87 c 0
 365 87 410 109 410 163 c 0xf4
 410 185 399 208 339 208 c 2
 247 208 l 1
 271 318 l 1
 360 318 l 2
 433 318 441 361 441 391 c 0
 441 416 414 439 369 439 c 0
 302 439 269 415 258 366 c 1
 123 366 l 1
 149 480 247 549 392 549 c 0
 512 549 580 496 580 409 c 0xf2
 580 349 557 296 516 271 c 1
 542 252 555 229 555 196 c 0
 555 75 452 -8 316 -21 c 1xf4
EndSplineSet
EndChar
StartChar: uni049A
Encoding: 1178 1178 511
Width: 720
Flags: W
HStem: -20 20G<534 583> 709 20G<229 379 664 841>
Fore
626 108 m 1
 736 108 l 1
 681 -150 l 1
 551 -150 l 1
 583 0 l 1
 534 0 l 1
 285 285 l 1
 224 0 l 1
 74 0 l 1
 229 729 l 1
 379 729 l 1
 320 450 l 1
 664 729 l 1
 841 729 l 1
 400 378 l 1
 626 108 l 1
EndSplineSet
EndChar
StartChar: uni049B
Encoding: 1179 1179 512
Width: 529
Flags: W
HStem: -20 20G<366 438> 520 20G<174 314 476 624>
Fore
483 101 m 1
 569 101 l 1
 521 -125 l 1
 411 -125 l 1
 438 0 l 1
 366 0 l 1
 241 198 l 1
 199 0 l 1
 59 0 l 1
 174 540 l 1
 314 540 l 1
 274 351 l 1
 476 540 l 1
 624 540 l 1
 358 296 l 1
 483 101 l 1
EndSplineSet
EndChar
StartChar: uni049C
Encoding: 1180 1180 513
Width: 720
Flags: W
HStem: 0 21G<74 224 538 725> 709 20G<229 379 664 841>
Fore
310 256 m 1
 285 285 l 1
 224 0 l 1
 74 0 l 1
 229 729 l 1
 379 729 l 1
 320 450 l 1
 358 481 l 1
 392 640 l 1
 502 640 l 1
 491 589 l 1
 664 729 l 1
 841 729 l 1
 456 422 l 1
 437 335 l 1
 725 0 l 1
 538 0 l 1
 399 157 l 1
 387 100 l 1
 277 100 l 1
 310 256 l 1
EndSplineSet
EndChar
StartChar: uni049D
Encoding: 1181 1181 514
Width: 529
Flags: W
HStem: 0 21G<59 199 366 548> 520 20G<174 314 476 624>
Fore
261 166 m 1
 241 198 l 1
 199 0 l 1
 59 0 l 1
 174 540 l 1
 314 540 l 1
 274 351 l 1
 307 382 l 1
 335 511 l 1
 425 511 l 1
 420 487 l 1
 476 540 l 1
 624 540 l 1
 384 320 l 1
 374 271 l 1
 548 0 l 1
 366 0 l 1
 329 59 l 1
 324 38 l 1
 234 38 l 1
 261 166 l 1
EndSplineSet
EndChar
StartChar: uni049E
Encoding: 1182 1182 515
Width: 720
Flags: W
HStem: 0 21G<74 224 538 725> 582 80<142 215 348 425> 709 20G<229 379 664 841>
Fore
365 662 m 1
 442 662 l 1
 425 582 l 1
 348 582 l 1
 320 450 l 1
 664 729 l 1
 841 729 l 1
 400 378 l 1
 725 0 l 1
 538 0 l 1
 285 285 l 1
 224 0 l 1
 74 0 l 1
 198 582 l 1
 125 582 l 1
 142 662 l 1
 215 662 l 1
 229 729 l 1
 379 729 l 1
 365 662 l 1
EndSplineSet
EndChar
StartChar: uni049F
Encoding: 1183 1183 516
Width: 529
Flags: W
HStem: 0 21G<59 199 366 548> 422 80<116 166 289 330> 520 20G<174 314 476 624>
Fore
306 502 m 1
 347 502 l 1
 330 422 l 1
 289 422 l 1
 274 351 l 1
 476 540 l 1
 624 540 l 1
 358 296 l 1
 548 0 l 1
 366 0 l 1
 241 198 l 1
 199 0 l 1
 59 0 l 1
 149 422 l 1
 99 422 l 1
 116 502 l 1
 166 502 l 1
 174 540 l 1
 314 540 l 1
 306 502 l 1
EndSplineSet
EndChar
StartChar: uni04A0
Encoding: 1184 1184 517
Width: 889
Flags: W
HStem: 0 21G<243 393 707 894> 604 125<168 548>
Fore
243 0 m 1
 371 604 l 1
 142 604 l 1
 168 729 l 1
 548 729 l 1
 489 450 l 1
 833 729 l 1
 1010 729 l 1
 569 378 l 1
 894 0 l 1
 707 0 l 1
 454 285 l 1
 393 0 l 1
 243 0 l 1
EndSplineSet
EndChar
StartChar: uni04A1
Encoding: 1185 1185 518
Width: 650
Flags: W
HStem: 0 21G<181 320 487 669> 427 113<124 271>
Fore
181 0 m 1
 271 427 l 1
 100 427 l 1
 124 540 l 1
 435 540 l 1
 395 351 l 1
 597 540 l 1
 745 540 l 1
 479 296 l 1
 669 0 l 1
 487 0 l 1
 362 198 l 1
 320 0 l 1
 181 0 l 1
EndSplineSet
EndChar
StartChar: uni04A2
Encoding: 1186 1186 519
Width: 722
Flags: W
HStem: -20 20G<507 657> 709 20G<223 373 661 812>
Fore
679 108 m 1
 810 108 l 1
 755 -150 l 1
 625 -150 l 1
 657 0 l 1
 507 0 l 1
 573 311 l 1
 284 311 l 1
 218 0 l 1
 68 0 l 1
 223 729 l 1
 373 729 l 1
 311 436 l 1
 599 436 l 1
 661 729 l 1
 812 729 l 1
 679 108 l 1
EndSplineSet
EndChar
StartChar: uni04A3
Encoding: 1187 1187 520
Width: 636
Flags: W
HStem: -20 20G<403 543> 520 20G<175 315 518 658>
Fore
564 101 m 1
 674 101 l 1
 626 -125 l 1
 516 -125 l 1
 543 0 l 1
 403 0 l 1
 456 237 l 1
 253 237 l 1
 200 0 l 1
 60 0 l 1
 175 540 l 1
 315 540 l 1
 275 352 l 1
 478 352 l 1
 518 540 l 1
 658 540 l 1
 564 101 l 1
EndSplineSet
EndChar
StartChar: uni04A4
Encoding: 1188 1188 521
Width: 992
Flags: W
HStem: 0 21G<68 218 507 655> 604 125<660 1095>
Fore
655 0 m 1
 507 0 l 1
 573 311 l 1
 284 311 l 1
 218 0 l 1
 68 0 l 1
 223 729 l 1
 373 729 l 1
 311 436 l 1
 599 436 l 1
 660 729 l 1
 1122 729 l 1
 1095 604 l 1
 783 604 l 1
 655 0 l 1
EndSplineSet
EndChar
StartChar: uni04A5
Encoding: 1189 1189 522
Width: 807
Flags: W
HStem: 0 21G<60 200 403 542> 520 20G<175 315 517 855>
Fore
542 0 m 1
 403 0 l 1
 456 237 l 1
 253 237 l 1
 200 0 l 1
 60 0 l 1
 175 540 l 1
 315 540 l 1
 275 352 l 1
 478 352 l 1
 517 540 l 1
 855 540 l 1
 831 427 l 1
 633 427 l 1
 542 0 l 1
EndSplineSet
EndChar
StartChar: uni04A6
Encoding: 1190 1190 523
Width: 1067
Flags: W
HStem: -166 107<762 920.5> 0 21G<68 218 507 658> 330 125<728 898> 604 125<223 812>
Fore
812 729 m 1
 754 455 l 1
 898 455 l 2
 1051 455 1107 390 1107 289 c 0
 1107 266 1104 241 1099 215 c 2
 1053 0 l 2
 1033 -92 997 -166 844 -166 c 2
 740 -166 l 1
 762 -59 l 1
 817 -59 l 2
 884 -59 896 -34 903 0 c 2
 951 224 l 2
 954 241 957 257 957 271 c 0
 957 307 938 330 871 330 c 2
 728 330 l 1
 658 0 l 1
 507 0 l 1
 635 604 l 1
 346 604 l 1
 218 0 l 1
 68 0 l 1
 223 729 l 1
 812 729 l 1
EndSplineSet
EndChar
StartChar: uni04A7
Encoding: 1191 1191 524
Width: 876
Flags: W
HStem: -132 88<624 730.5> 0 21G<60 200 403 543> 187 112<583 717> 520 20G<175 658>
Fore
609 299 m 1
 717 299 l 2
 804 299 862 246 862 167 c 0
 862 149 860 131 856 112 c 2
 832 0 l 2
 816 -75 774 -132 687 -132 c 2
 606 -132 l 1
 624 -44 l 1
 671 -44 685 -26 695 22 c 2
 713 94 l 2
 717 115 718 115 718 128 c 0
 718 177 685 187 657 187 c 2
 583 187 l 1
 543 0 l 1
 403 0 l 1
 494 427 l 1
 291 427 l 1
 200 0 l 1
 60 0 l 1
 175 540 l 1
 658 540 l 1
 609 299 l 1
EndSplineSet
EndChar
StartChar: uni04A8
Encoding: 1192 1192 525
Width: 837
Flags: W
HStem: -23 126<284.5 458.5> 613 128<414.5 610>
VStem: 106 151<160 382.5>
Fore
534 741 m 0
 686 741 787 658 787 535 c 0
 787 519 785 501 783 482 c 1
 640 482 l 1
 638 550 618 613 512 613 c 0
 368 613 257 452 257 264 c 0
 257 161 308 103 398 103 c 0
 491 103 562 156 591 249 c 1
 737 249 l 1
 692 82 549 -23 368 -23 c 0
 201 -23 106 77 106 243 c 0
 106 522 295 741 534 741 c 0
EndSplineSet
EndChar
StartChar: uni04A9
Encoding: 1193 1193 526
Width: 554
Flags: W
HStem: -23 113<215 346.5> 436 113<311 464.5>
VStem: 77 143<112.5 274.5>
Fore
379 436 m 0
 244 436 220 243 220 197 c 0
 220 129 248 90 306 90 c 0
 360 90 393 117 426 187 c 1
 560 187 l 1
 520 58 412 -23 281 -23 c 0
 149 -23 77 52 77 173 c 0
 77 376 218 549 404 549 c 0
 525 549 595 485 595 377 c 0
 595 365 594 352 592 338 c 1
 458 338 l 1
 457 409 436 436 379 436 c 0
EndSplineSet
EndChar
StartChar: uni04AA
Encoding: 1194 1194 527
Width: 837
Flags: W
HStem: -233 50<349 419.5> 613 128<414.5 610>
VStem: 106 151<168 382.5> 412 100<-180.5 -118.5>
Fore
409 -21 m 1
 440 -38 512 -80 512 -157 c 0
 512 -204 461 -233 378 -233 c 0
 354 -233 333 -230 301 -224 c 1
 291 -172 l 1
 311 -179 336 -183 362 -183 c 0
 395 -183 412 -169 412 -143 c 0
 412 -120 399 -67 322 -20 c 1
 184 -3 106 93 106 243 c 0
 106 522 295 741 534 741 c 0
 686 741 787 658 787 535 c 0
 787 519 785 501 783 482 c 1
 640 482 l 1
 638 550 618 613 512 613 c 0
 368 613 257 452 257 264 c 0
 257 161 308 103 398 103 c 0
 491 103 562 156 591 249 c 1
 737 249 l 1
 695 95 570 -7 409 -21 c 1
EndSplineSet
EndChar
StartChar: uni04AB
Encoding: 1195 1195 528
Width: 554
Flags: W
HStem: -233 50<264 334.5> 436 113<311 464.5>
VStem: 77 143<120 274.5> 327 100<-180.5 -118.5>
Fore
322 -20 m 1
 352 -35 427 -80 427 -157 c 0
 427 -204 376 -233 293 -233 c 0
 269 -233 248 -230 216 -224 c 1
 206 -172 l 1
 226 -179 251 -183 277 -183 c 0
 310 -183 327 -169 327 -143 c 0
 327 -96 287 -50 236 -20 c 1
 133 -4 77 67 77 173 c 0
 77 376 218 549 404 549 c 0
 525 549 595 485 595 377 c 0
 595 365 594 352 592 338 c 1
 458 338 l 1
 457 409 436 436 379 436 c 0
 244 436 220 243 220 197 c 0
 220 129 248 90 306 90 c 0
 360 90 393 117 426 187 c 1
 560 187 l 1
 524 72 434 -5 322 -20 c 1
EndSplineSet
EndChar
StartChar: uni04AC
Encoding: 1196 1196 529
Width: 611
Flags: W
HStem: -20 20G<235 385> 709 20G<169 753>
Fore
407 108 m 1
 538 108 l 1
 483 -150 l 1
 353 -150 l 1
 385 0 l 1
 235 0 l 1
 363 604 l 1
 142 604 l 1
 169 729 l 1
 753 729 l 1
 726 604 l 1
 513 604 l 1
 407 108 l 1
EndSplineSet
EndChar
StartChar: uni04AD
Encoding: 1197 1197 530
Width: 454
Flags: W
HStem: -20 20G<145 285> 520 20G<125 535>
Fore
306 101 m 1
 416 101 l 1
 368 -125 l 1
 258 -125 l 1
 285 0 l 1
 145 0 l 1
 236 427 l 1
 101 427 l 1
 125 540 l 1
 535 540 l 1
 511 427 l 1
 376 427 l 1
 306 101 l 1
EndSplineSet
EndChar
StartChar: uni04AE
Encoding: 1198 1198 531
Width: 667
Flags: W
HStem: 0 21G<269 419> 709 20G<182 349 638 805>
Fore
477 270 m 1
 419 0 l 1
 269 0 l 1
 327 270 l 1
 182 729 l 1
 349 729 l 1
 431 414 l 1
 638 729 l 1
 805 729 l 1
 477 270 l 1
EndSplineSet
EndChar
StartChar: uni04AF
Encoding: 1199 1199 532
Width: 667
Flags: W
HStem: 520 20G<160 327 555 723>
Fore
457 81 m 1
 419 -189 l 1
 269 -189 l 1
 307 81 l 1
 160 540 l 1
 327 540 l 1
 401 218 l 1
 555 540 l 1
 723 540 l 1
 457 81 l 1
EndSplineSet
EndChar
StartChar: uni04B0
Encoding: 1200 1200 533
Width: 667
Flags: W
HStem: 0 21G<272 422> 145 104<124 324 452 652> 709 20G<182 349 637 805>
Fore
302 145 m 1
 102 145 l 1
 124 249 l 1
 324 249 l 1
 328 270 l 1
 182 729 l 1
 349 729 l 1
 431 407 l 1
 637 729 l 1
 805 729 l 1
 478 270 l 1
 474 249 l 1
 674 249 l 1
 652 145 l 1
 452 145 l 1
 422 0 l 1
 272 0 l 1
 302 145 l 1
EndSplineSet
EndChar
StartChar: uni04B1
Encoding: 1201 1201 534
Width: 667
Flags: W
HStem: -23 104<108 308 444 644> 520 20G<160 327 555 723>
Fore
444 -23 m 1
 420 -189 l 1
 270 -189 l 1
 294 -23 l 1
 94 -23 l 1
 108 81 l 1
 308 81 l 1
 160 540 l 1
 327 540 l 1
 401 218 l 1
 555 540 l 1
 723 540 l 1
 458 81 l 1
 658 81 l 1
 644 -23 l 1
 444 -23 l 1
EndSplineSet
EndChar
StartChar: uni04B2
Encoding: 1202 1202 535
Width: 664
Flags: W
HStem: -20 20G<475 523> 709 20G<185 363 625 799>
Fore
608 108 m 1
 676 108 l 1
 621 -150 l 1
 491 -150 l 1
 523 0 l 1
 475 0 l 1
 389 253 l 1
 196 0 l 1
 22 0 l 1
 330 367 l 1
 185 729 l 1
 363 729 l 1
 440 489 l 1
 625 729 l 1
 799 729 l 1
 498 372 l 1
 608 108 l 1
EndSplineSet
EndChar
StartChar: uni04B3
Encoding: 1203 1203 536
Width: 554
Flags: W
HStem: -20 20G<367 426> 520 20G<135 303 478 646>
Fore
489 101 m 1
 557 101 l 1
 509 -125 l 1
 399 -125 l 1
 426 0 l 1
 367 0 l 1
 312 168 l 1
 184 0 l 1
 16 0 l 1
 254 272 l 1
 135 540 l 1
 303 540 l 1
 356 377 l 1
 478 540 l 1
 646 540 l 1
 413 272 l 1
 489 101 l 1
EndSplineSet
EndChar
StartChar: uni04B4
Encoding: 1204 1204 537
Width: 864
Flags: W
HStem: -20 20G<203 801> 604 125<167 689>
Fore
481 604 m 1
 379 125 l 1
 668 125 l 1
 796 729 l 1
 946 729 l 1
 814 108 l 1
 954 108 l 1
 899 -150 l 1
 769 -150 l 1
 801 0 l 1
 203 0 l 1
 331 604 l 1
 142 604 l 1
 167 729 l 1
 689 729 l 1
 664 604 l 1
 481 604 l 1
EndSplineSet
EndChar
StartChar: uni04B5
Encoding: 1205 1205 538
Width: 727
Flags: W
HStem: -20 20G<125 618> 427 113<125 495>
Fore
356 427 m 1
 289 113 l 1
 492 113 l 1
 583 540 l 1
 723 540 l 1
 629 101 l 1
 749 101 l 1
 701 -125 l 1
 591 -125 l 1
 618 0 l 1
 125 0 l 1
 216 427 l 1
 101 427 l 1
 125 540 l 1
 495 540 l 1
 471 427 l 1
 356 427 l 1
EndSplineSet
EndChar
StartChar: uni04B6
Encoding: 1206 1206 539
Width: 743
Flags: W
HStem: -20 20G<456 616> 274 125<370 540> 709 20G<215 365 610 761>
Fore
629 108 m 1
 769 108 l 1
 714 -150 l 1
 584 -150 l 1
 616 0 l 1
 456 0 l 1
 514 274 l 1
 370 274 l 2
 217 274 161 339 161 440 c 0
 161 463 164 488 169 514 c 2
 215 729 l 1
 365 729 l 1
 317 505 l 2
 314 488 311 472 311 458 c 0
 311 422 330 399 397 399 c 2
 540 399 l 1
 610 729 l 1
 761 729 l 1
 629 108 l 1
EndSplineSet
EndChar
StartChar: uni04B7
Encoding: 1207 1207 540
Width: 606
Flags: W
HStem: -20 20G<373 523> 165 113<323 432> 520 20G<170 310 488 628>
Fore
535 101 m 1
 654 101 l 1
 606 -125 l 1
 496 -125 l 1
 523 0 l 1
 373 0 l 1
 408 165 l 1
 323 165 l 2
 189 165 127 214 127 309 c 0
 127 327 129 347 134 369 c 2
 170 540 l 1
 310 540 l 1
 272 363 l 2
 269 349 267 337 267 326 c 0
 267 295 284 278 339 278 c 2
 432 278 l 1
 488 540 l 1
 628 540 l 1
 535 101 l 1
EndSplineSet
EndChar
StartChar: uni04B8
Encoding: 1208 1208 541
Width: 671
Flags: W
HStem: 0 21G<456 606> 530 20G<407 506> 709 20G<215 365 610 761>
Fore
376 400 m 1
 407 550 l 1
 506 550 l 1
 474 399 l 1
 540 399 l 1
 610 729 l 1
 761 729 l 1
 606 0 l 1
 456 0 l 1
 514 274 l 1
 448 274 l 1
 417 130 l 1
 318 130 l 1
 349 274 l 1
 212 280 161 344 161 440 c 0
 161 463 164 488 169 514 c 2
 215 729 l 1
 365 729 l 1
 317 505 l 2
 314 488 311 472 311 458 c 0
 311 426 326 405 376 400 c 1
EndSplineSet
EndChar
StartChar: uni04B9
Encoding: 1209 1209 542
Width: 606
Flags: W
HStem: 0 21G<373 513> 520 20G<170 310 488 628>
Fore
281 167 m 1
 176 177 127 225 127 309 c 0
 127 327 129 347 134 369 c 2
 170 540 l 1
 310 540 l 1
 272 363 l 2
 269 349 267 337 267 326 c 0
 267 303 277 287 305 281 c 1
 324 370 l 1
 403 370 l 1
 383 278 l 1
 432 278 l 1
 488 540 l 1
 628 540 l 1
 513 0 l 1
 373 0 l 1
 408 165 l 1
 359 165 l 1
 339 70 l 1
 260 70 l 1
 281 167 l 1
EndSplineSet
EndChar
StartChar: uni04BA
Encoding: 1210 1210 543
Width: 671
Flags: W
HStem: 0 21G<161 312 557 707> 330 125<382 552> 709 20G<316 466>
Fore
408 455 m 1
 552 455 l 2
 705 455 761 390 761 289 c 0
 761 266 758 241 752 215 c 2
 707 0 l 1
 557 0 l 1
 604 224 l 2
 608 241 610 257 610 271 c 0
 610 307 592 330 525 330 c 2
 382 330 l 1
 312 0 l 1
 161 0 l 1
 316 729 l 1
 466 729 l 1
 408 455 l 1
EndSplineSet
EndChar
StartChar: uni04BB
Encoding: 1211 1211 544
Width: 606
Flags: W
HStem: 0 21G<127 267 445 585> 520 20G<242 382>
Fore
585 0 m 1
 445 0 l 1
 483 177 l 2
 486 191 488 203 488 214 c 0
 488 245 471 262 416 262 c 2
 323 262 l 1
 267 0 l 1
 127 0 l 1
 242 540 l 1
 382 540 l 1
 347 375 l 1
 432 375 l 2
 566 375 628 326 628 231 c 0
 628 213 626 193 621 171 c 2
 585 0 l 1
EndSplineSet
EndChar
StartChar: uni04BC
Encoding: 1212 1212 545
Width: 837
Flags: W
HStem: -23 126<279.5 453.5> 613 128<447 608> 690 68<61 153>
VStem: -79 85<496.5 593> 101 151<160 281.5> 149 82<631 686.5> 635 152<474.5 584>
Fore
635 482 m 1xd2
 633 550 613 613 507 613 c 0
 425 613 354 561 308 482 c 1
 635 482 l 1xd2
529 741 m 0
 687 741 787 650 787 518 c 0
 787 431 782 398 774 365 c 1
 263 365 l 1
 256 333 252 299 252 264 c 0
 252 161 303 103 393 103 c 0
 486 103 557 156 586 249 c 1
 732 249 l 1
 687 82 544 -23 363 -23 c 0
 196 -23 101 77 101 243 c 0xda
 101 285 105 326 114 365 c 1
 -23 370 -79 461 -79 532 c 0
 -79 654 5 758 117 758 c 0
 189 758 231 719 231 654 c 0
 231 647 231 639 230 631 c 1
 149 631 l 1
 149 674 136 690 102 690 c 0xb6
 21 690 6 573 6 546 c 0
 6 506 23 482 59 482 c 2
 152 482 l 1
 224 637 365 741 529 741 c 0
EndSplineSet
EndChar
StartChar: uni04BD
Encoding: 1213 1213 546
Width: 552
Flags: W
HStem: -23 107<198 321.5> 246 93<210 572> 442 107<323 445.5> 477 45<32 93.5>
VStem: -62 58<350 412.5> 64 137<110.5 191.5> 91 55<438 475.5> 446 141<344 418.5>
Fore
235 339 m 1xe9
 444 339 l 1
 445 350 446 340 446 349 c 0
 446 412 414 442 361 442 c 0
 299 442 263 402 235 339 c 1xe9
587 354 m 0
 587 334 586 287 572 246 c 1
 210 246 l 1
 202 227 201 201 201 182 c 0
 201 176 201 170 201 166 c 0
 201 110 240 84 289 84 c 0
 340 84 384 109 411 152 c 1
 549 152 l 1
 495 46 382 -23 261 -23 c 0
 135 -23 64 49 64 172 c 0xed
 64 198 66 223 71 247 c 1
 -23 258 -62 328 -62 372 c 0
 -62 453 -5 522 69 522 c 0
 118 522 146 497 146 454 c 0
 146 449 145 444 144 438 c 1
 91 438 l 1
 90 466 82 477 59 477 c 0xdb
 5 477 -4 401 -4 382 c 0
 -4 354 7 339 31 339 c 2
 99 339 l 1
 151 461 260 549 386 549 c 0
 505 549 587 483 587 354 c 0
EndSplineSet
EndChar
StartChar: uni04BE
Encoding: 1214 1214 547
Width: 837
Flags: W
HStem: -233 50<344 414.5> 613 128<447 608> 690 68<61 153>
VStem: -79 85<496.5 593> 101 151<168 281.5> 149 82<631 686.5> 407 100<-180.5 -118.5> 635 152<474.5 584>
Fore
635 482 m 1xd3
 633 550 613 613 507 613 c 0
 425 613 354 561 308 482 c 1
 635 482 l 1xd3
404 -21 m 1
 435 -38 507 -80 507 -157 c 0
 507 -204 456 -233 373 -233 c 0
 349 -233 328 -230 296 -224 c 1
 286 -172 l 1
 306 -179 331 -183 357 -183 c 0
 390 -183 407 -169 407 -143 c 0
 407 -120 394 -67 317 -20 c 1
 179 -3 101 93 101 243 c 0xdb
 101 285 105 326 114 365 c 1
 -23 370 -79 461 -79 532 c 0
 -79 654 5 758 117 758 c 0
 189 758 231 719 231 654 c 0
 231 647 231 639 230 631 c 1
 149 631 l 1
 149 674 136 690 102 690 c 0xb7
 21 690 6 573 6 546 c 0
 6 506 23 482 59 482 c 2
 152 482 l 1
 224 637 365 741 529 741 c 0
 687 741 787 650 787 518 c 0
 787 431 782 398 774 365 c 1
 263 365 l 1
 256 333 252 299 252 264 c 0xdb
 252 161 303 103 393 103 c 0
 486 103 557 156 586 249 c 1
 732 249 l 1
 690 95 565 -7 404 -21 c 1
EndSplineSet
EndChar
StartChar: uni04BF
Encoding: 1215 1215 548
Width: 552
Flags: W
HStem: -233 50<239 309.5> 246 93<210 572> 442 107<323 445.5> 477 45<32 93.5>
VStem: -62 58<350 412.5> 64 137<119.5 185> 91 55<438 475.5> 302 100<-180.5 -117.5> 446 141<344 418.5>
Fore
235 339 m 1xe980
 444 339 l 1
 445 350 446 340 446 349 c 0
 446 412 414 442 361 442 c 0
 299 442 263 402 235 339 c 1xe980
298 -21 m 1
 326 -35 402 -78 402 -157 c 0
 402 -204 351 -233 268 -233 c 0
 244 -233 223 -230 191 -224 c 1
 181 -172 l 1
 201 -179 226 -183 252 -183 c 0
 285 -183 302 -169 302 -143 c 0
 302 -120 288 -65 209 -18 c 1
 115 0 64 67 64 172 c 0xed80
 64 198 66 223 71 247 c 1
 -23 258 -62 328 -62 372 c 0
 -62 453 -5 522 69 522 c 0
 118 522 146 497 146 454 c 0
 146 449 145 444 144 438 c 1
 91 438 l 1
 90 466 82 477 59 477 c 0xdb80
 5 477 -4 401 -4 382 c 0
 -4 354 7 339 31 339 c 2
 99 339 l 1
 151 461 260 549 386 549 c 0
 505 549 587 483 587 354 c 0
 587 334 586 287 572 246 c 1
 210 246 l 1
 202 227 201 201 201 182 c 0
 201 176 201 170 201 166 c 0xed80
 201 110 240 84 289 84 c 0
 340 84 384 109 411 152 c 1
 549 152 l 1
 501 57 405 -8 298 -21 c 1
EndSplineSet
EndChar
StartChar: uni04C0
Encoding: 1216 1216 549
Width: 278
Flags: W
HStem: 0 21G<63 213> 709 20G<218 368>
Fore
368 729 m 1
 213 0 l 1
 63 0 l 1
 218 729 l 1
 368 729 l 1
EndSplineSet
EndChar
StartChar: uni04C1
Encoding: 1217 1217 550
Width: 1054
Flags: W
HStem: 0 21G<22 201 475 625 899 1078> 709 20G<221 385 630 780 1025 1189> 801 78<688.5 761.5>
VStem: 614 48<874 944>
Fore
839 944 m 1
 881 944 l 1
 867 862 799 801 720 801 c 0
 657 801 614 843 614 905 c 0
 614 917 615 926 620 944 c 1
 662 944 l 1
 662 936 l 2
 662 900 689 879 736 879 c 0
 787 879 822 901 839 944 c 1
536 285 m 1
 201 0 l 1
 22 0 l 1
 459 378 l 1
 221 729 l 1
 385 729 l 1
 571 450 l 1
 630 729 l 1
 780 729 l 1
 721 450 l 1
 1025 729 l 1
 1189 729 l 1
 801 378 l 1
 1078 0 l 1
 899 0 l 1
 686 285 l 1
 625 0 l 1
 475 0 l 1
 536 285 l 1
EndSplineSet
EndChar
StartChar: uni04C2
Encoding: 1218 1218 551
Width: 775
Flags: W
HStem: 0 21G<16 195 332 472 609 788> 520 20G<167 315 447 587 719 867> 609 78<500.5 573.5>
VStem: 426 48<682 752>
Fore
651 752 m 1
 693 752 l 1
 679 670 611 609 532 609 c 0
 469 609 426 651 426 713 c 0
 426 725 427 734 432 752 c 1
 474 752 l 1
 474 744 l 2
 474 708 501 687 548 687 c 0
 599 687 634 709 651 752 c 1
374 198 m 1
 195 0 l 1
 16 0 l 1
 292 296 l 1
 167 540 l 1
 315 540 l 1
 407 351 l 1
 447 540 l 1
 587 540 l 1
 547 351 l 1
 719 540 l 1
 867 540 l 1
 638 296 l 1
 788 0 l 1
 609 0 l 1
 514 198 l 1
 472 0 l 1
 332 0 l 1
 374 198 l 1
EndSplineSet
EndChar
StartChar: uni04C3
Encoding: 1219 1219 552
Width: 720
Flags: W
HStem: -163 107<393 551.5> 0 21G<74 224> 253 125<400 588.5> 709 20G<229 379 664 841>
Fore
485 253 m 2
 278 253 l 1
 224 0 l 1
 74 0 l 1
 229 729 l 1
 379 729 l 1
 320 450 l 1
 664 729 l 1
 841 729 l 1
 400 378 l 1
 512 378 l 2
 665 378 721 313 721 212 c 0
 721 189 718 164 713 138 c 2
 684 3 l 2
 664 -89 628 -163 475 -163 c 2
 371 -163 l 1
 393 -56 l 1
 448 -56 l 2
 515 -56 527 -31 534 3 c 2
 565 147 l 2
 568 164 571 180 571 194 c 0
 571 230 552 253 485 253 c 2
EndSplineSet
EndChar
StartChar: uni04C4
Encoding: 1220 1220 553
Width: 529
Flags: W
HStem: -132 88<281 387.5> 0 21G<59 200> 520 20G<174 314 476 624>
Fore
374 297 m 2
 461 297 519 246 519 167 c 0
 519 149 517 131 513 112 c 2
 489 0 l 2
 473 -75 431 -132 344 -132 c 2
 263 -132 l 1
 281 -44 l 1
 328 -44 342 -26 352 22 c 2
 370 94 l 2
 374 115 375 115 375 128 c 0
 375 177 342 187 314 187 c 2
 240 187 l 1
 200 0 l 1
 59 0 l 1
 174 540 l 1
 314 540 l 1
 274 351 l 1
 476 540 l 1
 624 540 l 1
 358 296 l 1
 374 297 l 2
EndSplineSet
EndChar
StartChar: uni04C7
Encoding: 1223 1223 554
Width: 722
Flags: W
HStem: -166 107<366 524.5> 0 21G<68 218> 709 20G<223 373 661 812>
Fore
507 0 m 2
 573 311 l 1
 284 311 l 1
 218 0 l 1
 68 0 l 1
 223 729 l 1
 373 729 l 1
 311 436 l 1
 599 436 l 1
 661 729 l 1
 812 729 l 1
 657 0 l 2
 637 -92 601 -166 448 -166 c 2
 344 -166 l 1
 366 -59 l 1
 421 -59 l 2
 488 -59 500 -34 507 0 c 2
EndSplineSet
EndChar
StartChar: uni04C8
Encoding: 1224 1224 555
Width: 636
Flags: W
HStem: -132 88<337 443.5> 0 21G<60 200> 520 20G<175 315 518 658>
Fore
403 0 m 2
 456 237 l 1
 253 237 l 1
 200 0 l 1
 60 0 l 1
 175 540 l 1
 315 540 l 1
 275 352 l 1
 478 352 l 1
 518 540 l 1
 658 540 l 1
 543 0 l 2
 527 -75 487 -132 400 -132 c 2
 319 -132 l 1
 337 -44 l 1
 384 -44 398 -23 403 0 c 2
EndSplineSet
EndChar
StartChar: uni04CB
Encoding: 1227 1227 556
Width: 671
Flags: W
HStem: 0 21G<446 606> 274 125<370 540> 709 20G<215 365 610 761>
Fore
446 0 m 1
 414 -150 l 1
 284 -150 l 1
 339 108 l 1
 479 108 l 1
 514 274 l 1
 370 274 l 2
 217 274 161 339 161 440 c 0
 161 463 164 488 169 514 c 2
 215 729 l 1
 365 729 l 1
 317 505 l 2
 314 488 311 472 311 458 c 0
 311 422 330 399 397 399 c 2
 540 399 l 1
 610 729 l 1
 761 729 l 1
 606 0 l 1
 446 0 l 1
EndSplineSet
EndChar
